<?xml version="1.0" encoding="UTF-8" standalone="no"?>
<!-- Created with Inkscape (http://www.inkscape.org/) -->

<svg
   width="24"
   height="24"
   viewBox="0 0 24 24"
   version="1.1"
   id="svg5"
   inkscape:version="1.2.1 (9c6d41e410, 2022-07-14, custom)"
   sodipodi:docname="emblem-unreadable.svg"
   xmlns:inkscape="http://www.inkscape.org/namespaces/inkscape"
   xmlns:sodipodi="http://sodipodi.sourceforge.net/DTD/sodipodi-0.dtd"
   xmlns:xlink="http://www.w3.org/1999/xlink"
   xmlns="http://www.w3.org/2000/svg"
   xmlns:svg="http://www.w3.org/2000/svg">
  <sodipodi:namedview
     id="namedview7"
     pagecolor="#ffffff"
     bordercolor="#666666"
     borderopacity="1.0"
     inkscape:pageshadow="2"
     inkscape:pageopacity="0.0"
     inkscape:pagecheckerboard="0"
     inkscape:document-units="px"
     showgrid="false"
     units="px"
     height="22px"
     showguides="false"
     inkscape:zoom="34.458333"
     inkscape:cx="10.43289"
     inkscape:cy="11.98549"
     inkscape:window-width="1920"
     inkscape:window-height="1012"
     inkscape:window-x="0"
     inkscape:window-y="0"
     inkscape:window-maximized="1"
     inkscape:current-layer="svg5"
     inkscape:showpageshadow="2"
     inkscape:deskcolor="#d1d1d1" />
  <defs
     id="defs2">
    <linearGradient
       inkscape:collect="always"
       id="linearGradient2733">
      <stop
         style="stop-color:#ed6767;stop-opacity:1"
         offset="0"
         id="stop2729" />
      <stop
         style="stop-color:#d40101;stop-opacity:1"
         offset="1"
         id="stop2731" />
    </linearGradient>
    <linearGradient
       inkscape:collect="always"
       xlink:href="#linearGradient2733"
       id="linearGradient1062"
       x1="1.7878846"
       y1="2.4454489"
       x2="4.1237392"
       y2="2.5362391"
       gradientUnits="userSpaceOnUse"
       gradientTransform="matrix(2.6725297,2.6725297,-2.6725297,2.6725297,12.000001,-3.5563496)" />
    <linearGradient
       inkscape:collect="always"
       xlink:href="#linearGradient8163"
       id="linearGradient8165"
       x1="5.7449827"
       y1="8.3089285"
       x2="5.7449827"
       y2="19.347616"
       gradientUnits="userSpaceOnUse"
       gradientTransform="matrix(1.5909833,0,0,1.8118094,3.9688417,-13.054194)" />
    <linearGradient
       inkscape:collect="always"
       id="linearGradient8163">
      <stop
         style="stop-color:#e8ebf1;stop-opacity:1;"
         offset="0"
         id="stop8159" />
      <stop
         style="stop-color:#c6cfdd;stop-opacity:1"
         offset="1"
         id="stop8161" />
    </linearGradient>
  </defs>
  <rect
     style="fill:url(#linearGradient8165);fill-opacity:1;stroke-width:0.449213;stroke-linejoin:round"
     id="rect858"
     height="20"
     x="2"
     y="2"
     width="20"
     ry="2" />
  <path
     id="rect964"
     style="fill:#ffffff;stroke-width:0.999999;stroke-linejoin:round"
     d="M 4.0000001,3.0000002 H 19.999999 c 0.553999,0 1,0.446 1,1 V 20 c 0,0.553999 -0.446001,1 -1,1 H 4.0000001 c -0.554,0 -1,-0.446001 -1,-1 V 4.0000002 c 0,-0.554 0.446,-1 1,-1 z"
     sodipodi:nodetypes="sssssssss" />
  <path
     id="rect853"
     style="fill:url(#linearGradient1062);fill-opacity:1;stroke-width:0.999999;stroke-linejoin:round"
     d="m 18.24233,5.7576698 c -0.293802,-0.2938016 -0.766858,-0.2938018 -1.06066,0 L 12.000001,10.93934 6.8183302,5.7576698 c -0.2938017,-0.2938015 -0.7668572,-0.2938016 -1.0606603,0 -0.2938016,0.2938016 -0.293802,0.7668584 0,1.0606604 L 10.93934,12.000001 5.7576698,17.18167 c -0.2938013,0.293801 -0.2938016,0.766857 0,1.06066 0.2938016,0.293801 0.7668586,0.293802 1.0606603,0 l 5.1816709,-5.181669 5.181669,5.181669 c 0.293801,0.293801 0.766857,0.293801 1.06066,0 0.293801,-0.293802 0.293802,-0.766858 0,-1.06066 L 13.060661,12.000001 18.24233,6.8183302 c 0.293801,-0.2938014 0.293801,-0.7668572 0,-1.0606604 z"
     sodipodi:nodetypes="sscssscssscssscss" />
</svg>
