<?xml version="1.0" encoding="UTF-8" standalone="no"?>
<!-- Created with Inkscape (http://www.inkscape.org/) -->

<svg
   width="24"
   height="24"
   viewBox="0 0 24 24"
   version="1.1"
   id="svg5"
   inkscape:version="1.2.1 (9c6d41e410, 2022-07-14, custom)"
   sodipodi:docname="emblem-symbolic-link.svg"
   xmlns:inkscape="http://www.inkscape.org/namespaces/inkscape"
   xmlns:sodipodi="http://sodipodi.sourceforge.net/DTD/sodipodi-0.dtd"
   xmlns:xlink="http://www.w3.org/1999/xlink"
   xmlns="http://www.w3.org/2000/svg"
   xmlns:svg="http://www.w3.org/2000/svg">
  <sodipodi:namedview
     id="namedview7"
     pagecolor="#ffffff"
     bordercolor="#666666"
     borderopacity="1.0"
     inkscape:pageshadow="2"
     inkscape:pageopacity="0.0"
     inkscape:pagecheckerboard="0"
     inkscape:document-units="px"
     showgrid="false"
     units="px"
     height="22px"
     showguides="false"
     inkscape:zoom="33.75"
     inkscape:cx="11.985185"
     inkscape:cy="12"
     inkscape:window-width="1920"
     inkscape:window-height="1012"
     inkscape:window-x="0"
     inkscape:window-y="0"
     inkscape:window-maximized="1"
     inkscape:current-layer="svg5"
     inkscape:showpageshadow="2"
     inkscape:deskcolor="#d1d1d1" />
  <defs
     id="defs2">
    <linearGradient
       inkscape:collect="always"
       id="linearGradient2733">
      <stop
         style="stop-color:#1b9de2;stop-opacity:1;"
         offset="0"
         id="stop2729" />
      <stop
         style="stop-color:#0178d4;stop-opacity:1"
         offset="1"
         id="stop2731" />
    </linearGradient>
    <linearGradient
       inkscape:collect="always"
       xlink:href="#linearGradient2733"
       id="linearGradient2735"
       x1="8.7500048"
       y1="6.0000019"
       x2="16"
       y2="13.250001"
       gradientUnits="userSpaceOnUse"
       gradientTransform="translate(1.9996536,9.9995087e-4)" />
    <linearGradient
       inkscape:collect="always"
       xlink:href="#linearGradient8163"
       id="linearGradient8165"
       x1="5.7449827"
       y1="8.3089285"
       x2="5.7449827"
       y2="19.347616"
       gradientUnits="userSpaceOnUse"
       gradientTransform="matrix(1.5909833,0,0,1.8118094,3.9688411,-13.054194)" />
    <linearGradient
       inkscape:collect="always"
       id="linearGradient8163">
      <stop
         style="stop-color:#e8ebf1;stop-opacity:1;"
         offset="0"
         id="stop8159" />
      <stop
         style="stop-color:#c6cfdd;stop-opacity:1"
         offset="1"
         id="stop8161" />
    </linearGradient>
  </defs>
  <rect
     style="fill:url(#linearGradient8165);fill-opacity:1;stroke-width:0.449213;stroke-linejoin:round"
     id="rect858"
     height="20"
     x="2"
     y="2"
     width="20"
     ry="2" />
  <path
     id="rect964"
     style="fill:#ffffff;stroke-width:0.999999;stroke-linejoin:round"
     d="M 4.0000001,3.0000001 H 19.999999 c 0.553999,0 1,0.446 1,1 V 20 c 0,0.553999 -0.446001,1 -1,1 H 4.0000001 c -0.554,0 -1,-0.446001 -1,-1 V 4.0000001 c 0,-0.554 0.446,-1 1,-1 z"
     sodipodi:nodetypes="sssssssss" />
  <path
     id="rect1721"
     style="fill:url(#linearGradient2735);fill-opacity:1;stroke-width:1.22474;stroke-linejoin:round"
     d="m 10.710592,6.0009925 c -0.397229,-0.022699 -0.7109384,0.347486 -0.7109384,0.75 0,0.4155002 0.3345004,0.7500001 0.7500014,0.7500001 H 15.44106 L 6.2203569,16.719743 c -0.2938167,0.293786 -0.2938016,0.766744 0,1.060546 0.2938016,0.293802 0.766729,0.293791 1.0605468,0 L 16.499654,8.5634926 v 4.6875004 c 0,0.415499 0.3345,0.75 0.75,0.75 0.4155,0 0.75,-0.3345 0.75,-0.75 V 6.7900551 c 6.47e-4,-0.012813 0,-0.026079 0,-0.039061 0,-0.4025156 -0.313564,-0.7299871 -0.710938,-0.7500001 -0.01281,-6.455e-4 -0.02608,0 -0.03906,0 h -0.03906 -6.460937 c -0.013,0 -0.02623,7.318e-4 -0.03906,-1.1e-6 z"
     sodipodi:nodetypes="sssccsccssscssscsss" />
</svg>
