<?xml version="1.0" encoding="UTF-8" standalone="no"?>
<!-- Created with Inkscape (http://www.inkscape.org/) -->

<svg
   width="24"
   height="24"
   viewBox="0 0 24 24"
   version="1.1"
   id="svg423"
   inkscape:version="1.2.1 (9c6d41e410, 2022-07-14, custom)"
   sodipodi:docname="audio-volume-muted.svg"
   xmlns:inkscape="http://www.inkscape.org/namespaces/inkscape"
   xmlns:sodipodi="http://sodipodi.sourceforge.net/DTD/sodipodi-0.dtd"
   xmlns="http://www.w3.org/2000/svg"
   xmlns:svg="http://www.w3.org/2000/svg">
  <sodipodi:namedview
     id="namedview425"
     pagecolor="#ffffff"
     bordercolor="#000000"
     borderopacity="0.25"
     inkscape:showpageshadow="2"
     inkscape:pageopacity="0.0"
     inkscape:pagecheckerboard="0"
     inkscape:deskcolor="#d1d1d1"
     inkscape:document-units="px"
     showgrid="false"
     inkscape:zoom="33.416667"
     inkscape:cx="12"
     inkscape:cy="12"
     inkscape:window-width="1920"
     inkscape:window-height="1011"
     inkscape:window-x="0"
     inkscape:window-y="0"
     inkscape:window-maximized="1"
     inkscape:current-layer="svg423" />
  <defs
     id="defs420">
    <style
       id="current-color-scheme"
       type="text/css">
   .ColorScheme-Text { color:#dedede; } .ColorScheme-Highlight { color:#4285f4; } .ColorScheme-NeutralText { color:#ff9800; } .ColorScheme-PositiveText { color:#4caf50; } .ColorScheme-NegativeText { color:#f44336; }
   </style>
  </defs>
  <path
     id="path408"
     style="fill:currentColor;fill-opacity:1;stroke-width:2.001;stroke-linecap:round;stroke-linejoin:round;-inkscape-stroke:none;paint-order:normal"
     class="ColorScheme-Text"
     d="M 9.9863281,6.7082221 C 9.7273022,6.7120312 9.4779826,6.8157464 9.2929688,7.0011908 L 7.296875,8.9992377 H 6 c -1.0906956,0 -2,0.9093044 -2,2.0000003 v 2 c 0,1.090696 0.9093044,2 2,2 h 1.296875 l 1.9960938,1.998047 C 9.9229623,17.626783 10.999622,17.18085 11,16.290254 V 7.7082221 c -2.6e-5,-0.4044036 -0.243599,-0.7689933 -0.617187,-0.9238282 -0.09097,-0.038013 -0.187061,-0.062365 -0.285157,-0.072266 -0.03725,-0.00362 -0.07432,-0.00445 -0.1113279,-0.00391 z M 10,7.7101752 V 16.2883 L 7.7109375,13.999238 H 6 c -0.5539976,0 -1,-0.446003 -1,-1 v -2 C 5,10.44524 5.4460024,9.9992377 6,9.9992377 h 1.7109375 z m 3.878906,1.3789063 c -0.127809,0 -0.255581,0.04855 -0.353515,0.1464843 -0.195869,0.1958683 -0.195868,0.5111625 0,0.7070313 l 2.060547,2.0605469 -2.060547,2.060547 c -0.195859,0.195878 -0.195869,0.511164 0,0.707031 0.195868,0.195869 0.511172,0.195879 0.707031,0 l 2.060547,-2.060547 2.060547,2.060547 c 0.195868,0.195869 0.511162,0.195869 0.707031,0 0.195868,-0.195867 0.195868,-0.511164 0,-0.707031 L 17,12.003144 19.060547,9.9425971 c 0.195877,-0.1958585 0.195868,-0.5111629 0,-0.7070313 -0.195869,-0.1958683 -0.511155,-0.1958584 -0.707031,0 L 16.292969,11.296113 14.232422,9.2355658 C 14.134487,9.1376318 14.006716,9.0890815 13.878906,9.0890815 Z" />
</svg>
