<?xml version="1.0" encoding="UTF-8" standalone="no"?>
<!-- Created with Inkscape (http://www.inkscape.org/) -->

<svg
   width="24"
   height="24"
   viewBox="0 0 24 24"
   version="1.1"
   id="svg5"
   sodipodi:docname="battery-100.svg"
   inkscape:version="1.2.1 (9c6d41e410, 2022-07-14, custom)"
   xmlns:inkscape="http://www.inkscape.org/namespaces/inkscape"
   xmlns:sodipodi="http://sodipodi.sourceforge.net/DTD/sodipodi-0.dtd"
   xmlns="http://www.w3.org/2000/svg"
   xmlns:svg="http://www.w3.org/2000/svg">
  <sodipodi:namedview
     id="namedview7"
     pagecolor="#ffffff"
     bordercolor="#666666"
     borderopacity="1.0"
     inkscape:showpageshadow="2"
     inkscape:pageopacity="0.0"
     inkscape:pagecheckerboard="0"
     inkscape:deskcolor="#d1d1d1"
     inkscape:document-units="px"
     showgrid="false"
     inkscape:zoom="33.708333"
     inkscape:cx="11.970334"
     inkscape:cy="12"
     inkscape:window-width="1920"
     inkscape:window-height="1012"
     inkscape:window-x="0"
     inkscape:window-y="0"
     inkscape:window-maximized="1"
     inkscape:current-layer="svg5"
     showguides="true"
     inkscape:lockguides="false" />
  <defs
     id="defs2">
    <style
       id="current-color-scheme"
       type="text/css">
   .ColorScheme-Text { color:#dedede; } .ColorScheme-Highlight { color:#4285f4; } .ColorScheme-NeutralText { color:#ff9800; } .ColorScheme-PositiveText { color:#4caf50; } .ColorScheme-NegativeText { color:#f44336; }
   </style>
  </defs>
  <path
     id="path1017"
     style="fill:currentColor;fill-opacity:1"
     class="ColorScheme-Text"
     d="M 7 7 C 5.8920041 7 5 7.8920044 5 9 L 5 15 C 5 16.107996 5.8920041 17 7 17 L 17 17 C 18.107996 17 19 16.107996 19 15 L 19 14.136719 C 20.107997 14.136719 21 13.244715 21 12.136719 C 21 11.028722 20.107997 10.136719 19 10.136719 L 19 9 C 19 7.8920044 18.107996 7 17 7 L 7 7 z M 7 8 L 17 8 C 17.553997 8 18 8.4460024 18 9 L 18 15 C 18 15.553996 17.553997 16 17 16 L 7 16 C 6.4460036 16 6 15.553996 6 15 L 6 9 C 6 8.4460024 6.4460036 8 7 8 z M 7 9 L 7 15 L 17 15 L 17 9 L 7 9 z " />
</svg>
