<?xml version="1.0" encoding="UTF-8" standalone="no"?>
<!-- Created with Inkscape (http://www.inkscape.org/) -->

<svg
   width="24"
   height="24"
   viewBox="0 0 24 24"
   version="1.1"
   id="svg5"
   inkscape:version="1.2.2 (1:1.2.2+202305151914+b0a8486541)"
   sodipodi:docname="fcitx-hangul-panel.svg"
   xmlns:inkscape="http://www.inkscape.org/namespaces/inkscape"
   xmlns:sodipodi="http://sodipodi.sourceforge.net/DTD/sodipodi-0.dtd"
   xmlns="http://www.w3.org/2000/svg"
   xmlns:svg="http://www.w3.org/2000/svg">
  <sodipodi:namedview
     id="namedview7"
     pagecolor="#ffffff"
     bordercolor="#000000"
     borderopacity="0.25"
     inkscape:showpageshadow="2"
     inkscape:pageopacity="0.0"
     inkscape:pagecheckerboard="0"
     inkscape:deskcolor="#d1d1d1"
     inkscape:document-units="px"
     showgrid="false"
     inkscape:zoom="34.583333"
     inkscape:cx="11.985542"
     inkscape:cy="12"
     inkscape:window-width="1920"
     inkscape:window-height="1008"
     inkscape:window-x="0"
     inkscape:window-y="0"
     inkscape:window-maximized="1"
     inkscape:current-layer="svg5" />
  <defs
     id="defs2">
    <style
       id="current-color-scheme"
       type="text/css">.ColorScheme-Text { color:#dedede; }</style>
  </defs>
  <path
     d="M 9,4 V 6 H 5 v 1 h 9 V 6 H 10 V 4 Z m 7,0 v 11 h 1 v -5 h 2 V 9 H 17 V 4 Z M 9.5,8 C 7.5670034,8 6,9.3431458 6,11 6,12.656854 7.5670034,14 9.5,14 11.432996,14 13,12.656854 13,11 13,9.3431458 11.432996,8 9.5,8 Z m 0,1 c 1.380712,0 2.5,0.8954305 2.5,2 0,1.10457 -1.119288,2 -2.5,2 C 8.1192881,13 7,12.10457 7,11 7,9.8954305 8.1192881,9 9.5,9 Z M 8,15 v 4 h 9 V 18 H 9 v -3 z"
     style="fill:currentColor;fill-opacity:1"
     class="ColorScheme-Text"
     id="path4143" />
</svg>
