<?xml version="1.0" encoding="UTF-8" standalone="no"?>
<!-- Created with Inkscape (http://www.inkscape.org/) -->

<svg
   width="24"
   height="24"
   viewBox="0 0 24 24"
   version="1.1"
   id="svg5"
   inkscape:version="1.2.2 (1:1.2.2+202305151914+b0a8486541)"
   sodipodi:docname="input-keyboard-virtual-off.svg"
   xmlns:inkscape="http://www.inkscape.org/namespaces/inkscape"
   xmlns:sodipodi="http://sodipodi.sourceforge.net/DTD/sodipodi-0.dtd"
   xmlns="http://www.w3.org/2000/svg"
   xmlns:svg="http://www.w3.org/2000/svg">
  <sodipodi:namedview
     id="namedview7"
     pagecolor="#ffffff"
     bordercolor="#000000"
     borderopacity="0.25"
     inkscape:showpageshadow="2"
     inkscape:pageopacity="0.0"
     inkscape:pagecheckerboard="0"
     inkscape:deskcolor="#d1d1d1"
     inkscape:document-units="px"
     showgrid="false"
     inkscape:zoom="34.583333"
     inkscape:cx="11.985542"
     inkscape:cy="12"
     inkscape:window-width="1920"
     inkscape:window-height="1008"
     inkscape:window-x="0"
     inkscape:window-y="0"
     inkscape:window-maximized="1"
     inkscape:current-layer="svg5" />
  <defs
     id="defs2">
    <style
       id="current-color-scheme"
       type="text/css">.ColorScheme-Text { color:#dedede; }</style>
  </defs>
  <path
     d="M 6,7 C 4.8920022,7 4,7.8920022 4,9 v 7 c 0,1.107999 0.8920022,2.000001 2,2.000001 h 11 c 1.107998,0 2,-0.892002 2,-2.000001 V 9 C 19,7.8920022 18.107998,7 17,7 Z m 0,1 h 11 c 0.553998,0 1,0.4460012 1,1 v 7 c 0,0.553999 -0.446002,1.000001 -1,1.000001 H 6 C 5.4460012,17.000001 5,16.553999 5,16 V 9 C 5,8.4460012 5.4460012,8 6,8 Z M 7,9 C 6.4477153,9 6,9.4477153 6,10 6,10.552285 6.4477153,11 7,11 7.5522847,11 8,10.552285 8,10 8,9.4477153 7.5522847,9 7,9 Z m 3,0 c -0.5522847,0 -1,0.4477153 -1,1 0,0.552285 0.4477153,1 1,1 0.552285,0 1,-0.447715 1,-1 0,-0.5522847 -0.447715,-1 -1,-1 z m 3,0 c -0.552285,0 -1,0.4477153 -1,1 0,0.552285 0.447715,1 1,1 0.552285,0 1,-0.447715 1,-1 0,-0.5522847 -0.447715,-1 -1,-1 z m 3,0 c -0.552285,0 -1,0.4477153 -1,1 0,0.552285 0.447715,1 1,1 0.552285,0 1,-0.447715 1,-1 0,-0.5522847 -0.447715,-1 -1,-1 z m -8,3 c -0.5522847,0 -1,0.447715 -1,1 0,0.552285 0.4477153,1 1,1 0.5522847,0 1,-0.447715 1,-1 0,-0.552285 -0.4477153,-1 -1,-1 z m 3,0 c -0.552285,0 -1,0.447715 -1,1 0,0.552285 0.447715,1 1,1 0.552285,0 1,-0.447715 1,-1 0,-0.552285 -0.447715,-1 -1,-1 z m 3,0 c -0.552285,0 -1,0.447715 -1,1 0,0.552285 0.447715,1 1,1 0.552285,0 1,-0.447715 1,-1 0,-0.552285 -0.447715,-1 -1,-1 z m -6,3 v 1 h 7 v -1 z"
     style="opacity:0.2;fill:currentColor;stroke-width:2"
     class="ColorScheme-Text"
     id="path579" />
</svg>
