<?xml version="1.0" encoding="UTF-8" standalone="no"?>
<svg
   width="24"
   height="24"
   version="1.1"
   viewBox="0 0 24 24"
   id="svg7"
   sodipodi:docname="network-wireless-secure-signal-none.svg"
   inkscape:version="1.2.1 (9c6d41e410, 2022-07-14, custom)"
   xmlns:inkscape="http://www.inkscape.org/namespaces/inkscape"
   xmlns:sodipodi="http://sodipodi.sourceforge.net/DTD/sodipodi-0.dtd"
   xmlns="http://www.w3.org/2000/svg"
   xmlns:svg="http://www.w3.org/2000/svg">
  <sodipodi:namedview
     id="namedview9"
     pagecolor="#ffffff"
     bordercolor="#666666"
     borderopacity="1.0"
     inkscape:pageshadow="2"
     inkscape:pageopacity="0.0"
     inkscape:pagecheckerboard="0"
     showgrid="false"
     inkscape:zoom="33.416667"
     inkscape:cx="12"
     inkscape:cy="12"
     inkscape:window-width="1920"
     inkscape:window-height="1011"
     inkscape:window-x="0"
     inkscape:window-y="0"
     inkscape:window-maximized="1"
     inkscape:current-layer="svg7"
     showguides="true"
     inkscape:showpageshadow="2"
     inkscape:deskcolor="#d1d1d1" />
  <defs
     id="defs3">
    <style
       id="current-color-scheme"
       type="text/css">.ColorScheme-Text { color:#dedede; }</style>
  </defs>
  <path
     id="path345"
     style="opacity:0.2;fill:currentColor;stroke-width:1.06586;stroke-linejoin:round"
     class="ColorScheme-Text"
     d="M 12,6 C 8.785424,6 5.812366,7.7160956 4.2050781,10.5 4.0667084,10.739428 4.1489661,11.045707 4.3886719,11.183594 4.6280994,11.321963 4.9343784,11.239706 5.0722656,11 6.5017231,8.5241071 9.1410852,7 12,7 c 2.858914,0 5.498279,1.5241073 6.927734,4 0.137887,0.239706 0.444166,0.321964 0.683594,0.183594 C 19.851034,11.045707 19.933292,10.739428 19.794922,10.5 18.187632,7.7160958 15.214576,6 12,6 Z m 0,3 C 9.8572164,9 7.8760791,10.144295 6.8046875,12 6.6659901,12.238916 6.747331,12.545037 6.9863281,12.683594 7.2257557,12.821964 7.5320346,12.739706 7.6699219,12.5 8.563483,10.952306 10.212878,10 12,10 c 1.787122,0 3.436517,0.952307 4.330078,2.5 0.137887,0.239706 0.444166,0.321964 0.683594,0.183594 C 17.252669,12.545037 17.33401,12.238916 17.195312,12 16.123923,10.144295 14.142784,9 12,9 Z m 0,3 c -1.070991,0 -2.0621609,0.572494 -2.5976562,1.5 -0.1386976,0.238916 -0.057357,0.545037 0.1816406,0.683594 C 9.8234118,14.321964 10.129691,14.239704 10.267578,14 10.625243,13.380505 11.28467,13 12,13 c 0.71533,0 1.374756,0.380505 1.732422,1 0.137887,0.239706 0.444166,0.321964 0.683594,0.183594 C 14.655012,14.045036 14.736354,13.738916 14.597656,13.5 14.062162,12.572494 13.070991,12 12,12 Z m 0,3 c -0.552217,-2.87e-4 -0.99939,0.447784 -1,1 -2.87e-4,0.552851 0.447149,1.000288 1,1 0.552217,-6.1e-4 1.000287,-0.447784 1,-1 -6.09e-4,-0.551582 -0.448417,-0.999391 -1,-1 z" />
  <path
     id="path2843"
     style="fill:currentColor;fill-opacity:1;stroke-linejoin:round"
     d="M 17.5,14 C 16.671573,14 16,14.671573 16,15.5 V 16 c -0.554,0 -1,0.446 -1,1 v 2 c 0,0.554 0.446,1 1,1 h 3 c 0.554,0 1,-0.446 1,-1 v -2 c 0,-0.554 -0.446,-1 -1,-1 V 15.5 C 19,14.671573 18.328427,14 17.5,14 Z m 0,1 c 0.276142,0 0.5,0.223858 0.5,0.5 V 16 H 17 V 15.5 C 17,15.223858 17.223858,15 17.5,15 Z M 16,17 h 3 v 2 h -3 z"
     class="ColorScheme-Text" />
</svg>
