<?xml version="1.0" encoding="UTF-8" standalone="no"?>
<svg
   width="24"
   height="24"
   version="1.1"
   viewBox="0 0 24 24"
   id="svg7"
   sodipodi:docname="network-wireless-signal-ok.svg"
   inkscape:version="1.2.1 (9c6d41e410, 2022-07-14, custom)"
   xmlns:inkscape="http://www.inkscape.org/namespaces/inkscape"
   xmlns:sodipodi="http://sodipodi.sourceforge.net/DTD/sodipodi-0.dtd"
   xmlns="http://www.w3.org/2000/svg"
   xmlns:svg="http://www.w3.org/2000/svg">
  <sodipodi:namedview
     id="namedview9"
     pagecolor="#ffffff"
     bordercolor="#666666"
     borderopacity="1.0"
     inkscape:pageshadow="2"
     inkscape:pageopacity="0.0"
     inkscape:pagecheckerboard="0"
     showgrid="false"
     inkscape:zoom="33.416667"
     inkscape:cx="12"
     inkscape:cy="12"
     inkscape:window-width="1920"
     inkscape:window-height="1011"
     inkscape:window-x="0"
     inkscape:window-y="0"
     inkscape:window-maximized="1"
     inkscape:current-layer="svg7"
     showguides="true"
     inkscape:showpageshadow="2"
     inkscape:deskcolor="#d1d1d1" />
  <defs
     id="defs3">
    <style
       id="current-color-scheme"
       type="text/css">.ColorScheme-Text { color:#dedede; }</style>
  </defs>
  <path
     id="path345"
     style="fill:currentColor;stroke-width:1.06586;stroke-linejoin:round"
     class="ColorScheme-Text"
     d="m 12,12 c -1.070993,0 -2.0621597,0.572493 -2.5976562,1.5 A 0.5,0.5 0 0 0 9.5839844,14.183594 0.5,0.5 0 0 0 10.267578,14 C 10.625244,13.380505 11.284669,13 12,13 c 0.715331,0 1.374756,0.380505 1.732422,1 A 0.5,0.5 0 0 0 14.416016,14.183594 0.5,0.5 0 0 0 14.597656,13.5 C 14.06216,12.572493 13.070993,12 12,12 Z m 0,3 c -0.552217,-2.87e-4 -0.99939,0.447783 -1,1 -2.87e-4,0.552852 0.447148,1.000288 1,1 0.552217,-6.1e-4 1.000287,-0.447783 1,-1 -6.09e-4,-0.551583 -0.448417,-0.999391 -1,-1 z" />
  <path
     id="path1046"
     style="opacity:0.2;fill:currentColor;stroke:none;stroke-linecap:round;stroke-linejoin:round;-inkscape-stroke:none"
     d="M 12,6 C 8.7854176,6 5.8123692,7.71609 4.2050781,10.5 A 0.5,0.5 0 0 0 4.3886719,11.183594 0.5,0.5 0 0 0 5.0722656,11 C 6.5017259,8.5241021 9.1410794,7 12,7 c 2.85892,0 5.498275,1.5241023 6.927734,4 A 0.5,0.5 0 0 0 19.611328,11.183594 0.5,0.5 0 0 0 19.794922,10.5 C 18.18763,7.7160902 15.214582,6 12,6 Z m 0,3 C 9.8572122,9 7.8760813,10.144291 6.8046875,12 A 0.5,0.5 0 0 0 6.9863281,12.683594 0.5,0.5 0 0 0 7.6699219,12.5 C 8.5634848,10.952303 10.212874,10 12,10 c 1.787126,0 3.436515,0.952304 4.330078,2.5 A 0.5,0.5 0 0 0 17.013672,12.683594 0.5,0.5 0 0 0 17.195312,12 C 16.123919,10.144292 14.142788,9 12,9 Z"
     class="ColorScheme-Text" />
</svg>
