<?xml version="1.0" encoding="UTF-8" standalone="no"?>
<svg
   width="24"
   height="24"
   version="1.1"
   viewBox="0 0 24 24"
   id="svg7"
   sodipodi:docname="network-wireless-signal-good.svg"
   inkscape:version="1.2.1 (9c6d41e410, 2022-07-14, custom)"
   xmlns:inkscape="http://www.inkscape.org/namespaces/inkscape"
   xmlns:sodipodi="http://sodipodi.sourceforge.net/DTD/sodipodi-0.dtd"
   xmlns="http://www.w3.org/2000/svg"
   xmlns:svg="http://www.w3.org/2000/svg">
  <sodipodi:namedview
     id="namedview9"
     pagecolor="#ffffff"
     bordercolor="#666666"
     borderopacity="1.0"
     inkscape:pageshadow="2"
     inkscape:pageopacity="0.0"
     inkscape:pagecheckerboard="0"
     showgrid="false"
     inkscape:zoom="33.416667"
     inkscape:cx="12"
     inkscape:cy="12"
     inkscape:window-width="1920"
     inkscape:window-height="1011"
     inkscape:window-x="0"
     inkscape:window-y="0"
     inkscape:window-maximized="1"
     inkscape:current-layer="svg7"
     showguides="true"
     inkscape:showpageshadow="2"
     inkscape:deskcolor="#d1d1d1" />
  <defs
     id="defs3">
    <style
       id="current-color-scheme"
       type="text/css">.ColorScheme-Text { color:#dedede; }</style>
  </defs>
  <path
     id="path345"
     style="fill:currentColor;stroke-width:1.06586;stroke-linejoin:round"
     class="ColorScheme-Text"
     d="M 12,9 C 9.8572143,9 7.8760802,10.144293 6.8046875,12 6.66599,12.238916 6.7473308,12.545037 6.9863281,12.683594 7.2257559,12.821964 7.5320345,12.739706 7.6699219,12.5 8.5634839,10.952305 10.212876,10 12,10 c 1.787124,0 3.436516,0.952305 4.330078,2.5 0.137887,0.239706 0.444166,0.321964 0.683594,0.183594 C 17.252669,12.545037 17.33401,12.238916 17.195312,12 16.123921,10.144294 14.142786,9 12,9 Z m 0,3 c -1.070992,0 -2.0621603,0.572494 -2.5976562,1.5 A 0.5,0.5 0 0 0 9.5839844,14.183594 0.5,0.5 0 0 0 10.267578,14 C 10.625244,13.380505 11.284669,13 12,13 c 0.715331,0 1.374756,0.380506 1.732422,1 A 0.5,0.5 0 0 0 14.416016,14.183594 0.5,0.5 0 0 0 14.597656,13.5 C 14.062161,12.572494 13.070992,12 12,12 Z m 0,3 c -0.552217,-2.87e-4 -0.99939,0.447784 -1,1 -2.87e-4,0.552851 0.447149,1.000288 1,1 0.552217,-6.1e-4 1.000287,-0.447784 1,-1 -6.09e-4,-0.551582 -0.448417,-0.999391 -1,-1 z" />
  <path
     id="path1046"
     style="opacity:0.2;fill:currentColor;stroke:none;stroke-linecap:round;stroke-linejoin:round;-inkscape-stroke:none"
     d="M 12,6 C 8.7854176,6 5.8123692,7.71609 4.2050781,10.5 4.0667081,10.739428 4.1489657,11.045706 4.3886719,11.183594 4.6280999,11.321964 4.9343781,11.239706 5.0722656,11 6.5017259,8.5241021 9.1410794,7 12,7 c 2.85892,0 5.498275,1.5241023 6.927734,4 0.137887,0.239706 0.444166,0.321964 0.683594,0.183594 C 19.851034,11.045706 19.933292,10.739428 19.794922,10.5 18.18763,7.7160902 15.214582,6 12,6 Z"
     class="ColorScheme-Text"
     sodipodi:nodetypes="scccscccs" />
</svg>
