<?xml version="1.0" encoding="UTF-8" standalone="no"?>
<!-- Created with Inkscape (http://www.inkscape.org/) -->

<svg
   width="24"
   height="24"
   viewBox="0 0 24 24"
   version="1.1"
   id="svg357"
   inkscape:version="1.2.1 (9c6d41e410, 2022-07-14, custom)"
   sodipodi:docname="network-unavailable.svg"
   xmlns:inkscape="http://www.inkscape.org/namespaces/inkscape"
   xmlns:sodipodi="http://sodipodi.sourceforge.net/DTD/sodipodi-0.dtd"
   xmlns="http://www.w3.org/2000/svg"
   xmlns:svg="http://www.w3.org/2000/svg">
  <sodipodi:namedview
     id="namedview359"
     pagecolor="#ffffff"
     bordercolor="#000000"
     borderopacity="0.25"
     inkscape:showpageshadow="2"
     inkscape:pageopacity="0.0"
     inkscape:pagecheckerboard="0"
     inkscape:deskcolor="#d1d1d1"
     inkscape:document-units="px"
     showgrid="false"
     inkscape:zoom="33.708333"
     inkscape:cx="11.985167"
     inkscape:cy="12"
     inkscape:window-width="1920"
     inkscape:window-height="1012"
     inkscape:window-x="0"
     inkscape:window-y="0"
     inkscape:window-maximized="1"
     inkscape:current-layer="svg357" />
  <defs
     id="defs354">
    <style
       id="current-color-scheme"
       type="text/css">
         .ColorScheme-Text { color:#dedede; }
     </style>
  </defs>
  <path
     id="path848"
     style="opacity:1;fill:currentColor;fill-opacity:1;stroke-width:2;stroke-linecap:round;stroke-linejoin:round"
     class="ColorScheme-Text"
     d="M 12,4 C 11.91036,4 11.822543,4.00792 11.734375,4.019531 A 8.0000003,8.0000003 0 0 0 4.6015625,9 h -0.013672 a 8.0000001,8.0000001 0 0 0 -0.328125,1 h 0.00977 A 8.0000003,8.0000003 0 0 0 4,12 8.0000003,8.0000003 0 0 0 4.2695313,14 h -0.00977 a 8.0000001,8.0000001 0 0 0 0.328125,1 h 0.013672 a 8.0000003,8.0000003 0 0 0 7.1328127,4.980469 C 11.822543,19.992079 11.910364,20 12,20 c 0.08964,0 0.177457,-0.0079 0.265625,-0.01953 A 8.0000003,8.0000003 0 0 0 13,19.902344 V 18.595703 C 12.687067,18.855254 12.35138,19 12,19 A 6.9999999,6.9999999 0 0 1 11.822266,18.98633 C 10.702438,18.833519 9.7507831,17.244538 9.2929688,15 H 13 V 14 H 9.125 C 9.0440871,13.365992 9,12.695345 9,12 9,11.304655 9.0440871,10.634008 9.125,10 h 5.75 c 0.08091,0.634008 0.125,1.304655 0.125,2 0,0.339604 -0.0091,0.67357 -0.0293,1 h 0.99805 C 15.988931,12.672363 16,12.338528 16,12 16,11.309645 15.95721,10.639036 15.875,10 h 2.832031 A 6.9999999,6.9999999 0 0 1 19,12 6.9999999,6.9999999 0 0 1 18.92578,13 h 1.001953 A 8.0000003,8.0000003 0 0 0 20,12 8.0000003,8.0000003 0 0 0 19.730469,10 h 0.01563 A 8.0000001,8.0000001 0 0 0 19.416016,9 h -0.01758 A 8.0000003,8.0000003 0 0 0 12.265625,4.0195313 C 12.177457,4.0079213 12.089636,4.0000003 12,4 Z m 0,1 c 1.19598,-1e-7 2.225153,1.6374841 2.707031,4 H 9.2929688 C 9.7507832,6.7554627 10.702438,5.1664809 11.822266,5.0136719 A 6.9999999,6.9999999 0 0 1 12,5 Z m 2.236328,0.3671875 A 6.9999999,6.9999999 0 0 1 18.322266,9 H 15.708984 C 15.40839,7.5156418 14.891346,6.2522305 14.236328,5.3671875 Z m -4.4765624,0.00586 C 9.1067044,6.2578133 8.5909788,7.5187621 8.2910156,9 H 5.6894531 A 6.9999999,6.9999999 0 0 1 9.7597656,5.3730475 Z M 5.3027344,10 H 8.125 C 8.0427921,10.639036 8,11.309645 8,12 c 0,0.690355 0.042792,1.360964 0.125,2 H 5.3027344 A 6.9999999,6.9999999 0 0 1 5,12 6.9999999,6.9999999 0 0 1 5.3027344,10 Z m 0.3867187,5 h 2.6015625 c 0.2999632,1.481239 0.8156887,2.742187 1.46875,3.626953 A 6.9999999,6.9999999 0 0 1 5.6894531,15 Z" />
  <path
     id="rect1912"
     style="opacity:1;fill:currentColor;stroke-width:2"
     d="m 19.292891,14.343145 -2.12132,2.12132 -2.12132,-2.12132 -0.707107,0.707107 2.12132,2.12132 -2.12132,2.12132 0.707107,0.707107 2.12132,-2.12132 2.12132,2.12132 0.707107,-0.707107 -2.12132,-2.12132 2.12132,-2.12132 z"
     class="ColorScheme-Text" />
</svg>
