<?xml version="1.0" encoding="UTF-8" standalone="no"?>
<!-- Created with Inkscape (http://www.inkscape.org/) -->

<svg
   width="24"
   height="24"
   viewBox="0 0 24 24"
   version="1.1"
   id="svg5"
   inkscape:version="1.2.1 (9c6d41e410, 2022-07-14, custom)"
   sodipodi:docname="redshift-status-on.svg"
   xmlns:inkscape="http://www.inkscape.org/namespaces/inkscape"
   xmlns:sodipodi="http://sodipodi.sourceforge.net/DTD/sodipodi-0.dtd"
   xmlns="http://www.w3.org/2000/svg"
   xmlns:svg="http://www.w3.org/2000/svg">
  <sodipodi:namedview
     id="namedview7"
     pagecolor="#ffffff"
     bordercolor="#000000"
     borderopacity="0.25"
     inkscape:showpageshadow="2"
     inkscape:pageopacity="0.0"
     inkscape:pagecheckerboard="0"
     inkscape:deskcolor="#d1d1d1"
     inkscape:document-units="px"
     showgrid="false"
     inkscape:zoom="33.708333"
     inkscape:cx="12"
     inkscape:cy="12"
     inkscape:window-width="1920"
     inkscape:window-height="1012"
     inkscape:window-x="0"
     inkscape:window-y="0"
     inkscape:window-maximized="1"
     inkscape:current-layer="svg5" />
  <defs
     id="defs2">
    <style
       id="current-color-scheme"
       type="text/css">
         .ColorScheme-Text { color:#dedede; }
     </style>
  </defs>
  <path
     id="path234"
     style="opacity:1;fill:currentColor;stroke-width:1.2;stroke-linecap:round;stroke-linejoin:round"
     class="ColorScheme-Text"
     d="m 12,4 c -3.313692,0 -6,2.686308 -6,6 0.00408,3.353643 3,4.347542 3,7 v 1 c 0,1.107997 0.8920033,2 2,2 h 2 c 1.107997,0 2,-0.892003 2,-2 v -1 c 0,-2.652458 2.9959,-3.646357 3,-7 0,-3.313692 -2.686307,-6 -6,-6 z m 0,1 c 2.761412,0 5,2.2385872 5,5 -0.0034,2.794706 -3.000613,4.394103 -3,6 H 10 C 10.000613,14.394103 7.0034,12.794706 7,10 7,7.2385872 9.2385874,5 12,5 Z m -2,12 h 4 v 1 c 0,0.554009 -0.44599,1 -1,1 h -2 c -0.55401,0 -1,-0.445991 -1,-1 z" />
</svg>
