<?xml version="1.0" encoding="UTF-8" standalone="no"?>
<!-- Created with Inkscape (http://www.inkscape.org/) -->

<svg
   width="24"
   height="24"
   viewBox="0 0 24 24"
   version="1.1"
   id="svg1080"
   inkscape:version="1.2.1 (9c6d41e410, 2022-07-14, custom)"
   sodipodi:docname="folder-onedrive.svg"
   xmlns:inkscape="http://www.inkscape.org/namespaces/inkscape"
   xmlns:sodipodi="http://sodipodi.sourceforge.net/DTD/sodipodi-0.dtd"
   xmlns="http://www.w3.org/2000/svg"
   xmlns:svg="http://www.w3.org/2000/svg">
  <sodipodi:namedview
     id="namedview1082"
     pagecolor="#ffffff"
     bordercolor="#000000"
     borderopacity="0.25"
     inkscape:showpageshadow="2"
     inkscape:pageopacity="0.0"
     inkscape:pagecheckerboard="0"
     inkscape:deskcolor="#d1d1d1"
     inkscape:document-units="px"
     showgrid="false"
     inkscape:zoom="33.416667"
     inkscape:cx="11.985037"
     inkscape:cy="12"
     inkscape:window-width="1920"
     inkscape:window-height="1011"
     inkscape:window-x="0"
     inkscape:window-y="0"
     inkscape:window-maximized="1"
     inkscape:current-layer="svg1080" />
  <defs
     id="defs1077" />
  <circle
     style="fill:#056ab6;fill-opacity:1;stroke-width:1.4;stroke-linecap:round;stroke-linejoin:round"
     id="path396"
     cx="12.093967"
     cy="12"
     r="7" />
  <path
     d="m 6.4999881,8.0000289 c -2.0154387,0.00245 -3.86812,1.1070431 -4.8286017,2.8788991 l -0.00806,0.0027 C 1.2410103,11.660178 1,12.552018 1,13.500016 c 0.00135,2.842816 2.1694306,5.21738 5.0004764,5.475817 v 0.02416 H 6.4999868 18.187459 c 1.796542,0 3.343941,-0.995733 4.170644,-2.454584 L 14.752654,12.012226 9.2096984,8.7090116 9.1935851,8.711697 C 8.3716784,8.2472295 7.4440519,8.0021437 6.4999881,8.0000289 Z"
     style="fill:#1581d9;stroke-width:1.375"
     id="path958" />
  <path
     d="m 18.187459,9.3750231 c -0.680923,0.033736 -1.272556,0.1591043 -1.828853,0.3625481 v 0.00269 c -1.782529,0.7433538 -3.635789,1.5168868 -5.24486,2.1887198 l -9.5336693,3.979962 c 0.8214491,1.672572 2.4511419,2.88712 4.4203997,3.066887 V 19 H 18.187459 c 2.657863,0 4.812488,-2.154624 4.812488,-4.812488 0,-2.657864 -2.154625,-4.8124881 -4.812488,-4.8124889 z"
     style="fill:#138fe6;stroke-width:1.375"
     id="path991" />
  <path
     d="m 13.170869,11.069602 c -0.687348,0.286885 -1.425918,0.595826 -2.057123,0.859373 l -9.5336693,3.97997 c 8.856e-4,0.0017 0.0018,0.0037 0.00268,0.0054 0.2888695,0.586584 0.6818631,1.111596 1.1494113,1.5603 0.060637,0.05752 0.1220639,0.114441 0.1853023,0.16919 0.1339989,0.117382 0.2711158,0.231602 0.4162589,0.335691 0.1446917,0.102465 0.2964078,0.193552 0.4511707,0.281982 0.057509,0.03327 0.1103449,0.0735 0.169189,0.104731 0.094232,0.05 0.195212,0.08706 0.2927239,0.131588 0.1887248,0.08514 0.3803667,0.164415 0.5800767,0.22827 0.087875,0.02838 0.1759842,0.05658 0.2658686,0.08057 0.2940684,0.07776 0.5955013,0.140688 0.9077128,0.169189 v 0.02417 H 18.187459 c 0.290772,0 0.572067,-0.03383 0.848631,-0.08326 0.08316,-0.01507 0.165509,-0.03437 0.247069,-0.0537 0.213421,-0.04993 0.421608,-0.116077 0.623045,-0.193358 0.11535,-0.045 0.22761,-0.09415 0.338379,-0.147706 0.160127,-0.07614 0.314809,-0.159715 0.464597,-0.25244 0.126445,-0.07953 0.249726,-0.164432 0.36792,-0.255128 0.06506,-0.04922 0.125578,-0.103388 0.187987,-0.15576 0.435346,-0.370399 0.808837,-0.811751 1.093016,-1.313229 l -7.605451,-4.533223 z"
     style="fill:#38afec;stroke-width:1.375"
     id="path1024" />
</svg>
