<?xml version="1.0" encoding="UTF-8" standalone="no"?>
<!-- Created with Inkscape (http://www.inkscape.org/) -->

<svg
   width="24"
   height="24"
   viewBox="0 0 24 24"
   version="1.1"
   id="svg2112"
   inkscape:version="1.2.1 (9c6d41e410, 2022-07-14, custom)"
   sodipodi:docname="network-workgroup.svg"
   xmlns:inkscape="http://www.inkscape.org/namespaces/inkscape"
   xmlns:sodipodi="http://sodipodi.sourceforge.net/DTD/sodipodi-0.dtd"
   xmlns:xlink="http://www.w3.org/1999/xlink"
   xmlns="http://www.w3.org/2000/svg"
   xmlns:svg="http://www.w3.org/2000/svg">
  <sodipodi:namedview
     id="namedview2114"
     pagecolor="#ffffff"
     bordercolor="#000000"
     borderopacity="0.25"
     inkscape:showpageshadow="2"
     inkscape:pageopacity="0.0"
     inkscape:pagecheckerboard="0"
     inkscape:deskcolor="#d1d1d1"
     inkscape:document-units="px"
     showgrid="false"
     inkscape:zoom="33.666667"
     inkscape:cx="12"
     inkscape:cy="12"
     inkscape:window-width="1920"
     inkscape:window-height="1010"
     inkscape:window-x="0"
     inkscape:window-y="0"
     inkscape:window-maximized="1"
     inkscape:current-layer="svg2112" />
  <defs
     id="defs2109">
    <linearGradient
       inkscape:collect="always"
       xlink:href="#linearGradient2986"
       id="linearGradient2988"
       x1="0.092814192"
       y1="13.470937"
       x2="-3.2895818"
       y2="13.470937"
       gradientUnits="userSpaceOnUse"
       gradientTransform="matrix(2.3651875,0,0,0.3059441,16.780478,17.878647)" />
    <linearGradient
       inkscape:collect="always"
       id="linearGradient2986">
      <stop
         style="stop-color:#818990;stop-opacity:1;"
         offset="0"
         id="stop2982" />
      <stop
         style="stop-color:#bcc5cf;stop-opacity:1"
         offset="1"
         id="stop2984" />
    </linearGradient>
    <linearGradient
       inkscape:collect="always"
       xlink:href="#linearGradient1116"
       id="linearGradient988"
       x1="0"
       y1="6.5000005"
       x2="16"
       y2="6.5000005"
       gradientUnits="userSpaceOnUse"
       gradientTransform="matrix(1.25,0,0,1.2727272,3,3.7272731)" />
    <linearGradient
       inkscape:collect="always"
       id="linearGradient1116">
      <stop
         style="stop-color:#555a5f;stop-opacity:1;"
         offset="0"
         id="stop1112" />
      <stop
         style="stop-color:#4b4f53;stop-opacity:1"
         offset="1"
         id="stop1114" />
    </linearGradient>
    <linearGradient
       inkscape:collect="always"
       xlink:href="#linearGradient2301"
       id="linearGradient3955"
       x1="5.0270834"
       y1="6.8791666"
       x2="8.2020836"
       y2="8.9958334"
       gradientUnits="userSpaceOnUse"
       gradientTransform="matrix(5.6692915,0,0,5.6692911,-24.500002,-32.999998)" />
    <linearGradient
       inkscape:collect="always"
       id="linearGradient2301">
      <stop
         style="stop-color:#3fe3e7;stop-opacity:1;"
         offset="0"
         id="stop2297" />
      <stop
         style="stop-color:#066bbc;stop-opacity:1"
         offset="1"
         id="stop2299" />
    </linearGradient>
    <linearGradient
       inkscape:collect="always"
       xlink:href="#linearGradient1339"
       id="linearGradient1341"
       x1="-16.257299"
       y1="3.3388042"
       x2="-8.2772894"
       y2="3.3388042"
       gradientUnits="userSpaceOnUse"
       gradientTransform="matrix(1.3749854,0,0,1.3749854,23.35355,2.7833354)" />
    <linearGradient
       inkscape:collect="always"
       id="linearGradient1339">
      <stop
         style="stop-color:#b0d6df;stop-opacity:1;"
         offset="0"
         id="stop1335" />
      <stop
         style="stop-color:#e1f8fc;stop-opacity:1;"
         offset="0.5"
         id="stop1343" />
      <stop
         style="stop-color:#96c3ce;stop-opacity:1;"
         offset="1"
         id="stop1337" />
    </linearGradient>
    <radialGradient
       inkscape:collect="always"
       xlink:href="#linearGradient1819"
       id="radialGradient1821"
       cx="-8.4892759"
       cy="6.6485348"
       fx="-8.4892759"
       fy="6.6485348"
       r="4"
       gradientTransform="matrix(1.4723606,0.75719531,-0.71409621,1.3886435,22.371928,3.570199)"
       gradientUnits="userSpaceOnUse" />
    <linearGradient
       inkscape:collect="always"
       id="linearGradient1819">
      <stop
         style="stop-color:#5ab5e2;stop-opacity:1;"
         offset="0"
         id="stop1815" />
      <stop
         style="stop-color:#4189ac;stop-opacity:1;"
         offset="0.5"
         id="stop1823" />
      <stop
         style="stop-color:#295e76;stop-opacity:1;"
         offset="1"
         id="stop1817" />
    </linearGradient>
  </defs>
  <path
     id="rect958"
     style="fill:#bcc5cf;stroke-width:4.08249;stroke-linecap:round;stroke-linejoin:round"
     d="m 12.000001,19 h 2.000001 L 14,21 h -2 z"
     sodipodi:nodetypes="ccccc" />
  <rect
     style="fill:url(#linearGradient988);fill-opacity:1;stroke-width:1.26131"
     id="rect978"
     width="20"
     height="14"
     x="3"
     y="5"
     ry="2" />
  <rect
     style="fill:url(#linearGradient3955);fill-opacity:1;stroke-width:4.5;stroke-linecap:round;stroke-linejoin:round"
     id="rect3867"
     width="18"
     height="12"
     x="3.9999995"
     y="6.0000005"
     ry="1" />
  <path
     id="rect2848"
     style="fill:url(#linearGradient2988);stroke-width:1.12535;stroke-linecap:round;stroke-linejoin:round"
     d="m 9.0000003,21 h 8.0000007 v 1 H 9.0000003 Z" />
  <ellipse
     style="fill:url(#radialGradient1821);fill-opacity:1;stroke-width:1.37501"
     id="path1449"
     cx="6.5000587"
     cy="7.5"
     rx="5.4999413"
     ry="5.5" />
  <path
     d="M 6.5284759,2.2749909 C 6.1043133,2.3050759 5.6893674,2.382941 5.2847092,2.5141036 5.1403413,2.5197436 4.8265902,2.705683 5.0797316,2.7929452 5.1975405,2.9187976 5.478783,2.9588481 5.4446241,3.164495 5.4900401,3.3452561 5.0244739,3.3370543 5.1794416,3.5007725 5.2893166,3.6453769 5.3991988,3.7899895 5.5090805,3.9345994 5.7119681,3.8694384 5.7789186,3.661643 5.8914806,3.5017074 6.2048067,3.3635022 6.6482559,3.3217576 6.8553247,3.055801 L 7.0499812,2.4914274 C 6.8761435,2.4192804 6.7022995,2.347135 6.5284701,2.2749716 Z M 5.0203132,2.3233219 C 4.8259687,2.3023529 4.7016506,2.4217979 4.5565869,2.5000956 4.378023,2.5219576 4.1762744,2.5884246 4.0637483,2.7320419 4.264052,2.8229419 4.3902,2.7261319 4.5630962,2.6574219 4.7236243,2.5751839 5.2696215,2.5408644 5.0203144,2.3233087 Z M 3.7662069,2.9001614 C 3.6662869,3.0526747 3.8363859,3.2734176 3.6078278,3.3534569 3.4950102,3.4962794 3.3964128,3.7307089 3.6784058,3.645644 3.7473888,3.4340118 3.9616833,3.1371483 4.2055643,3.2610964 4.4512041,3.3270954 4.6785484,3.7398745 4.879109,3.4129264 4.8790281,3.3278974 4.5671399,3.2781502 4.5741084,3.0701217 4.4353245,3.0105847 4.1386521,3.1187827 4.1490098,2.9024024 3.9485053,2.8133724 3.8907561,3.2569947 3.8196981,3.0090463 3.8018661,2.9727603 3.7840311,2.9364743 3.7662111,2.9001612 Z M 9.209015,3.0924403 C 8.9716994,3.1399043 8.7372973,3.1941067 8.5500076,3.3572199 8.6043746,3.5745734 8.3239681,3.6111467 8.1992501,3.7317934 c -0.090488,0.051067 0.00162,0.4455049 0.080918,0.3842742 0.1685787,-0.2224137 0.255782,-0.030552 0.4124848,0.079268 C 8.8337002,4.3263445 8.9232611,3.9520596 8.8483438,3.8465544 8.8043858,3.676514 9.0182383,3.5507207 9.0951974,3.4114649 9.3304769,3.260541 9.1316754,3.6040137 9.1241434,3.723929 9.0053858,4.0783 9.650935,3.734654 9.225411,3.9994335 9.1112734,4.1134199 9.0694755,4.2822887 8.8940836,4.3665271 8.7993886,4.4821222 8.4379456,4.4279341 8.486619,4.2476183 8.3546342,4.0407503 8.387207,4.4965951 8.342365,4.4944116 8.1236227,4.4292376 8.058521,4.6733921 7.9213364,4.790211 7.816356,4.9108244 7.4457315,4.835984 7.7224297,5.022817 7.9242362,5.2556808 7.6822117,5.2126163 7.5152704,5.2746351 7.279346,5.3152521 7.3187795,5.5207353 7.3248855,5.7062621 7.3284455,5.8085059 7.5549427,5.9601888 7.669615,5.8888793 7.8986628,5.8643493 7.8408693,5.5832546 8.0100928,5.4975312 8.1506979,5.3771786 8.2493695,5.2661717 8.460494,5.2632941 8.557967,5.3563111 8.7549766,5.4961562 8.8348654,5.5721996 8.6143757,5.8124317 8.9361335,5.7928544 8.9669194,5.5740096 9.0756806,5.453492 8.6086782,5.1698822 8.9166654,5.2944902 c 0.2038389,0.06725 0.1569642,0.2754868 0.2476582,0.4160624 0.1612102,0.2725164 0.178475,0.069162 0.1934826,-0.1416509 0.2678375,-0.084149 0.3404369,0.4664058 0.7014448,0.3372894 0.270556,0.071087 0.142345,0.2460425 -0.02847,0.3590088 C 9.8747673,6.37899 9.6421267,6.3009832 9.4708986,6.2392103 9.3014988,6.1522424 9.0973477,6.2020985 9.008176,6.3750724 8.8102205,6.2042304 8.6700831,5.9328317 8.3824986,5.917799 8.110202,5.9036912 7.8353026,5.9760849 7.5725205,6.0501278 7.2813609,6.3918322 6.9663487,6.7246267 6.8306857,7.1613676 6.6898642,7.3344233 6.9915015,7.4380998 6.7622254,7.5955963 6.6026007,7.7446353 6.8165926,7.9287208 6.8496193,8.0958407 7.021399,8.2995544 7.2847626,8.9696341 7.550059,8.7104463 7.6993577,8.4745581 7.7983567,8.8649617 7.9739088,8.6199587 c 0.1477662,-0.134872 0.2674378,0.1355184 0.4746547,0.039338 0.1842631,0.091849 0.2002849,0.2718907 0.1029176,0.4441847 -0.062534,0.1749241 0.2708834,0.2468526 0.1760204,0.4510613 -0.044744,0.1996976 0.042874,0.3692222 0.1420855,0.5361042 -0.220505,0.230166 -0.1939237,0.571119 -0.1388792,0.859531 0.1078812,0.395397 0.2623971,0.791937 0.2469626,1.208273 0.193206,0.05067 0.3357289,-0.07727 0.4954981,-0.144471 0.3049483,0.04314 0.4708456,-0.282249 0.6602025,-0.468875 -0.1422523,-0.191226 0.116859,-0.273746 0.223971,-0.397456 -0.160212,-0.138578 -0.266372,-0.273118 -0.01834,-0.38119 0.114413,-0.116214 0.328759,-0.181909 0.366343,-0.344013 -0.09853,-0.293619 -0.0424,-0.6055853 -0.05691,-0.9091569 0.121479,-0.2448369 0.250459,-0.4844609 0.452235,-0.673509 0.08046,-0.2654934 0.273871,-0.5088438 0.255116,-0.793826 -0.470309,0.1406984 -0.328302,-0.05977 -0.06766,-0.25035 0.180868,-0.132659 0.438043,-0.2563844 0.493041,-0.4825528 0.03949,-0.2232209 -0.134968,-0.569801 -0.286744,-0.241846 -0.07373,-0.1045126 -0.333436,-0.2014399 -0.32984,-0.3655017 -0.05562,-0.3308501 0.08947,-0.1321362 0.218452,0.024116 0.300016,-0.2223943 0.691548,0.6138005 0.564923,0.01715 C 11.776417,5.4556678 11.121655,4.2357339 10.140872,3.3786779 10.051182,3.4741839 9.9015179,3.8302506 9.7929149,3.6247219 9.6391627,3.461617 9.5184937,3.3143657 9.8316769,3.3749187 10.138605,3.2916217 9.8328769,3.2431813 9.6719643,3.2241955 9.5106084,3.2053585 9.360988,3.1462615 9.209023,3.0924032 Z m -6.007457,0.00798 C 2.9985043,3.1786293 3.3026744,3.4768293 2.9386293,3.3813339 2.5395082,3.5621884 2.2736287,4.0010908 1.9962171,4.3428678 1.349127,5.2573436 0.99732037,6.37487 1.0000154,7.4950015 c 0.1061764,0.2191478 0.3676821,0.2934151 0.5633288,0.4143931 0.198838,0.06802 0.4492449,0.05775 0.5482039,0.2774101 0.1106864,0.1158975 0.2591889,0.271326 0.4173094,0.2839016 0.2429819,-0.077865 0.2772452,0.14245 0.1546611,0.3054197 C 2.6701814,8.9546366 2.4715564,9.0986193 2.4937005,9.2556191 2.5379615,9.4315364 2.2723898,9.6252993 2.4512965,9.7862412 2.6395182,10.12274 2.8409591,10.44952 3.0955103,10.74015 c 0.1583253,0.138713 0.1395526,0.329695 0.1214796,0.520468 -0.062837,0.201625 0.1277364,0.318256 0.2300214,0.464498 -0.2492537,0.456991 0.4258682,0.548327 0.7084307,0.748154 0.1420579,-0.129909 0.1533494,-0.340166 0.3890218,-0.346027 0.142912,-0.100127 0.1734213,-0.326142 0.271579,-0.476413 -0.00318,-0.159619 -0.1053654,-0.308777 0.060582,-0.482626 0.1250409,-0.10553 0.3830612,-0.03518 0.4296085,-0.255485 0.1698522,-0.174955 0.032422,-0.417437 0.032422,-0.62971 C 5.4705991,10.102275 5.6982171,9.9635421 5.6729556,9.7138129 5.7015399,9.3413487 5.0309421,9.358088 4.7946523,9.1322633 4.5042065,9.1238771 4.562942,8.7281547 4.3368463,8.6755779 4.1123799,8.6868555 4.0307622,8.5109964 3.9511973,8.3324454 3.8275584,8.2481173 3.5948821,8.4194816 3.4655083,8.3137873 3.318975,8.2365935 3.1875289,7.9486324 3.0225886,8.1285877 2.8055112,8.285982 2.5920256,8.4458722 2.386094,8.1823494 2.2525418,8.062012 2.4203451,7.7203855 2.2312502,7.7419057 1.827582,7.8879208 2.3591926,7.1555706 1.9813026,7.252731 1.8918046,7.393014 1.7201338,7.6094709 1.5532147,7.4434647 1.3855861,7.3645957 1.4682677,7.1081402 1.4757477,6.9545477 1.4830377,6.7748988 1.7103519,6.6853321 1.8410084,6.6033847 2.0944224,6.7167245 2.0424122,6.3789716 2.2542108,6.4918735 2.4596653,6.4481213 2.55243,6.7776981 2.6358435,6.7899824 2.6848615,6.6276156 2.5963675,6.39031 2.7470523,6.2833371 2.923115,6.1351401 3.1554874,6.0297421 3.1989358,5.7807457 3.2025158,5.5147563 3.5253145,5.738919 3.605446,5.5577824 3.679324,5.3502368 3.8947926,5.3631998 4.076801,5.3240418 4.17635,5.2316698 4.4265711,4.9471553 4.117459,5.0305703 4.0048752,5.0153513 3.5516182,5.0756833 3.859388,4.9672243 4.0109939,4.8524684 4.1947497,4.8683633 4.364933,4.8458272 4.4989668,4.7323634 4.733256,4.6943435 4.7435591,4.4877521 4.6323227,4.3364596 4.3966845,4.3652546 4.4967107,4.1482654 4.4870857,3.864419 4.2370458,4.0466403 4.1549151,4.0250528 4.2883027,3.8394329 3.981473,3.7225617 3.8784937,3.7199589 3.8085067,3.8948831 3.6117343,4.0458043 3.6811777,4.2471354 3.4760163,4.2804494 3.3798963,4.4289508 3.3182449,4.6138274 3.2567279,4.6352494 3.2767339,4.2512407 3.0413088,4.2866234 2.8750183,4.2826334 2.6694484,4.0344759 2.8445253,3.9367625 3.0845565,3.7848926 3.3829956,3.6660237 3.534772,3.4234447 3.622056,3.2061833 3.461087,3.0728317 3.2467457,3.1036849 l -0.029892,-0.00206 z m 4.0385205,0.250151 C 7.1075987,3.4536264 6.8401698,3.3824433 6.7837016,3.4818137 6.7599576,3.6822274 7.071141,3.6790938 7.1954174,3.5684517 7.3985445,3.4933497 7.3894873,3.5070587 7.2400614,3.3505674 Z M 4.2973058,3.4532964 C 4.015771,3.5361394 4.2458408,3.7205317 4.4296209,3.718076 4.6488981,3.70038 4.4448839,3.4548736 4.2973058,3.4532964 Z M 7.654583,4.0064989 C 7.634427,4.1858371 7.8067141,4.2978226 7.73557,4.4931956 7.6235358,4.7393138 7.7822359,4.8132138 7.973692,4.6619351 8.2293954,4.5054798 7.7820756,4.1627496 7.7224787,4.0064989 Z M 7.570255,4.2949036 C 7.3404692,4.2384186 7.4131661,4.7193257 7.5710407,4.5537611 7.7410703,4.5240771 7.5777807,4.3930681 7.570255,4.2949036 Z M 4.6377481,4.7283441 C 4.6714751,4.9107198 4.6836321,5.1998448 4.8171318,4.8892836 4.8169475,4.8289216 4.6852154,4.7817047 4.6377481,4.7283441 Z m 5.5487729,1.8750736 c 0.270077,0.2354854 0.379485,0.5765294 0.531722,0.8894338 0.226518,0.1189362 0.09243,0.3008207 0.123982,0.4536589 0.315399,0.2761367 -0.319389,0.1290693 -0.242353,-0.1721908 -0.05145,-0.3498943 -0.276199,-0.5834573 -0.45975,-0.8365045 -0.01445,-0.1339507 -0.1581176,-0.2867228 0.0464,-0.3343879 z"
     style="fill:url(#linearGradient1341);fill-opacity:1;stroke-width:0.196418"
     id="path1308" />
</svg>
