<?xml version="1.0" encoding="UTF-8" standalone="no"?>
<!-- Created with Inkscape (http://www.inkscape.org/) -->

<svg
   width="24"
   height="24"
   viewBox="0 0 24 24"
   version="1.1"
   id="svg5"
   inkscape:version="1.2.1 (9c6d41e410, 2022-07-14, custom)"
   sodipodi:docname="user-trash-full.svg"
   xmlns:inkscape="http://www.inkscape.org/namespaces/inkscape"
   xmlns:sodipodi="http://sodipodi.sourceforge.net/DTD/sodipodi-0.dtd"
   xmlns:xlink="http://www.w3.org/1999/xlink"
   xmlns="http://www.w3.org/2000/svg"
   xmlns:svg="http://www.w3.org/2000/svg">
  <sodipodi:namedview
     id="namedview7"
     pagecolor="#ffffff"
     bordercolor="#666666"
     borderopacity="1.0"
     inkscape:pageshadow="2"
     inkscape:pageopacity="0.0"
     inkscape:pagecheckerboard="0"
     inkscape:document-units="px"
     showgrid="false"
     units="px"
     height="64px"
     inkscape:zoom="34.458333"
     inkscape:cx="11.98549"
     inkscape:cy="12"
     inkscape:window-width="1920"
     inkscape:window-height="1029"
     inkscape:window-x="0"
     inkscape:window-y="0"
     inkscape:window-maximized="1"
     inkscape:current-layer="svg5"
     inkscape:showpageshadow="2"
     inkscape:deskcolor="#d1d1d1" />
  <defs
     id="defs2">
    <linearGradient
       inkscape:collect="always"
       xlink:href="#linearGradient60807"
       id="linearGradient43497"
       x1="5.0269842"
       y1="1.0583125"
       x2="1.4788554"
       y2="1.415241"
       gradientUnits="userSpaceOnUse"
       gradientTransform="matrix(1.3498159,0,0,1.3498347,0.57094892,0.59296423)" />
    <linearGradient
       inkscape:collect="always"
       id="linearGradient60807">
      <stop
         style="stop-color:#b7bfc7;stop-opacity:0.02526831"
         offset="0"
         id="stop60801" />
      <stop
         style="stop-color:#b6bfc6;stop-opacity:0"
         offset="0.36555651"
         id="stop61639" />
      <stop
         style="stop-color:#b6bfc5;stop-opacity:1"
         offset="0.48513398"
         id="stop60809" />
      <stop
         style="stop-color:#b6bfc5;stop-opacity:0"
         offset="0.73108482"
         id="stop60803" />
      <stop
         style="stop-color:#b6bfc5;stop-opacity:1"
         offset="1"
         id="stop60805" />
    </linearGradient>
    <linearGradient
       inkscape:collect="always"
       xlink:href="#linearGradient60807"
       id="linearGradient59848"
       gradientUnits="userSpaceOnUse"
       x1="5.0269852"
       y1="1.0582422"
       x2="1.8391933"
       y2="1.3265172"
       gradientTransform="matrix(-1.3498159,0,0,1.3498347,23.427384,0.59305913)" />
    <linearGradient
       inkscape:collect="always"
       xlink:href="#linearGradient18900"
       id="linearGradient113015"
       gradientUnits="userSpaceOnUse"
       x1="9.3394947"
       y1="4.2414846"
       x2="9.3713646"
       y2="15.277747"
       gradientTransform="matrix(1.3498159,0,0,1.3498347,0.57094892,0.59305913)" />
    <linearGradient
       inkscape:collect="always"
       id="linearGradient18900">
      <stop
         style="stop-color:#ffffff;stop-opacity:0.80000001"
         offset="0"
         id="stop18896" />
      <stop
         style="stop-color:#ffffff;stop-opacity:0.58473009"
         offset="0.70040143"
         id="stop94701" />
      <stop
         style="stop-color:#ffffff;stop-opacity:0.08762626"
         offset="0.89186656"
         id="stop23845" />
      <stop
         style="stop-color:#fcfcfc;stop-opacity:0.49152461"
         offset="1"
         id="stop18898" />
    </linearGradient>
    <linearGradient
       inkscape:collect="always"
       xlink:href="#linearGradient91628"
       id="linearGradient91630"
       x1="3.1274393"
       y1="9.5520172"
       x2="5.8981671"
       y2="9.1497135"
       gradientUnits="userSpaceOnUse"
       gradientTransform="matrix(1.3498159,0,0,1.3498347,0.57094892,0.59296423)" />
    <linearGradient
       inkscape:collect="always"
       id="linearGradient91628">
      <stop
         style="stop-color:#cccccc;stop-opacity:1"
         offset="0"
         id="stop91624" />
      <stop
         style="stop-color:#cccccc;stop-opacity:0"
         offset="0.1152868"
         id="stop92528" />
      <stop
         style="stop-color:#cccccc;stop-opacity:0"
         offset="1"
         id="stop91626" />
    </linearGradient>
    <linearGradient
       inkscape:collect="always"
       xlink:href="#linearGradient91628"
       id="linearGradient94280"
       gradientUnits="userSpaceOnUse"
       x1="3.1274393"
       y1="9.5520172"
       x2="5.8981671"
       y2="9.1497135"
       gradientTransform="matrix(-1.3498159,0,0,1.3498347,23.427386,0.59296423)" />
    <linearGradient
       inkscape:collect="always"
       id="linearGradient122406">
      <stop
         style="stop-color:#ffffff;stop-opacity:1;"
         offset="0"
         id="stop122402" />
      <stop
         style="stop-color:#ffffff;stop-opacity:0.60000002"
         offset="0.5"
         id="stop123180" />
      <stop
         style="stop-color:#ffffff;stop-opacity:1"
         offset="1"
         id="stop122404" />
    </linearGradient>
    <linearGradient
       inkscape:collect="always"
       xlink:href="#linearGradient122406"
       id="linearGradient1174"
       x1="6.1417325e-08"
       y1="5.3242188"
       x2="32"
       y2="5.3242188"
       gradientUnits="userSpaceOnUse"
       gradientTransform="matrix(0.71426712,0,0,0.71427706,0.57093154,0.59286211)" />
  </defs>
  <path
     style="color:#000000;fill:#c9d1d7;fill-opacity:0.501961;stroke:none;stroke-width:1.34983;stroke-linecap:round;stroke-linejoin:round;-inkscape-stroke:none"
     d="M 5.212954,2.0215109 C 5.1188357,2.0222892 5.0288256,2.0601859 4.9624972,2.1269667 L 3.5335918,3.9122804 c -0.0786,0.077998 -0.116583,0.1880401 -0.1028147,0.2979128 L 5.5741365,20.640213 c 0.024301,0.176562 0.1750541,0.30818 0.3532677,0.308459 H 18.070705 c 0.179226,0.001 0.331468,-0.130903 0.355909,-0.308459 L 20.567338,4.2101932 c 0.0144,-0.1094509 -0.02256,-0.2194287 -0.100181,-0.2979128 L 19.038252,2.1269671 C 18.971273,2.059544 18.88019,2.0215923 18.785161,2.0215114 Z"
     id="path8844"
     sodipodi:nodetypes="ccccccccccccc" />
  <path
     id="path8844-8"
     style="color:#000000;fill:#8e8e8e;fill-opacity:0.253914;stroke:none;stroke-width:1.34983;stroke-linecap:round;stroke-linejoin:round;-inkscape-stroke:none"
     d="M 5.212954,2.0215109 C 5.1188357,2.0222892 5.0288672,2.0600615 4.9625388,2.1268397 L 4.4608311,2.7356932 H 19.539724 L 19.037859,2.1268386 C 18.97088,2.0594155 18.88039,2.0215908 18.785353,2.0215099 Z"
     sodipodi:nodetypes="ccccccc" />
  <path
     style="color:#000000;opacity:0.5;fill:url(#linearGradient43497);fill-opacity:1;stroke:none;stroke-width:1.34983;stroke-linecap:round;stroke-linejoin:round;-inkscape-stroke:none"
     d="M 5.2129528,2.0214162 C 5.1188345,2.0221945 5.0288282,2.0600907 4.962496,2.1268719 L 3.533591,3.9121868 C 3.454991,3.9901848 3.417008,4.1002269 3.4307763,4.2100996 L 5.5741365,20.64012 6.9993207,19.164074 H 7.356451 V 2.0215109 Z"
     id="path8844-3"
     sodipodi:nodetypes="ccccccccc" />
  <path
     style="color:#000000;opacity:0.5;fill:url(#linearGradient59848);fill-opacity:1;stroke:none;stroke-width:1.34983;stroke-linecap:round;stroke-linejoin:round;-inkscape-stroke:none"
     d="m 18.785378,2.0215109 c 0.09412,7.783e-4 0.184129,0.038675 0.250453,0.1054558 l 1.428908,1.7853153 c 0.0786,0.077998 0.116579,0.1880401 0.102819,0.2979128 l -2.143366,16.4300192 -1.425184,-1.476046 -0.357131,-9.4e-5 V 2.0215109 Z"
     id="path8844-3-9"
     sodipodi:nodetypes="ccccccccc" />
  <path
     id="rect849"
     style="fill:#9ba1a6;fill-opacity:1;stroke-width:0.357134"
     d="m 18.427537,20.592621 v 1.071245 c 0,0.197851 -0.159282,0.357134 -0.357134,0.357134 H 5.9279254 c -0.1978476,0 -0.3571303,-0.159286 -0.3571303,-0.357134 v -1.071245 l 1.4285256,-1.428547 h 9.9996883 z"
     sodipodi:nodetypes="csssscccc" />
  <g
     id="g1806"
     transform="matrix(2.6995921,0,0,2.6996297,0.5709315,0.5928621)">
    <path
       style="clip-rule:evenodd;opacity:0.997;fill-rule:evenodd;stroke-width:0.0335878;image-rendering:optimizeQuality;shape-rendering:geometricPrecision;text-rendering:geometricPrecision"
       fill="#cacdce"
       d="m 3.4266712,0.1844005 c 0.00789,-0.020043 0.024687,-0.031239 0.050382,-0.033588 0.1807692,0.0910624 0.3430986,0.20862002 0.4870217,0.35267103 0.1675694,0.016771 0.3355077,0.022366 0.5038161,0.016794 C 4.3426416,0.69047983 4.2306937,0.86961323 4.1320133,1.0576809 4.0029694,1.0698529 3.8686185,1.0586609 3.7289606,1.0240929 3.6174494,1.0508759 3.505468,1.0732689 3.3930835,1.0912683 3.2800911,1.1123343 3.2129157,1.0675524 3.1915572,0.95691753 3.2940367,0.75189143 3.3780026,0.53916703 3.4434651,0.31875099 3.4691595,0.26616138 3.4635506,0.22137787 3.4266712,0.1844005 Z"
       id="path2" />
    <path
       fill="#d7e0e4"
       d="M 5.6770481,0.31875134 C 5.4646733,0.55928983 5.1959715,0.69364063 4.8709426,0.72180393 4.7102593,0.63965173 4.5983114,0.51649563 4.5350659,0.35233906 4.5836309,0.30396756 4.6451998,0.28157546 4.7197983,0.28516366 4.8918008,0.33469866 5.0653151,0.37948126 5.240408,0.4195145 5.3877574,0.3910625 5.5332927,0.3574746 5.6770481,0.31875134 Z"
       id="path6"
       style="clip-rule:evenodd;fill-rule:evenodd;stroke-width:0.0335878;image-rendering:optimizeQuality;shape-rendering:geometricPrecision;text-rendering:geometricPrecision" />
    <path
       style="clip-rule:evenodd;opacity:0.998;fill-rule:evenodd;stroke-width:0.0335878;image-rendering:optimizeQuality;shape-rendering:geometricPrecision;text-rendering:geometricPrecision"
       fill="#c9cdce"
       d="m 5.6770481,0.31875134 c 0.09127,0.37190059 0.1287449,0.45971029 0.2351138,0.70534196 0.04024,0.014765 0.079435,0.025963 0.1175574,0.033588 0.016695,0.077581 0.02227,0.1559544 0.016795,0.235114 H 4.6022429 C 4.5798379,1.2256198 4.5574729,1.1584444 4.5350674,1.0912689 4.7167098,1.0327121 4.8286912,0.90955943 4.8709441,0.72180413 5.195973,0.69364063 5.4646748,0.55928993 5.6770496,0.31875154 Z"
       id="path10"
       sodipodi:nodetypes="cccccccc" />
    <path
       fill="#f8f6f5"
       d="M 4.5350659,0.35233906 C 4.5983114,0.51649563 4.7102593,0.63965173 4.8709426,0.72180393 4.8286877,0.90955923 4.7167083,1.0327119 4.5350659,1.0912687 4.413747,1.1252397 4.2905806,1.1308387 4.1656008,1.1080627 4.1469258,1.0952117 4.1357408,1.0784187 4.1320108,1.0576807 4.2306908,0.86961303 4.3426391,0.69047973 4.467888,0.52027733 4.477828,0.45635993 4.500233,0.40037927 4.535063,0.35233876 Z"
       id="path18"
       style="clip-rule:evenodd;fill-rule:evenodd;stroke-width:0.0335878;image-rendering:optimizeQuality;shape-rendering:geometricPrecision;text-rendering:geometricPrecision" />
    <path
       fill="#eae8e7"
       d="m 6.5839163,0.38592678 c -0.041145,0.021906 -0.063548,0.0610927 -0.067175,0.11755695 -0.03765,0.2635427 -0.071239,0.52664867 -0.1007629,0.78931127 -0.1231664,0 -0.2462988,0 -0.3694652,0 C 6.0519932,1.213635 6.0464127,1.135262 6.0297182,1.057681 5.9915932,1.050061 5.9523992,1.038859 5.9121604,1.024093 6.0931312,0.87678063 6.2498851,0.70884213 6.3823885,0.52027733 c 0.04289,-0.055366 0.076479,-0.11694232 0.1007634,-0.18473241 0.050315,-0.0196385 0.083902,-0.002845 0.1007629,0.0503816 z"
       id="path22"
       style="clip-rule:evenodd;fill-rule:evenodd;stroke-width:0.0335878;image-rendering:optimizeQuality;shape-rendering:geometricPrecision;text-rendering:geometricPrecision" />
    <path
       style="clip-rule:evenodd;opacity:0.998;fill-rule:evenodd;stroke-width:0.0335878;image-rendering:optimizeQuality;shape-rendering:geometricPrecision;text-rendering:geometricPrecision"
       fill="#fcfcfb"
       d="m 3.4266712,0.1844005 c 0.03688,0.036978 0.042489,0.0817612 0.016794,0.13435084 C 3.3780028,0.53916743 3.2940369,0.75189183 3.1915574,0.95691793 3.2129159,1.0675525 3.2800913,1.1123349 3.3930836,1.0912687 3.3258075,1.1746301 3.2362492,1.2082178 3.124382,1.1920319 3.074897,1.1728199 3.0301147,1.1448279 2.9900311,1.1080626 2.7888139,1.0912856 2.5872875,1.0856866 2.3854523,1.0912686 2.4361932,0.84415043 2.5481545,0.63142603 2.7213294,0.45310212 c 0.028154,0.011477 0.039351,0.03387 0.033587,0.0671754 0.056186,0.078575 0.123361,0.1457505 0.2015263,0.2015263 0.099645,-0.05501 0.1892097,-0.1221854 0.2687018,-0.2015263 C 3.3056775,0.41712289 3.3728632,0.30516294 3.4266712,0.1844005 Z"
       id="path26" />
    <path
       style="clip-rule:evenodd;opacity:0.639;fill-rule:evenodd;stroke-width:0.0335878;image-rendering:optimizeQuality;shape-rendering:geometricPrecision;text-rendering:geometricPrecision"
       fill="#cbd3d8"
       d="m 2.7549169,0.52027763 c 0.1567438,0 0.3134843,0 0.4702281,0 -0.079492,0.0793409 -0.1690571,0.1465163 -0.2687018,0.2015263 -0.078165,-0.0557758 -0.1453407,-0.1229512 -0.2015263,-0.2015263 z"
       id="path30" />
    <path
       fill="#d7e0e4"
       d="m 4.1320133,1.057681 c 0.00375,0.020737 0.014915,0.037531 0.03359,0.050382 0.1249798,0.022776 0.2481462,0.017176 0.3694651,-0.016794 0.022405,0.067176 0.044775,0.1343509 0.067176,0.2015263 C 4.3668611,1.2983804 4.1317468,1.2927814 3.8969015,1.2760009 3.8019157,1.1893615 3.6899342,1.1501746 3.5610245,1.158444 3.378341,1.1369781 3.3559379,1.176165 3.4938491,1.2760009 c -0.1451324,0.016761 -0.2906646,0.02236 -0.4366402,0.016794 0.022393,-0.033588 0.044782,-0.067175 0.067175,-0.1007631 0.1118672,0.016186 0.2014256,-0.017402 0.2687017,-0.1007632 0.1123845,-0.017999 0.2243659,-0.040393 0.3358771,-0.067175 0.1396579,0.034565 0.2740088,0.04576 0.4030527,0.033588 z"
       id="path38"
       style="clip-rule:evenodd;fill-rule:evenodd;stroke-width:0.0335878;image-rendering:optimizeQuality;shape-rendering:geometricPrecision;text-rendering:geometricPrecision" />
    <path
       fill="#f0f3f5"
       d="m 1.2098821,1.3263828 c 0.2913096,-0.00559 0.5824009,6.6e-6 0.8732806,0.016793 -0.015363,0.013906 -0.026558,0.030699 -0.033588,0.050382 0.050623,0.041608 0.08981,0.03041 0.117557,-0.033588 0.033588,0.067175 0.067176,0.1343508 0.1007631,0.2015263 0.098587,0.071119 0.1881551,0.1494921 0.2687017,0.235114 0.1438528,-0.087842 0.2782038,-0.1886051 0.4030526,-0.3022895 0.016575,-0.054886 0.022174,-0.1108663 0.016794,-0.1679385 0.089569,0 0.1791334,0 0.2687018,0 C 3.1098248,1.4010881 3.0986267,1.4906532 3.1915569,1.595084 3.1654999,1.65742 3.1207169,1.7022053 3.0572061,1.7294349 3.3764237,1.9184799 3.7234855,2.0192431 4.0984248,2.0317243 3.9386819,2.2440255 3.725971,2.3727772 3.4602587,2.417983 3.4068537,2.453109 3.3564726,2.492296 3.309114,2.53554 3.29792,2.524346 3.286721,2.513147 3.275526,2.501952 3.263908,2.580806 3.224725,2.6423856 3.157969,2.6866845 3.199785,2.7132655 3.244568,2.7300595 3.2923199,2.7370655 3.2654169,2.8483589 3.2038399,2.9379273 3.107588,3.0057677 2.9916163,3.1808235 3.002811,3.348762 3.141176,3.5095834 3.3024574,3.5656744 3.319258,3.6384259 3.191557,3.7279035 2.9339562,3.802872 2.6764527,3.8756566 2.4190397,3.9462243 2.3036794,3.7187683 2.1973172,3.4836543 2.0999565,3.2408824 2.0439759,3.1849017 1.9879987,3.1289244 1.9320179,3.0729438 c -0.00665,0.063202 -0.023448,0.1191826 -0.050381,0.1679386 0.010526,-0.092262 -6.747e-4,-0.1818271 -0.033588,-0.2687018 -0.030793,-0.021066 -0.064381,-0.032264 -0.100763,-0.033588 0.079824,-0.046596 0.1693895,-0.074585 0.2687016,-0.083969 0.1791333,-0.022393 0.3582701,-0.022393 0.5374035,0 0.060404,0.1040111 0.1163814,0.2103699 0.1679386,0.3190833 0.037235,-0.036597 0.070823,-0.036597 0.1007632,0 C 2.5944448,3.5396115 2.6952081,3.6963318 3.1243818,3.643935 3.1044911,3.5367565 3.0653044,3.4359934 3.0068248,3.3416456 2.836441,3.2320926 2.8308419,3.1313293 2.9900309,3.039356 3.0394016,2.9462174 3.084184,2.8510533 3.1243818,2.7538606 2.8465275,2.5866005 2.544238,2.4858373 2.2175136,2.4515712 2.3461277,2.367417 2.4860741,2.3058374 2.63736,2.2668387 2.6108928,2.1953338 2.5885,2.1169603 2.5701846,2.0317247 2.3495838,2.1120396 2.1424585,2.2351958 1.9488118,2.4011895 1.9663345,2.2883181 1.9439422,2.1651619 1.8816364,2.0317247 1.810501,1.9831602 1.7321308,1.9607672 1.6465224,1.9645493 1.6593494,2.1002369 1.6257614,2.223393 1.5457592,2.3340141 c 0.011195,0.022393 0.022393,0.044783 0.033588,0.067175 C 1.5370032,2.4667991 1.4978162,2.5339748 1.46179,2.6027154 1.3637609,2.2827962 1.2909864,1.9525148 1.2434699,1.6118783 c 0.04137,-0.068069 0.030175,-0.1128513 -0.033588,-0.1343508 0.030673,-0.04749 0.030673,-0.097871 2e-7,-0.1511447 z"
       id="path42"
       style="clip-rule:evenodd;fill-rule:evenodd;stroke-width:0.0335878;image-rendering:optimizeQuality;shape-rendering:geometricPrecision;text-rendering:geometricPrecision" />
    <path
       fill="#e1e4e5"
       d="m 4.6022414,1.3263828 c 0.5375042,-0.0056 1.0749077,3.3e-6 1.6122102,0.016793 0.06197,0.037887 0.1291449,0.054681 0.2015264,0.050382 0,0.033587 0,0.067175 0,0.1007631 0.1377094,-8.2e-4 0.2720602,-0.023209 0.4030521,-0.067175 0.069494,-0.010889 0.080678,-0.038878 0.03359,-0.083969 C 6.9752825,1.3264289 7.0984149,1.3208299 7.2220848,1.3263829 7.1993098,1.6195867 7.1545398,1.9106813 7.0877339,2.1996634 7.0772539,2.3884096 7.0380589,2.5787377 6.970177,2.7706545 6.968777,2.6614206 6.940787,2.5550616 6.886208,2.4515713 6.911733,2.3899483 6.922953,2.3227725 6.919798,2.2500449 6.903003,2.1996639 6.886208,2.1492817 6.869417,2.0989002 6.781753,2.3359556 6.6641962,2.5542757 6.5167458,2.7538606 c 0.011185,0.011195 0.022405,0.022393 0.03359,0.033588 -0.02771,0.09331 -0.050113,0.1884741 -0.067175,0.2854955 C 6.379575,2.9802519 6.3012146,2.8682941 6.2480451,2.7370669 6.1944727,2.4711631 6.1721032,2.2024613 6.1808697,1.9309618 6.0571998,1.9365143 5.9340674,1.9309148 5.811405,1.9141678 5.5423002,1.8467841 5.2735985,1.7908035 5.0053002,1.7462292 5.1400876,1.8924365 5.2408505,2.0603751 5.3075894,2.2500449 5.2229485,2.3513119 5.1221851,2.4352811 5.0053002,2.5019528 5.0015502,2.4812158 4.9903852,2.4644218 4.9717102,2.4515713 4.7082478,2.4458273 4.450731,2.4290338 4.1991927,2.4011896 4.1895177,2.2881233 4.1839427,2.1761654 4.1823977,2.0653125 4.3627971,2.2142942 4.5699329,2.2926678 4.8037702,2.3004266 4.8093452,2.1097692 4.8037367,1.9194377 4.7869752,1.7294354 4.7580552,1.6330991 4.7020653,1.5547288 4.6190364,1.4943213 4.6024464,1.4394357 4.5968664,1.383455 4.6022414,1.3263828 Z"
       id="path46"
       style="clip-rule:evenodd;fill-rule:evenodd;stroke-width:0.0335878;image-rendering:optimizeQuality;shape-rendering:geometricPrecision;text-rendering:geometricPrecision" />
    <path
       fill="#edf0f2"
       d="m 3.225145,1.3263828 c 0.1125187,-0.00554 0.2244666,5.7e-5 0.335877,0.016793 0.1153403,0.2329174 0.2385065,0.2385131 0.369465,0.016794 0.1378103,0.097193 0.2609427,0.2091507 0.3694646,0.3358771 C 4.3875146,1.6744549 4.465875,1.6352719 4.5350659,1.5782899 3.804701,1.3470558 3.827104,1.2630865 4.6022414,1.3263826 c -0.00537,0.057072 1.985e-4,0.1130528 0.016795,0.1679385 0.083029,0.060407 0.1390198,0.1387778 0.1679388,0.2351141 0.01676,0.1900023 0.02237,0.3803337 0.016795,0.5709911 -0.2338373,-0.00776 -0.4409731,-0.086132 -0.6213725,-0.2351141 0.00155,0.1108529 0.00712,0.2228109 0.016795,0.3358772 -0.3661062,-0.068388 -0.6795803,0.026776 -0.9404561,0.2854956 0.018675,0.012851 0.02987,0.029644 0.033588,0.050381 -0.047752,-0.00701 -0.092534,-0.0238 -0.1343509,-0.050381 0.066756,-0.044299 0.105939,-0.1058786 0.117557,-0.1847325 0.011194,0.011194 0.022393,0.022393 0.033588,0.033588 C 3.3564727,2.4922965 3.4068547,2.4531095 3.460259,2.4179834 3.7259713,2.3727776 3.9386824,2.244026 4.0984253,2.0317247 3.7234858,2.019243 3.376424,1.9184804 3.0572064,1.7294353 3.1207173,1.7022058 3.1654999,1.6574199 3.1915572,1.5950844 3.0986268,1.4906536 3.1098249,1.4010885 3.225145,1.3263828 Z"
       id="path50"
       style="clip-rule:evenodd;fill-rule:evenodd;stroke-width:0.0335878;image-rendering:optimizeQuality;shape-rendering:geometricPrecision;text-rendering:geometricPrecision" />
    <path
       fill="#eaeff2"
       d="m 6.4831534,3.0729438 c 3.7e-4,0.050966 0.02274,0.090153 0.067175,0.117557 0.064186,0.050244 0.1313613,0.095026 0.2015263,0.1343509 -0.2239293,-0.013875 -0.4198467,-0.097844 -0.587785,-0.2519079 -0.00561,0.022393 -0.011185,0.044783 -0.016795,0.067175 0.051154,0.3781642 0.084742,0.7588137 0.1007629,1.1419823 0.1063724,0.1903416 0.2127113,0.3806496 0.3190832,0.5709911 0.05233,0.06244 0.1138964,0.1128211 0.1847329,0.1511447 C 6.5531834,4.9998373 6.362842,4.9494557 6.1808637,4.8530926 6.1408272,4.6719205 6.0904458,4.4927972 6.0297193,4.3156892 5.8656094,4.1599429 5.6808771,4.13754 5.4755218,4.2485138 5.4810318,4.1582636 5.4754213,4.0686851 5.4587268,3.9798121 5.4220518,4.0341235 5.3716679,4.0677111 5.3075824,4.0805753 5.4146263,3.7751621 5.5153892,3.4672635 5.6098717,3.1569131 5.5986867,3.1401191 5.5874667,3.1233251 5.5762817,3.1065316 5.4896588,3.1470415 5.4056893,3.1918242 5.3243739,3.2408824 5.264386,3.1321757 5.2140045,3.0202178 5.173229,2.9050052 5.198854,2.8792133 5.232444,2.8624193 5.273992,2.8546237 5.227912,2.8129113 5.194322,2.7625295 5.173229,2.703479 5.0669911,2.6757995 5.0110002,2.6086238 5.0052907,2.5019527 5.1221756,2.435281 5.222939,2.3513118 5.3075799,2.2500448 5.240841,2.060375 5.1400781,1.8924364 5.0052907,1.7462291 c 0.2682983,0.044574 0.537,0.1005549 0.8061048,0.1679386 0.1226624,0.016747 0.2457948,0.022346 0.3694647,0.016794 -0.00877,0.2714995 0.013605,0.5402013 0.067175,0.806105 0.05317,0.1312273 0.1315299,0.2431851 0.2351143,0.3358772 z"
       id="path54"
       style="clip-rule:evenodd;fill-rule:evenodd;stroke-width:0.0335878;image-rendering:optimizeQuality;shape-rendering:geometricPrecision;text-rendering:geometricPrecision" />
    <path
       fill="#fcfbfa"
       d="M 1.7472856,2.938593 C 1.7103056,2.982247 1.6655226,2.999041 1.6129346,2.988975 1.6912714,2.7714471 1.8032293,2.5755199 1.9488118,2.4011895 2.1424585,2.2351958 2.3495838,2.1120396 2.5701846,2.0317247 c 0.018315,0.085236 0.040708,0.1636091 0.067175,0.235114 -0.1512859,0.038999 -0.2912323,0.1005783 -0.4198464,0.1847325 0.3267244,0.034266 0.6290139,0.1350293 0.9068682,0.3022894 -0.040198,0.097193 -0.08498,0.1923568 -0.1343509,0.2854954 -0.159189,0.091973 -0.1535899,0.1927366 0.016794,0.3022896 0.05848,0.094348 0.097666,0.1951109 0.117557,0.3022894 C 2.6952078,3.696332 2.5944445,3.5396115 2.8220922,3.173707 2.7921522,3.13711 2.7585642,3.13711 2.721329,3.173707 2.6697721,3.0649936 2.6137948,2.9586348 2.5533907,2.8546237 c -0.1791334,-0.022393 -0.3582702,-0.022393 -0.5374035,0 -0.099312,0.00938 -0.1888771,0.037373 -0.2687016,0.083969 z"
       id="path58"
       style="clip-rule:evenodd;fill-rule:evenodd;stroke-width:0.0335878;image-rendering:optimizeQuality;shape-rendering:geometricPrecision;text-rendering:geometricPrecision" />
    <path
       style="clip-rule:evenodd;opacity:0.828;fill-rule:evenodd;stroke-width:0.0335878;image-rendering:optimizeQuality;shape-rendering:geometricPrecision;text-rendering:geometricPrecision"
       fill="#e7eaed"
       d="m 1.1427067,1.3263828 c 0.022393,0 0.044782,0 0.067175,0 0.030673,0.053273 0.030673,0.1036549 0,0.1511447 0.063763,0.021499 0.074958,0.066282 0.033588,0.1343508 0.047516,0.3406365 0.120291,0.6709179 0.2183201,0.9908375 0.036026,-0.068741 0.075213,-0.135916 0.117557,-0.2015263 -0.011194,-0.022393 -0.022393,-0.044782 -0.033588,-0.067175 0.080003,-0.1106211 0.1135903,-0.2337772 0.1007632,-0.3694648 0.085608,-0.00378 0.1639786,0.018611 0.235114,0.067175 0.062305,0.1334372 0.084698,0.2565934 0.067175,0.3694648 -0.1455825,0.1743304 -0.2575404,0.3702576 -0.3358772,0.587785 0.052588,0.010066 0.097371,-0.00673 0.134351,-0.050382 0.036382,0.00133 0.06997,0.012522 0.100763,0.033588 0.032916,0.086875 0.044114,0.1764396 0.033588,0.2687017 -0.052048,0.2313187 -0.068841,0.4664327 -0.050382,0.7053421 0.1609959,0.013738 0.3121406,0.05851 0.4534341,0.134351 0.064394,-0.00853 0.1091769,-0.042119 0.1343507,-0.1007632 0.092034,0.078192 0.069641,0.1229982 -0.067175,0.1343508 -0.042768,0.025426 -0.042768,0.047796 0,0.067175 0.00571,0.044403 -0.00549,0.0836 -0.033587,0.117557 0.087519,0.077218 0.087519,0.1500028 0,0.2183202 C 2.2852902,4.4293164 2.2181148,4.3509227 2.1167504,4.2821015 2.0484834,4.6032337 2.0148957,4.9279261 2.0159872,5.2561451 c -0.029924,0.02556 -0.052316,0.059149 -0.067175,0.1007634 0.00412,0.063078 0.00412,0.1246439 0,0.1847324 -0.073171,0.014845 -0.095564,0.048435 -0.067175,0.1007634 -0.027935,0.02311 -0.050328,0.0175 -0.067175,-0.016795 C 1.7700481,5.4986484 1.7364602,5.369907 1.7136978,5.2393516 1.7175878,5.1967617 1.7287823,5.1519562 1.7472858,5.1050008 1.6507276,4.8047935 1.5835522,4.4969285 1.5457592,4.1813383 1.5543436,4.1414025 1.5655391,4.1022057 1.579347,4.0637814 1.4321992,3.1512636 1.2866502,2.2387997 1.1427067,1.3263828 Z"
       id="path70" />
    <path
       style="clip-rule:evenodd;opacity:0.999;fill-rule:evenodd;stroke-width:0.0335878;image-rendering:optimizeQuality;shape-rendering:geometricPrecision;text-rendering:geometricPrecision"
       fill="#fcfbfa"
       d="m 2.4190397,3.9462243 c 0,0.011186 0,0.022403 0,0.033588 -0.025174,0.058644 -0.069956,0.092232 -0.1343507,0.100763 -0.1412935,-0.075841 -0.2924382,-0.1206136 -0.4534341,-0.134351 -0.01846,-0.2389094 -0.00167,-0.4740234 0.050381,-0.7053419 0.026934,-0.048756 0.043728,-0.1047366 0.050381,-0.1679386 0.055981,0.055981 0.111958,0.1119579 0.1679386,0.1679386 0.097361,0.2427719 0.2037229,0.4778859 0.3190842,0.7053419 z"
       id="path74" />
    <path
       style="clip-rule:evenodd;opacity:0.769;fill-rule:evenodd;stroke-width:0.0335878;image-rendering:optimizeQuality;shape-rendering:geometricPrecision;text-rendering:geometricPrecision"
       fill="#d8dee1"
       d="m 7.2220828,1.3263828 c 0.022405,0 0.044775,0 0.067175,0 C 7.2118388,1.9191924 7.1110754,2.4901835 6.986969,3.039356 6.995529,3.1521974 7.006754,3.2529605 7.020559,3.3416456 6.941359,3.787153 6.8965531,4.2293688 6.8862076,4.6683601 6.7901136,5.1504782 6.7229377,5.6318913 6.6846817,6.1126324 6.4990424,6.4262406 6.3087341,6.7341394 6.1136902,7.0362941 c 0.00578,0.03332 -0.00544,0.055688 -0.033585,0.067175 C 6.0291193,6.9669022 6.0011403,6.8213663 5.9961358,6.6668294 5.9821608,6.3516087 5.9709809,6.0381345 5.9625459,5.7263732 6.0995162,5.8721776 6.2618461,5.939353 6.4495674,5.9278995 6.360795,5.8783246 6.2880106,5.8111491 6.2312476,5.7263732 c 8e-4,-0.1530253 -0.00475,-0.3097792 -0.016795,-0.4702281 -0.085615,-0.002 -0.1527903,0.031605 -0.2015263,0.1007634 -0.040475,-0.036175 -0.062876,-0.080946 -0.067175,-0.1343508 0.049645,0.0088 0.094415,-0.0024 0.1343509,-0.03359 C 6.1409622,5.0847453 6.1745502,4.9727971 6.1808647,4.8530904 6.362843,4.9494534 6.5531844,4.9998351 6.7518562,5.0042348 6.6810187,4.9659137 6.6194523,4.9155322 6.5671223,4.8530926 6.4607504,4.6627511 6.3544115,4.4724431 6.2480391,4.2821015 6.2320181,3.8989329 6.1984302,3.5182834 6.1472762,3.1401192 c 0.00561,-0.022393 0.011185,-0.044782 0.016795,-0.067175 0.1679383,0.1540635 0.3638557,0.2380327 0.587785,0.2519079 -0.070165,-0.039325 -0.1373404,-0.084107 -0.2015263,-0.1343509 -0.044435,-0.027404 -0.066806,-0.066591 -0.067176,-0.117557 0.01706,-0.097021 0.039465,-0.1921855 0.067176,-0.2854955 -0.011185,-0.011195 -0.022405,-0.022393 -0.03359,-0.033588 0.1474504,-0.199585 0.2650073,-0.4179051 0.3526712,-0.6549604 0.016795,0.050381 0.03359,0.1007631 0.050381,0.1511447 0.00315,0.072728 -0.00806,0.1399029 -0.03359,0.2015263 0.05458,0.1034904 0.082559,0.2098493 0.083969,0.3190833 C 7.0380529,2.5787379 7.0772499,2.3884097 7.0877289,2.1996635 7.1545348,1.9106815 7.1993073,1.6195869 7.2220798,1.326383 Z"
       id="path78" />
    <path
       fill="#dae8f2"
       d="m 4.1991887,2.4011895 c 0.2515383,0.027844 0.5090551,0.044638 0.7725175,0.050382 0.018675,0.012851 0.02986,0.029645 0.03359,0.050382 0.00571,0.1066711 0.0617,0.1738467 0.1679383,0.2015263 0.021095,0.059051 0.054681,0.1094321 0.100763,0.1511447 -0.04155,0.0078 -0.075136,0.024589 -0.100763,0.050381 C 5.1264796,2.8454677 5.0872836,2.7782923 5.0556776,2.703479 5.0253477,2.6631266 4.9861843,2.6351347 4.9381202,2.6195097 4.6360323,2.6027226 4.3337431,2.5971268 4.0312519,2.6027158 3.8478965,2.5893916 3.6687735,2.6061858 3.4938486,2.6530974 3.3598337,2.8595039 3.2478892,3.077824 3.1579715,3.3080578 3.3778703,3.4713949 3.6185935,3.6057457 3.8801075,3.7111103 4.0146934,3.5092146 4.1322503,3.296507 4.2327782,3.0729438 4.3496301,3.2390988 4.450393,3.4182255 4.5350679,3.6103472 4.4343045,3.6719135 4.3335416,3.7335134 4.2327782,3.7950796 4.5624079,3.9104535 4.8871008,4.0280104 5.206822,4.1477507 5.1062941,4.1264227 5.0055312,4.1208467 4.9045328,4.1309567 c -0.02388,0.042152 -0.05186,0.081316 -0.08397,0.117557 C 4.6743538,4.1436193 4.511991,4.0708684 4.3335396,4.0301936 4.2440282,3.960264 4.1712772,3.8762948 4.1152193,3.7782857 c -0.084204,0.011286 -0.1737494,0.033655 -0.2687018,0.067176 -0.039197,-0.00561 -0.07836,-0.011185 -0.1175569,-0.016794 0.086085,-0.025628 0.086085,-0.042422 0,-0.050382 -0.057872,0.035334 -0.1138623,0.035334 -0.1679386,0 0.033621,0.2349797 0.095221,0.4700937 0.1847325,0.7053421 0.027038,0.1073463 0.021429,0.2081095 -0.016794,0.3022894 C 3.6130494,4.4608217 3.4898833,4.1361292 3.3594958,3.8118735 3.0151512,3.9228137 2.6792741,4.0459462 2.3518644,4.1813383 c -0.042768,-0.01938 -0.042768,-0.041749 0,-0.067175 0.1368161,-0.011352 0.1592091,-0.056159 0.067175,-0.1343508 0,-0.011185 0,-0.022403 0,-0.033588 C 2.6764527,3.8756566 2.9339562,3.802872 3.1915572,3.7279042 3.3192577,3.6384266 3.3024571,3.5656756 3.1411757,3.5095841 3.002811,3.3487627 2.9916163,3.1808242 3.107588,3.0057684 3.2038402,2.937928 3.2654167,2.8483596 3.2923204,2.7370667 3.2886004,2.7163297 3.2774074,2.6995358 3.2587324,2.6866851 3.5196082,2.4279657 3.8330823,2.3328017 4.1991887,2.4011895 Z"
       id="path82"
       style="clip-rule:evenodd;fill-rule:evenodd;stroke-width:0.0335878;image-rendering:optimizeQuality;shape-rendering:geometricPrecision;text-rendering:geometricPrecision" />
    <path
       fill="#f3f5f7"
       d="m 5.20682,4.1477507 c 0.056394,0.00722 0.089982,-0.015182 0.1007634,-0.067175 0.064086,-0.012864 0.1144669,-0.046452 0.1511444,-0.1007632 0.016695,0.088873 0.022305,0.1784515 0.016795,0.2687017 0.0044,0.029423 -0.00678,0.051826 -0.033585,0.067175 -0.1316974,0.071508 -0.2660483,0.1331081 -0.4030526,0.1847324 -0.052128,0.098849 -0.108119,0.1940362 -0.1679391,0.2854956 -0.09905,0.052262 -0.1886283,0.041044 -0.2687012,-0.033588 -0.1308579,0.1335112 -0.2652088,0.2622531 -0.4030527,0.386259 -0.03184,0.016225 -0.065429,0.0218 -0.1007634,0.016795 0.00766,0.062305 -0.014745,0.090284 -0.067175,0.083969 C 3.9478889,5.0946903 3.8471255,4.9659484 3.7289641,4.8530937 c 0,-0.022403 0,-0.044773 0,-0.067176 0.038223,-0.09418 0.043832,-0.1949431 0.016794,-0.3022893 -0.089515,-0.235249 -0.1511147,-0.470363 -0.1847361,-0.7053427 0.054076,0.035335 0.110067,0.035335 0.1679386,0 0.086085,0.00796 0.086085,0.024754 0,0.050382 0.039197,0.00561 0.07836,0.011186 0.1175569,0.016794 0.094952,-0.03352 0.1844974,-0.05589 0.2687018,-0.067176 0.056058,0.098009 0.1288089,0.1819783 0.2183203,0.2519079 0.1784514,0.040675 0.3408142,0.1134257 0.4870216,0.2183202 0.03211,-0.036241 0.060089,-0.075404 0.08397,-0.117557 0.1009984,-0.01011 0.2017613,-0.00453 0.3022888,0.016794 z"
       id="path90"
       style="clip-rule:evenodd;fill-rule:evenodd;stroke-width:0.0335878;image-rendering:optimizeQuality;shape-rendering:geometricPrecision;text-rendering:geometricPrecision" />
    <path
       fill="#cfe1ec"
       d="m 6.1808637,4.8530926 c -0.00631,0.1197067 -0.0399,0.2316547 -0.1007629,0.3358776 -0.039935,0.031205 -0.084708,0.042385 -0.1343509,0.03359 0.0019,-0.03725 0.0131,-0.070837 0.03359,-0.1007635 C 6.0678433,5.0007463 6.0958217,4.8663955 6.0633088,4.718744 5.9929763,4.5440207 5.8977884,4.3872669 5.7778135,4.248516 5.5344702,4.3673829 5.2937809,4.490549 5.0556776,4.6179808 c 0.070467,0.1639081 0.1432514,0.3318466 0.2183199,0.5038159 -0.1231659,0 -0.2462988,0 -0.3694647,0 0.010515,-0.1189679 -7e-4,-0.2309157 -0.03359,-0.3358773 0.05982,-0.091459 0.1158105,-0.186647 0.1679389,-0.2854956 0.1370043,-0.051624 0.2713552,-0.1132241 0.4030526,-0.1847324 0.026805,-0.01535 0.037985,-0.037752 0.033585,-0.067175 0.2053553,-0.1109738 0.3900876,-0.088571 0.5541975,0.067175 0.060727,0.177108 0.1111079,0.3562313 0.1511444,0.5374034 z"
       id="path94"
       style="clip-rule:evenodd;fill-rule:evenodd;stroke-width:0.0335878;image-rendering:optimizeQuality;shape-rendering:geometricPrecision;text-rendering:geometricPrecision" />
    <path
       fill="#dbe8f0"
       d="m 2.3518644,4.1813383 c 0.1011427,0.039264 0.1907111,0.095255 0.2687017,0.1679386 -0.061576,0.1231662 -0.123156,0.2462987 -0.1847325,0.3694649 -0.022393,0.07836 -0.022393,0.1567538 0,0.235114 0.1414917,0.2829768 0.2814416,0.5628966 0.4198465,0.8396934 0.026114,0.087731 0.082092,0.1492973 0.1679386,0.1847323 0.2684699,0.016795 0.5371682,0.02237 0.806105,0.016795 0,-0.2911048 0,-0.582176 0,-0.8732808 -0.2015261,0 -0.4030525,0 -0.6045787,0 0.049095,-0.1429832 0.1162806,-0.277334 0.2015262,-0.4030528 0.097539,0.054412 0.1983019,0.099184 0.3022894,0.1343508 0.1181614,0.1128548 0.2189248,0.2415966 0.3022893,0.3862589 0.05243,0.00631 0.074833,-0.021665 0.067175,-0.083969 0.035335,0.005 0.068922,-5.5e-4 0.1007634,-0.016795 C 4.3370322,5.0145827 4.4713831,4.8858408 4.602241,4.7523297 4.682314,4.8269617 4.7718923,4.8381797 4.8709422,4.7859177 4.625349,5.0427293 4.3790507,5.3002466 4.1320129,5.5584354 4.3566472,5.7942212 4.580577,6.029335 4.8037668,6.2637773 c -0.04477,0 -0.089578,0 -0.1343504,0 0.00528,0.046115 -3.31e-4,0.090922 -0.016795,0.1343508 C 4.483139,6.1782288 4.2871886,5.9878875 4.0648378,5.8271366 4.0284289,5.8662666 4.0004499,5.9110386 3.9808684,5.9614875 3.8923985,5.9214526 3.8643865,5.9438225 3.896899,6.028663 3.7135102,6.1435654 3.5119841,6.1883378 3.2923204,6.1630128 3.1511948,6.1363789 3.0056459,6.1083999 2.8556801,6.0790444 2.8164934,6.0398475 2.7773099,6.0006845 2.7381232,5.9614875 2.6637128,5.7659737 2.5797436,5.5756653 2.4862153,5.3904965 2.4303152,5.2605456 2.3799336,5.1261947 2.3350705,4.9874434 c 8.2e-4,-0.1597431 -0.00478,-0.316497 -0.016794,-0.4702279 0.087519,-0.068317 0.087519,-0.141102 0,-0.2183202 0.0281,-0.033957 0.039297,-0.073154 0.033588,-0.117557 z"
       id="path110"
       style="clip-rule:evenodd;fill-rule:evenodd;stroke-width:0.0335878;image-rendering:optimizeQuality;shape-rendering:geometricPrecision;text-rendering:geometricPrecision" />
    <path
       fill="#eff2f3"
       d="m 2.3182767,4.5172155 c 0.012014,0.1537309 0.017613,0.3104848 0.016793,0.4702279 0.044863,0.1387513 0.095245,0.2731017 0.1511448,0.4030531 -0.033493,-0.001 -0.055886,0.015785 -0.067175,0.050382 0.069204,0.1651838 0.1307808,0.3275132 0.1847327,0.487021 C 2.5136765,6.0236245 2.4185124,6.1131694 2.3182767,6.1966013 2.2587626,6.1253954 2.1915872,6.0694049 2.1167504,6.028663 c 0.043469,-0.2355508 0.043469,-0.4818831 0,-0.7389299 -0.043362,0.00796 -0.076949,-0.00325 -0.1007632,-0.03359 -0.0011,-0.3282192 0.032496,-0.6529117 0.1007632,-0.9740439 0.1013644,0.068821 0.1685398,0.147215 0.2015263,0.2351138 z"
       id="path118"
       style="clip-rule:evenodd;fill-rule:evenodd;stroke-width:0.0335878;image-rendering:optimizeQuality;shape-rendering:geometricPrecision;text-rendering:geometricPrecision" />
    <path
       fill="#e6ebee"
       d="m 2.4862153,5.3904965 c 0.093528,0.1851688 0.1774975,0.3754772 0.2519079,0.570991 0.039186,0.039195 0.07837,0.07836 0.1175569,0.1175569 0.1499658,0.029355 0.2955147,0.057335 0.4366403,0.083969 -0.024818,-0.0044 -0.047211,0.0012 -0.067175,0.016795 C 3.4060148,6.4237226 3.5571595,6.6868489 3.6785791,6.9691202 3.8189085,7.13548 3.9476839,7.2810154 4.0648378,7.4057603 H 3.8633115 C 3.7703071,7.3278368 3.6639348,7.2718459 3.5442283,7.2378214 c -0.023243,0.017635 -0.040036,0.040035 -0.050382,0.067175 0.041279,0.02623 0.1943681,0.0351 0.020924,0.1033304 h -0.427311 c 0.06858,-0.058119 0.082071,-0.048885 0.1544795,-0.1369174 -0.00965,-0.1307234 -0.071233,-0.1587019 -0.1847323,-0.083969 -0.07837,0.022405 -0.1567438,0.022405 -0.235114,0 -0.029574,-0.02378 -0.051967,-0.051792 -0.067175,-0.08397 C 2.8625186,6.8764512 2.9632817,6.6413374 3.0572065,6.3981286 3.0460125,6.3757236 3.0348135,6.3533586 3.0236185,6.3309536 2.7406218,6.432355 2.460722,6.5387274 2.1839256,6.6500368 c -0.040644,0.0349 -0.074232,0.074095 -0.1007631,0.1175574 -0.035334,0.005 -0.068922,-5.5e-4 -0.1007631,-0.016795 0.026638,-0.036445 0.049031,-0.07564 0.067175,-0.1175573 -0.055238,-0.04017 -0.111219,-0.073759 -0.1679386,-0.1007634 0.091789,-0.015045 0.1645597,-0.059819 0.2183201,-0.1343509 0.016747,-0.1226624 0.022346,-0.2457947 0.016794,-0.3694646 0.074837,0.04074 0.1420122,0.096732 0.2015263,0.1679383 0.1002359,-0.083432 0.1954,-0.1729768 0.2854957,-0.2687018 C 2.5498203,5.7683917 2.488244,5.6060623 2.4190398,5.440878 2.4303288,5.406283 2.4527218,5.389489 2.4862153,5.3904965 Z"
       id="path122"
       style="clip-rule:evenodd;fill-rule:evenodd;stroke-width:0.0335878;image-rendering:optimizeQuality;shape-rendering:geometricPrecision;text-rendering:geometricPrecision"
       sodipodi:nodetypes="ccccccccccccccccccccccccccccc" />
    <path
       style="clip-rule:evenodd;opacity:0.753;fill-rule:evenodd;stroke-width:0.0335878;image-rendering:optimizeQuality;shape-rendering:geometricPrecision;text-rendering:geometricPrecision"
       fill="#dce0e3"
       d="M 2.7213293,0.45310222 C 2.5481543,0.63142613 2.4361931,0.84415053 2.3854521,1.0912687 c 0.2018353,-0.00558 0.4033616,1.68e-5 0.6045788,0.016794 0.040083,0.036765 0.084866,0.064757 0.1343509,0.083969 -0.022393,0.033588 -0.044782,0.067175 -0.067175,0.1007631 H 2.2175136 C 2.106748,1.1372067 1.9835919,0.99166113 1.8480486,0.85615473 c -0.024962,0.0472882 -0.052954,0.0920707 -0.083969,0.1343509 -0.055981,-0.0895683 -0.1119579,-0.1791334 -0.1679386,-0.2687017 0,0 0,0 -0.033588,-0.033588 0.00583,-0.1357212 0.022622,-0.27007211 0.050381,-0.40305255 0.096491,0.0428205 0.197254,0.0708096 0.3022896,0.0839693 0.2740287,0.0259165 0.5427303,0.0539049 0.8061057,0.0839695 z"
       id="path126"
       sodipodi:nodetypes="ccccccccccccc" />
    <path
       style="clip-rule:evenodd;opacity:0.998;fill-rule:evenodd;stroke-width:0.0335878;image-rendering:optimizeQuality;shape-rendering:geometricPrecision;text-rendering:geometricPrecision"
       fill="#b8c3ca"
       d="m 2.2175136,1.292795 c -0.3806598,0 -0.7613226,0 -1.1419823,0 0.1534623,-0.2040621 0.3269966,-0.39439357 0.5206096,-0.57099107 0.055981,0.089568 0.1119578,0.1791334 0.1679386,0.2687017 0.031015,-0.04228 0.059007,-0.087063 0.083969,-0.1343509 0.1355433,0.1355064 0.2586994,0.28105197 0.3694651,0.43664027 z"
       id="path130" />
    <path
       fill="#e8edf0"
       d="m 5.9457499,5.2225577 c 0.0043,0.053404 0.0267,0.098177 0.067175,0.1343508 0.048735,-0.069157 0.1159114,-0.1027449 0.2015263,-0.1007634 0.012025,0.1604489 0.0176,0.3172028 0.016795,0.4702281 0.056763,0.084776 0.1295474,0.1519509 0.2183198,0.2015263 -0.1877213,0.011455 -0.3500512,-0.055722 -0.4870215,-0.2015263 0.00843,0.3117613 0.019615,0.6252355 0.03359,0.9404562 0.00501,0.1545369 0.032985,0.3000728 0.08397,0.4366401 0.0013,0.036375 0.01253,0.069964 0.033585,0.1007635 C 6.0023126,7.222238 5.9015497,7.188648 5.8114003,7.1034695 c -0.02976,0.02771 -0.040945,0.061298 -0.03359,0.1007635 -0.010415,0.04158 -0.027205,0.04158 -0.050382,0 C 5.6542756,7.0121446 5.5590882,6.8330213 5.4419343,6.6668294 5.2743315,6.8400748 5.1120021,7.0191981 4.9549122,7.204233 4.8853188,7.3208159 4.886684,7.2786114 4.8555145,7.4083273 l -0.085783,-0.0013 c -0.00455,-0.2470038 0.00706,-0.3266737 0.034035,-0.572267 -0.064589,-0.1221589 -0.064589,-0.2397158 0,-0.3526712 -0.011185,-0.016795 -0.022405,-0.03359 -0.03359,-0.050382 -0.1391866,0.054346 -0.284756,0.082324 -0.4366393,0.083969 C 4.2314977,6.7588853 4.1251253,6.9995751 4.0144539,7.2378124 3.988054,6.8252883 3.948857,6.4222356 3.8968965,6.028655 c -0.032515,-0.084843 -0.0045,-0.1072119 0.08397,-0.067176 0.01958,-0.050449 0.04756,-0.095221 0.083969,-0.1343509 0.2223508,0.1607509 0.4183011,0.3510922 0.587785,0.570991 0.01646,-0.04343 0.022065,-0.088235 0.016795,-0.1343508 h 0.1343503 c 0.032175,0.015215 0.060189,0.037585 0.083969,0.067175 0.016725,-0.1114104 0.022335,-0.2233583 0.016795,-0.3358772 0.2167078,0.013975 0.4294191,-0.0028 0.6381665,-0.050382 C 5.6812797,5.7067502 5.8156305,5.4660269 5.9457499,5.2225497 Z"
       id="path134"
       style="clip-rule:evenodd;fill-rule:evenodd;stroke-width:0.0335878;image-rendering:optimizeQuality;shape-rendering:geometricPrecision;text-rendering:geometricPrecision"
       sodipodi:nodetypes="ccccccccccccccccccccccccccccccc" />
    <path
       fill="#faf9f7"
       d="M 2.7549169,7.1034695 C 2.5385683,6.9767766 2.3146491,6.8647952 2.0831627,6.7675928 2.1096937,6.7241279 2.1432813,6.6849334 2.1839258,6.6500354 2.4607222,6.538726 2.740622,6.4323536 3.0236187,6.3309522 c 0.011195,0.022405 0.022393,0.04477 0.033588,0.067175 -0.093925,0.2432092 -0.1946882,0.478323 -0.3022898,0.7053423 z"
       id="path138"
       style="clip-rule:evenodd;fill-rule:evenodd;stroke-width:0.0335878;image-rendering:optimizeQuality;shape-rendering:geometricPrecision;text-rendering:geometricPrecision" />
    <path
       style="clip-rule:evenodd;opacity:0.757;fill-rule:evenodd;stroke-width:0.0335878;image-rendering:optimizeQuality;shape-rendering:geometricPrecision;text-rendering:geometricPrecision"
       fill="#d1d5d8"
       d="m 2.0831625,6.7675983 c 0.2314864,0.097203 0.4554056,0.2091843 0.6717542,0.3358767 0.015209,0.032175 0.037602,0.060189 0.067176,0.083969 0.07837,0.022405 0.1567436,0.022405 0.2351139,0 0.1134998,-0.074732 0.1750795,-0.046755 0.1847325,0.083969 -0.072408,0.08803 -0.058949,0.090596 -0.1544794,0.1369134 h -0.632385 c 0.062181,-0.056564 0.082127,-0.00315 0.1319037,-0.069743 C 2.4395854,7.2136039 2.282845,7.1016225 2.1167504,7.0027066 c 0,0 -0.134351,-0.2519078 -0.033588,-0.2351083 z"
       id="path142"
       sodipodi:nodetypes="cccccccccc" />
    <path
       id="path146"
       style="clip-rule:evenodd;fill:#b7bbbb;fill-opacity:1;fill-rule:evenodd;stroke-width:0.0335878;image-rendering:optimizeQuality;shape-rendering:geometricPrecision;text-rendering:geometricPrecision"
       d="M 3.8969175,6.0285676 C 3.7135287,6.1434685 3.5119674,6.1882514 3.2923038,6.1629264 c -0.024818,-0.0044 -0.047215,0.00121 -0.067179,0.016795 0.1808698,0.2439137 0.3320408,0.507086 0.4534604,0.7893569 0.1403295,0.1663603 0.2691271,0.3119204 0.3862809,0.4366654 -3.479e-4,4.585e-4 -6.853e-4,8.383e-4 -0.00103,0.00129 h 0.7058957 c 0.00196,-0.1911389 0.01321,-0.3820327 0.034106,-0.572316 -0.064589,-0.1221588 -0.064589,-0.2397358 0,-0.3526913 -0.011185,-0.01679 -0.022404,-0.033588 -0.033589,-0.050383 C 4.6310611,6.4859875 4.4854663,6.5139677 4.3335829,6.5156177 4.2315435,6.7588264 4.1251527,6.9995579 4.0144813,7.2377953 3.9880813,6.825271 3.948878,6.4221484 3.8969175,6.0285676 Z m -0.03359,1.3771759 v 0.00129 h 0.00103 c -3.691e-4,-4.339e-4 -6.643e-4,-8.534e-4 -0.00103,-0.00129 z" />
    <path
       id="path150"
       style="clip-rule:evenodd;fill:#d1d9d9;fill-opacity:1;fill-rule:evenodd;stroke-width:0.0335878;image-rendering:optimizeQuality;shape-rendering:geometricPrecision;text-rendering:geometricPrecision"
       d="m 5.4420416,6.6667711 c -0.167603,0.1732454 -0.3299602,0.3523996 -0.4870501,0.5374344 -0.039339,0.065901 -0.072415,0.13402 -0.099477,0.2041218 H 5.503278 c 0.1035089,-0.025584 0.2063754,-0.054328 0.3082498,-0.086558 0.043661,-0.053035 0.032444,-0.092204 -0.03359,-0.1175638 -0.010412,0.04158 -0.027209,0.04158 -0.050384,0 C 5.6543997,7.0121173 5.5591954,6.832963 5.4420416,6.6667711 Z" />
    <path
       id="path158"
       style="clip-rule:evenodd;fill:#b8bec3;fill-opacity:1;fill-rule:evenodd;stroke-width:0.0335878;image-rendering:optimizeQuality;shape-rendering:geometricPrecision;text-rendering:geometricPrecision"
       d="m 2.1166659,7.0026677 c -0.012989,0.074934 -0.01859,0.153308 -0.016795,0.2351276 -0.07823,0.044645 -0.1424431,0.1015023 -0.1930114,0.170532 h 0.6239924 c 0.019458,-0.022603 0.038208,-0.045865 0.056069,-0.069763 C 2.4395281,7.2135843 2.2827604,7.1015835 2.1166659,7.0026677 Z m 1.4275603,0.2351276 c -0.023243,0.017635 -0.040039,0.040039 -0.050385,0.067179 0.041279,0.026231 0.086059,0.04303 0.1343586,0.050384 -0.037245,0.020071 -0.075087,0.037681 -0.1134297,0.052968 h 0.3485577 v -0.00258 C 3.7703234,7.3278201 3.6639326,7.2718201 3.5442262,7.2377953 Z M 1.8520828,7.4985026 c -0.00134,0.00269 -0.00283,0.00529 -0.00413,0.00801 v 0.03359 c 0.00138,6.83e-5 0.00276,1.903e-4 0.00413,2.584e-4 z" />
  </g>
  <path
     id="rect2730-7"
     style="opacity:0.8;fill:url(#linearGradient113015);fill-opacity:1;stroke-width:0.373524"
     d="m 3.5333284,3.9125223 c -0.06815,0.044593 -0.096522,0.1039791 -0.105328,0.2518106 L 5.5707917,20.592623 H 18.427533 L 20.570324,4.1643316 c -0.0088,-0.1478288 -0.03719,-0.2072156 -0.105328,-0.2518106 0.05908,0.1204116 0.01402,0.2432231 -0.180655,0.2518106 H 3.7139873 C 3.5192879,4.1557486 3.4742488,4.0329352 3.5333284,3.9125223 Z"
     sodipodi:nodetypes="ccccccccc" />
  <path
     id="rect2730-0"
     style="opacity:0.4;fill:url(#linearGradient91630);fill-opacity:1;stroke-width:0.373524"
     d="m 3.5333284,3.9125223 c -0.06815,0.044593 -0.096522,0.1039818 -0.105328,0.2518106 L 5.5707936,20.592621 H 18.427539 l 2.14279,-16.4282894 c -0.0087,-0.1478288 -0.03719,-0.2072156 -0.10532,-0.2518106 0.05908,0.1204116 0.01402,0.2432231 -0.180663,0.2518106 H 3.7139877 C 3.5192883,4.1557486 3.4742417,4.0329352 3.5333284,3.9125223 Z" />
  <path
     id="rect2730-0-1"
     style="opacity:0.4;fill:url(#linearGradient94280);fill-opacity:1;stroke-width:0.373524"
     d="M 3.5333272,3.9125223 C 3.4651787,3.9571201 3.436806,4.0165013 3.428,4.164333 L 5.5707925,20.592621 H 18.427539 l 2.14279,-16.4282883 c -0.0087,-0.1478292 -0.03719,-0.2072156 -0.10532,-0.2518106 0.05908,0.1204059 0.01402,0.243223 -0.180663,0.2518106 H 3.7139865 C 3.5192872,4.155693 3.4742405,4.032939 3.5333272,3.9125223 Z" />
  <path
     d="m 10.894746,7.3785635 c -0.46237,0 -0.840905,0.2198248 -1.0723268,0.622199 L 9.1202078,9.4108234 11.112924,10.511935 12.123837,8.5650906 12.713429,7.3785635 Z"
     style="fill:#0068ba;fill-opacity:1;stroke-width:0.125987"
     id="path138735"
     sodipodi:nodetypes="scccccs" />
  <path
     d="m 11.284902,7.3785635 1.632659,2.9240575 -0.816566,0.463161 2.600349,0.946463 1.037505,-2.872409 -0.803545,0.4752523 -0.851475,-1.6184489 C 13.961448,7.4890228 13.753906,7.3785609 13.48582,7.3785609 Z"
     style="fill:#0091e6;fill-opacity:1;stroke-width:0.125987"
     id="path142126"
     sodipodi:nodetypes="cccccccsc" />
  <path
     d="m 16.881733,13.281162 -0.752266,-1.384004 -2.04494,1.000789 1.014903,1.944766 0.653485,1.428279 1.119431,-2.37324 c 0.135,-0.28796 0.08328,-0.484978 0.0094,-0.61659 z"
     style="fill:#0068ba;fill-opacity:1;stroke-width:0.125987"
     id="path138735-0"
     sodipodi:nodetypes="ccccccc" />
  <path
     d="m 16.638306,14.392372 -2.883629,-0.0038 0.0072,-0.938759 -2.0492,2.020116 2.047068,2.093376 -0.0098,-0.933527 h 1.428528 c 0.240985,-0.0022 0.439386,-0.127286 0.574462,-0.358861 z"
     style="fill:#0091e6;fill-opacity:1;stroke-width:0.125987"
     id="path142126-6"
     sodipodi:nodetypes="ccccccccc" />
  <path
     d="m 8.369639,16.223868 c 0.1877075,0.311978 0.3835906,0.327307 0.5469523,0.347221 l 2.0111797,1.76e-4 v -2.405546 l -2.5561894,0.0023 -1.1293274,0.01421 z"
     style="fill:#0068ba;fill-opacity:1;stroke-width:0.125987"
     id="path146733"
     sodipodi:nodetypes="ccccccc" />
  <path
     d="m 8.2880902,16.075033 1.5337232,-2.939181 0.8293616,0.439839 -0.9149831,-2.70152 -2.8020529,0.849184 0.8325628,0.42236 -0.6596203,1.267137 c -0.1093455,0.214772 -0.079299,0.442124 0.053074,0.675266 z"
     style="fill:#0091e6;fill-opacity:1;stroke-width:0.125987"
     id="path146730"
     sodipodi:nodetypes="cccccccsc" />
  <path
     id="rect2730-0-1-5"
     style="opacity:0.4;fill:url(#linearGradient1174);fill-opacity:1;stroke-width:0.373524"
     d="m 3.5340249,3.9131343 c -0.068154,0.044598 -0.097221,0.1032815 -0.1060234,0.2511129 l 0.06417,0.4966457 c 0.011678,-0.012585 0.026305,-0.023281 0.041845,-0.033485 -0.059083,0.1204172 -0.01474,0.2424743 0.1799597,0.2511144 H 20.284429 c 0.194695,-0.00858 0.239054,-0.1307086 0.179959,-0.2511144 0.01561,0.010204 0.0302,0.020824 0.04184,0.033485 l 0.06417,-0.4966457 c -0.0087,-0.1478292 -0.0379,-0.2065179 -0.106023,-0.2511129 0.05909,0.1204059 0.01474,0.2425258 -0.17996,0.2511129 H 3.7139865 C 3.5192872,4.1556075 3.4749435,4.0335512 3.5340249,3.9131343 Z" />
</svg>
