<?xml version="1.0" encoding="UTF-8" standalone="no"?>
<!-- Created with Inkscape (http://www.inkscape.org/) -->

<svg
   width="24"
   height="24"
   viewBox="0 0 24 24"
   version="1.1"
   id="svg69118"
   inkscape:version="1.2.1 (9c6d41e410, 2022-07-14, custom)"
   sodipodi:docname="applications-internet.svg"
   xmlns:inkscape="http://www.inkscape.org/namespaces/inkscape"
   xmlns:sodipodi="http://sodipodi.sourceforge.net/DTD/sodipodi-0.dtd"
   xmlns:xlink="http://www.w3.org/1999/xlink"
   xmlns="http://www.w3.org/2000/svg"
   xmlns:svg="http://www.w3.org/2000/svg">
  <sodipodi:namedview
     id="namedview69120"
     pagecolor="#ffffff"
     bordercolor="#666666"
     borderopacity="1.0"
     inkscape:pageshadow="2"
     inkscape:pageopacity="0.0"
     inkscape:pagecheckerboard="0"
     inkscape:document-units="px"
     showgrid="false"
     units="px"
     inkscape:zoom="33.666667"
     inkscape:cx="12"
     inkscape:cy="12"
     inkscape:window-width="1920"
     inkscape:window-height="1010"
     inkscape:window-x="0"
     inkscape:window-y="0"
     inkscape:window-maximized="1"
     inkscape:current-layer="svg69118"
     inkscape:showpageshadow="2"
     inkscape:deskcolor="#d1d1d1" />
  <defs
     id="defs69115">
    <linearGradient
       inkscape:collect="always"
       xlink:href="#linearGradient984"
       id="linearGradient7450"
       x1="2.9104171"
       y1="3.1750004"
       x2="14.552084"
       y2="12.700001"
       gradientUnits="userSpaceOnUse"
       gradientTransform="matrix(1.3032853,0,0,1.3032853,0.9655172,0.965517)" />
    <linearGradient
       inkscape:collect="always"
       id="linearGradient984">
      <stop
         style="stop-color:#26b4eb;stop-opacity:1;"
         offset="0"
         id="stop980" />
      <stop
         style="stop-color:#15b393;stop-opacity:1"
         offset="1"
         id="stop982" />
    </linearGradient>
    <linearGradient
       inkscape:collect="always"
       id="linearGradient3933">
      <stop
         style="stop-color:#93daee;stop-opacity:1"
         offset="0"
         id="stop3929" />
      <stop
         style="stop-color:#afe5e3;stop-opacity:1"
         offset="1"
         id="stop3931" />
    </linearGradient>
    <linearGradient
       inkscape:collect="always"
       xlink:href="#linearGradient3933"
       id="linearGradient3358"
       x1="0.64662355"
       y1="2.3954189"
       x2="5.2794075"
       y2="5.3446479"
       gradientUnits="userSpaceOnUse"
       gradientTransform="scale(3.7795273)" />
  </defs>
  <circle
     style="fill:url(#linearGradient7450);fill-opacity:1;stroke-width:1.46834;stroke-linecap:round;stroke-linejoin:round"
     id="path7362"
     cx="11.999999"
     cy="11.999999"
     r="9.999999" />
  <path
     id="path69248"
     style="opacity:0.6;fill:url(#linearGradient3358);fill-opacity:1;stroke-width:1.14248;stroke-linecap:round;stroke-linejoin:round"
     d="M 12,2.0000008 C 6.4771532,2.0000007 2.0000007,6.4771532 2.0000008,12 2.0000008,17.522848 6.4771532,22 12,22 17.522847,22 22,17.522847 22,12 22,6.4771532 17.522848,2.0000008 12,2.0000008 Z m 0,0.9999999 c 0.160661,0 0.319926,0.00536 0.478517,0.013671 0.158687,0.00832 0.316251,0.020674 0.472655,0.037107 -0.1564,-0.016649 -0.313984,-0.028626 -0.472655,-0.037107 C 12.319841,3.0051862 12.160719,3.0000007 12,3.0000007 Z m 0,0 a 2.9999998,9.0000006 0 0 1 2.679688,5.0000001 H 9.3203132 A 2.9999998,9.0000006 0 0 1 12,3.0000007 Z m 0.953125,0.050781 c 0.310825,0.032731 0.617397,0.08293 0.917969,0.1464843 C 13.570569,3.133722 13.263973,3.0839418 12.953125,3.0507817 Z m -2.125,0.027345 c -0.07955,0.010356 -0.159401,0.020787 -0.23828,0.033203 0.07885,-0.012408 0.158767,-0.022859 0.23828,-0.033203 z M 10.125001,3.1972663 A 4.0000004,9.9999996 0 0 0 8.3378913,8.0000008 H 3.9375006 C 5.1424071,5.5762572 7.4062223,3.7733491 10.125001,3.1972663 Z m 3.749999,0 c 2.718779,0.5760829 4.982593,2.3789909 6.1875,4.8027345 H 15.664062 A 4.0000004,9.9999996 0 0 0 13.875,3.1972663 Z M 3.9238289,8.0253912 C 3.7726667,8.3321263 3.6394705,8.6493818 3.5234382,8.9746101 3.6395407,8.649412 3.7725922,8.3320912 3.9238289,8.0253912 Z m 16.1523431,0 c 0.151238,0.3067011 0.284289,0.6240219 0.40039,0.9492189 C 20.360531,8.6493818 20.227333,8.3321263 20.076172,8.0253912 Z M 3.5136726,9.0000006 c 6.99e-5,-1.977e-4 0.00188,1.98e-4 0.00195,0 H 8.1933599 A 4.0000004,9.9999996 0 0 0 7.9999992,12 4.0000004,9.9999996 0 0 0 8.1933599,15.000001 H 3.5156257 c -7e-5,-1.98e-4 -0.00188,1.97e-4 -0.00195,0 C 3.1817618,14.061342 3.0000008,13.052332 3.0000007,12 c 0,-1.052331 0.1817613,-2.0613414 0.5136719,-2.9999994 z m 5.6640625,0 H 14.822266 A 2.9999998,9.0000006 0 0 1 14.999999,12 2.9999998,9.0000006 0 0 1 14.822266,15.000001 H 9.1777351 A 2.9999998,9.0000006 0 0 1 8.9999991,12 2.9999998,9.0000006 0 0 1 9.1777351,9.0000006 Z m 6.6367179,0 h 4.669922 c 7e-5,1.98e-4 0.0019,-1.977e-4 0.002,0 C 20.81824,9.9386586 21,10.947669 21,12 c 0,1.052332 -0.181761,2.061342 -0.513672,3.000001 -7e-5,1.97e-4 -0.0019,-1.98e-4 -0.002,0 H 15.814453 A 4.0000004,9.9999996 0 0 0 16,12 4.0000004,9.9999996 0 0 0 15.814453,9.0000006 Z M 3.5234382,15.025391 C 3.6394704,15.35062 3.772667,15.667876 3.9238289,15.97461 3.7725924,15.66791 3.6395409,15.350588 3.5234382,15.025391 Z m 16.9531238,0 c -0.116102,0.325197 -0.249154,0.642519 -0.40039,0.949219 0.151162,-0.306734 0.284359,-0.623991 0.40039,-0.949219 z M 3.9375006,16 h 4.4003907 a 4.0000004,9.9999996 0 0 0 1.7871097,4.802734 C 7.4062223,20.226652 5.1424071,18.423744 3.9375006,16 Z m 5.3828126,0 H 14.679688 A 2.9999998,9.0000006 0 0 1 12,21 c 0.160717,0 0.319843,-0.0052 0.478517,-0.01368 0.158672,-0.0085 0.316255,-0.02045 0.472655,-0.03712 -0.156404,0.01644 -0.313969,0.0288 -0.472655,0.03712 C 12.319928,20.994633 12.160662,21 12,21 A 2.9999998,9.0000006 0 0 1 9.3203132,16 Z m 6.3437488,0 H 20.0625 c -1.204907,2.423744 -3.468722,4.226651 -6.1875,4.802734 A 4.0000004,9.9999996 0 0 0 15.664062,16 Z m -1.792968,4.802734 c -0.30057,0.06355 -0.607146,0.113753 -0.917969,0.146487 0.310848,-0.03315 0.617444,-0.08294 0.917969,-0.146487 z m -3.28125,0.08594 c 0.07888,0.01243 0.158729,0.02287 0.238281,0.03318 -0.07952,-0.01036 -0.159432,-0.02079 -0.238281,-0.03318 z" />
</svg>
