<?xml version="1.0" encoding="UTF-8" standalone="no"?>
<!-- Created with Inkscape (http://www.inkscape.org/) -->

<svg
   width="24"
   height="24"
   viewBox="0 0 24 24"
   version="1.1"
   id="svg2112"
   inkscape:version="1.2.1 (9c6d41e410, 2022-07-14, custom)"
   sodipodi:docname="org.gnome.Software.Socialize.svg"
   xmlns:inkscape="http://www.inkscape.org/namespaces/inkscape"
   xmlns:sodipodi="http://sodipodi.sourceforge.net/DTD/sodipodi-0.dtd"
   xmlns:xlink="http://www.w3.org/1999/xlink"
   xmlns="http://www.w3.org/2000/svg"
   xmlns:svg="http://www.w3.org/2000/svg">
  <sodipodi:namedview
     id="namedview2114"
     pagecolor="#ffffff"
     bordercolor="#000000"
     borderopacity="0.25"
     inkscape:showpageshadow="2"
     inkscape:pageopacity="0.0"
     inkscape:pagecheckerboard="0"
     inkscape:deskcolor="#d1d1d1"
     inkscape:document-units="px"
     showgrid="false"
     inkscape:zoom="33.416667"
     inkscape:cx="12"
     inkscape:cy="12"
     inkscape:window-width="1920"
     inkscape:window-height="1011"
     inkscape:window-x="0"
     inkscape:window-y="0"
     inkscape:window-maximized="1"
     inkscape:current-layer="svg2112" />
  <defs
     id="defs2109">
    <linearGradient
       inkscape:collect="always"
       id="linearGradient1275">
      <stop
         style="stop-color:#bc3f00;stop-opacity:1;"
         offset="0"
         id="stop1271" />
      <stop
         style="stop-color:#c75944;stop-opacity:1;"
         offset="1"
         id="stop1273" />
    </linearGradient>
    <linearGradient
       inkscape:collect="always"
       id="linearGradient1021">
      <stop
         style="stop-color:#ffdd2e;stop-opacity:1;"
         offset="0"
         id="stop1017" />
      <stop
         style="stop-color:#ffab03;stop-opacity:1;"
         offset="1"
         id="stop1019" />
    </linearGradient>
    <linearGradient
       inkscape:collect="always"
       xlink:href="#linearGradient1021"
       id="linearGradient4020"
       x1="32"
       y1="4"
       x2="60"
       y2="60"
       gradientUnits="userSpaceOnUse"
       gradientTransform="matrix(0.35714285,0,0,0.35714285,0.57142857,0.57142857)" />
    <linearGradient
       inkscape:collect="always"
       xlink:href="#linearGradient1275"
       id="linearGradient1277"
       x1="16.600012"
       y1="9.2000113"
       x2="16.600012"
       y2="6"
       gradientUnits="userSpaceOnUse"
       gradientTransform="matrix(1.5624946,0,0,1.5624946,-7.9374278,-2.3749676)" />
  </defs>
  <circle
     style="fill:url(#linearGradient4020);fill-opacity:1;stroke-width:0.357143;stroke-linecap:round;stroke-linejoin:round"
     id="path368"
     cx="12"
     cy="12"
     r="10" />
  <path
     id="path375"
     style="opacity:0.8;fill:#313131;fill-opacity:1;stroke-width:0.5;stroke-linecap:round;stroke-linejoin:round"
     d="m 8.111328,15.445312 c -0.198901,3e-5 -0.390621,0.07809 -0.53125,0.21875 -0.292817,0.29288 -0.292817,0.767668 0,1.060547 1.171895,1.171894 2.762613,1.830079 4.419922,1.830079 1.657308,0 3.246075,-0.658185 4.417969,-1.830079 0.292817,-0.292879 0.292817,-0.767667 0,-1.060547 -0.29288,-0.292816 -0.767667,-0.292816 -1.060547,0 -0.890997,0.890999 -2.097361,1.390626 -3.357422,1.390626 -1.260061,0 -2.468377,-0.499627 -3.359375,-1.390626 -0.140629,-0.140658 -0.330396,-0.21872 -0.529297,-0.21875 z"
     sodipodi:nodetypes="cscscccscc" />
  <path
     id="path964"
     style="opacity:1;fill:url(#linearGradient1277);fill-opacity:1;stroke-width:1.5625;stroke-linecap:round;stroke-linejoin:round"
     d="M 7.40625,7 C 6.4348045,6.999994 6,7.6995637 6,8.5625 6.0000065,9.5958413 8.5,12 8.5,12 8.5,12 10.999994,9.5958413 11,8.5625 11,7.6995637 10.565196,6.999994 9.59375,7 8.9843353,7.0000038 8.5,7.5614969 8.5,7.9375 8.5,7.5614969 8.0156647,7.0000038 7.40625,7 Z m 7,0 C 13.434806,6.999994 13,7.6995645 13,8.5625 13.000006,9.5958403 15.5,12 15.5,12 15.5,12 17.999994,9.5958403 18,8.5625 18,7.6995645 17.565194,6.999994 16.59375,7 15.984336,7.0000038 15.5,7.5614973 15.5,7.9375 15.5,7.5614973 15.015664,7.0000038 14.40625,7 Z" />
</svg>
