<?xml version="1.0" encoding="UTF-8" standalone="no"?>
<!-- Created with Inkscape (http://www.inkscape.org/) -->

<svg
   width="24"
   height="24"
   viewBox="0 0 24 24.000001"
   version="1.1"
   id="svg5"
   inkscape:version="1.2.1 (9c6d41e410, 2022-07-14, custom)"
   sodipodi:docname="application-x-shellscript.svg"
   xmlns:inkscape="http://www.inkscape.org/namespaces/inkscape"
   xmlns:sodipodi="http://sodipodi.sourceforge.net/DTD/sodipodi-0.dtd"
   xmlns:xlink="http://www.w3.org/1999/xlink"
   xmlns="http://www.w3.org/2000/svg"
   xmlns:svg="http://www.w3.org/2000/svg">
  <sodipodi:namedview
     id="namedview7"
     pagecolor="#ffffff"
     bordercolor="#000000"
     borderopacity="0.25"
     inkscape:showpageshadow="2"
     inkscape:pageopacity="0.0"
     inkscape:pagecheckerboard="0"
     inkscape:deskcolor="#d1d1d1"
     inkscape:document-units="px"
     showgrid="false"
     inkscape:zoom="33.416667"
     inkscape:cx="11.985037"
     inkscape:cy="12"
     inkscape:window-width="1920"
     inkscape:window-height="1011"
     inkscape:window-x="0"
     inkscape:window-y="0"
     inkscape:window-maximized="1"
     inkscape:current-layer="svg5" />
  <defs
     id="defs2">
    <linearGradient
       inkscape:collect="always"
       id="linearGradient2996">
      <stop
         style="stop-color:#1a1a1a;stop-opacity:1;"
         offset="0"
         id="stop2992" />
      <stop
         style="stop-color:#525252;stop-opacity:1;"
         offset="1"
         id="stop2994" />
    </linearGradient>
    <linearGradient
       inkscape:collect="always"
       xlink:href="#linearGradient2996"
       id="linearGradient3003"
       x1="19.999998"
       y1="17.999998"
       x2="1.9999998"
       y2="6"
       gradientUnits="userSpaceOnUse"
       gradientTransform="translate(1,1)" />
  </defs>
  <rect
     style="fill:#797774;fill-opacity:1;stroke:none;stroke-width:0.414716;stroke-linecap:round;stroke-linejoin:round"
     id="rect261617"
     width="20"
     height="16"
     x="2"
     y="4"
     ry="2" />
  <path
     id="rect1043"
     style="fill:url(#linearGradient3003);fill-opacity:1;stroke-width:3;stroke-linecap:round;stroke-linejoin:round"
     d="M 3.9999996,7.0000001 H 19.999999 c 0.554,0 1,0.4460001 1,0.9999998 V 18 c 0,0.553999 -0.446,0.999998 -1,0.999998 H 3.9999996 C 3.4459998,18.999998 2.9999998,18.553999 2.9999998,18 V 7.9999999 c 0,-0.5539997 0.446,-0.9999998 0.9999998,-0.9999998 z"
     sodipodi:nodetypes="sssssssss" />
  <path
     id="rect1066"
     style="fill:#c4c4c4;fill-opacity:1;stroke-width:1.5;stroke-linecap:round;stroke-linejoin:round"
     d="m 14.999999,5 v 0.9999998 h 1 V 5 Z m 2,0 v 0.9999998 h 1 V 5 Z m 2,0 v 0.9999998 h 1 V 5 Z" />
  <path
     id="rect233"
     style="fill:#ffffff;stroke-width:1.22475"
     d="m 7,9 v 2 H 5 v 1 h 2 v 2 H 5 v 1.000001 h 2 v 2 h 1 v -2 h 2 v 2 h 1 v -2 h 2.000001 V 14 H 11 v -2 h 2.000001 V 11 H 11 V 9 h -1 v 2 H 8 V 9 Z m 8.000001,0 v 6.000001 h 1 V 9 Z M 8,12 h 2 v 2 H 8 Z m 7.000001,4.000001 v 1 h 1 v -1 z" />
</svg>
