<?xml version="1.0" encoding="UTF-8" standalone="no"?>
<!-- Created with Inkscape (http://www.inkscape.org/) -->

<svg
   width="24"
   height="24"
   viewBox="0 0 24 24.000001"
   version="1.1"
   id="svg5"
   inkscape:version="1.2.1 (9c6d41e410, 2022-07-14, custom)"
   sodipodi:docname="application-pgp-encrypted.svg"
   xmlns:inkscape="http://www.inkscape.org/namespaces/inkscape"
   xmlns:sodipodi="http://sodipodi.sourceforge.net/DTD/sodipodi-0.dtd"
   xmlns:xlink="http://www.w3.org/1999/xlink"
   xmlns="http://www.w3.org/2000/svg"
   xmlns:svg="http://www.w3.org/2000/svg">
  <sodipodi:namedview
     id="namedview7"
     pagecolor="#ffffff"
     bordercolor="#000000"
     borderopacity="0.25"
     inkscape:showpageshadow="2"
     inkscape:pageopacity="0.0"
     inkscape:pagecheckerboard="0"
     inkscape:deskcolor="#d1d1d1"
     inkscape:document-units="px"
     showgrid="false"
     inkscape:zoom="33.416667"
     inkscape:cx="11.985037"
     inkscape:cy="12"
     inkscape:window-width="1920"
     inkscape:window-height="1011"
     inkscape:window-x="0"
     inkscape:window-y="0"
     inkscape:window-maximized="1"
     inkscape:current-layer="svg5" />
  <defs
     id="defs2">
    <linearGradient
       inkscape:collect="always"
       xlink:href="#linearGradient2292"
       id="linearGradient940"
       x1="12"
       y1="13.333334"
       x2="4"
       y2="0"
       gradientUnits="userSpaceOnUse"
       gradientTransform="matrix(0.74999998,0,0,0.74999998,6,6.9999998)" />
    <linearGradient
       inkscape:collect="always"
       id="linearGradient2292">
      <stop
         style="stop-color:#9e670a;stop-opacity:1;"
         offset="0"
         id="stop2288" />
      <stop
         style="stop-color:#e3cb9f;stop-opacity:1;"
         offset="1"
         id="stop2290" />
    </linearGradient>
    <linearGradient
       inkscape:collect="always"
       xlink:href="#linearGradient4736"
       id="linearGradient1337"
       x1="12.999969"
       y1="15.999999"
       x2="7.9999695"
       y2="5.999999"
       gradientUnits="userSpaceOnUse"
       gradientTransform="matrix(0.83333333,0,0,0.8,6.1666922,6.1999997)" />
    <linearGradient
       inkscape:collect="always"
       id="linearGradient4736">
      <stop
         style="stop-color:#e69a10;stop-opacity:1;"
         offset="0"
         id="stop4732" />
      <stop
         style="stop-color:#ffd283;stop-opacity:1;"
         offset="1"
         id="stop4734" />
    </linearGradient>
  </defs>
  <path
     id="rect234"
     style="fill:#7d7d7b"
     d="M 4,1 H 16.5 L 20,4.5 V 23 H 4 Z"
     sodipodi:nodetypes="cccccc" />
  <path
     id="rect1746"
     style="fill:#fafafa"
     d="m 5,2 h 10 v 4 h 4 V 22 H 5 Z"
     sodipodi:nodetypes="ccccccc" />
  <path
     id="rect1800"
     style="fill:#fafafa;stroke-width:0.75"
     d="m 16,2 3,3.0000008 h -3 z"
     sodipodi:nodetypes="cccc" />
  <path
     id="rect376"
     style="fill:url(#linearGradient940);fill-opacity:1;stroke-width:0.75"
     d="M 12,7 C 10.338003,7 9,8.3380034 9,10 v 4 c 0,1.661996 1.338003,3 3,3 1.661996,0 3,-1.338004 3,-3 V 10 C 15,8.3380034 13.661996,7 12,7 Z m 0,1 c 1.107998,0 2,0.8920021 2,2 v 4 c 0,1.107998 -0.892002,2 -2,2 -1.107998,0 -2,-0.892002 -2,-2 v -4 c 0,-1.1079979 0.892002,-2 2,-2 z" />
  <rect
     style="fill:url(#linearGradient1337);fill-opacity:1;stroke-width:0.816497"
     id="rect378"
     width="10"
     height="8"
     x="7"
     y="10.999999"
     ry="1" />
  <path
     id="rect1645"
     style="opacity:0.1;fill:#000000"
     d="m 8,11 c -0.5539988,0 -1,0.446002 -1,1 h 10 c 0,-0.553998 -0.446002,-1 -1,-1 z m -1,7 c 0,0.553998 0.4460012,1 1,1 h 8 c 0.553998,0 1,-0.446002 1,-1 z" />
</svg>
