<?xml version="1.0" encoding="UTF-8" standalone="no"?>
<!-- Created with Inkscape (http://www.inkscape.org/) -->

<svg
   width="24"
   height="24"
   viewBox="0 0 24 24.000001"
   version="1.1"
   id="svg5"
   inkscape:version="1.2.1 (9c6d41e410, 2022-07-14, custom)"
   sodipodi:docname="application-x-ms-dos-executable.svg"
   xmlns:inkscape="http://www.inkscape.org/namespaces/inkscape"
   xmlns:sodipodi="http://sodipodi.sourceforge.net/DTD/sodipodi-0.dtd"
   xmlns:xlink="http://www.w3.org/1999/xlink"
   xmlns="http://www.w3.org/2000/svg"
   xmlns:svg="http://www.w3.org/2000/svg">
  <sodipodi:namedview
     id="namedview7"
     pagecolor="#ffffff"
     bordercolor="#000000"
     borderopacity="0.25"
     inkscape:showpageshadow="2"
     inkscape:pageopacity="0.0"
     inkscape:pagecheckerboard="0"
     inkscape:deskcolor="#d1d1d1"
     inkscape:document-units="px"
     showgrid="false"
     inkscape:zoom="35.541667"
     inkscape:cx="12"
     inkscape:cy="12"
     inkscape:window-width="1920"
     inkscape:window-height="1029"
     inkscape:window-x="0"
     inkscape:window-y="0"
     inkscape:window-maximized="1"
     inkscape:current-layer="svg5" />
  <defs
     id="defs2">
    <linearGradient
       inkscape:collect="always"
       xlink:href="#linearGradient1723"
       id="linearGradient1725"
       x1="4.4979162"
       y1="2.3812499"
       x2="4.4979162"
       y2="5.0270834"
       gradientUnits="userSpaceOnUse"
       gradientTransform="matrix(3.7795275,0,0,3.7795275,-1.9999996,-0.999999)" />
    <linearGradient
       inkscape:collect="always"
       id="linearGradient1723">
      <stop
         style="stop-color:#1088d6;stop-opacity:1;"
         offset="0"
         id="stop1719" />
      <stop
         style="stop-color:#076cbe;stop-opacity:1"
         offset="1"
         id="stop1721" />
    </linearGradient>
  </defs>
  <rect
     style="fill:#797774;fill-opacity:1;stroke:none;stroke-width:0.414716;stroke-linecap:round;stroke-linejoin:round"
     id="rect261617"
     width="20"
     height="16"
     x="2"
     y="4"
     ry="2" />
  <path
     id="rect1043"
     style="fill:#fafafa;fill-opacity:1;stroke-width:3;stroke-linecap:round;stroke-linejoin:round"
     d="M 3.9999996,7.0000001 H 19.999999 c 0.554,0 1,0.4460001 1,0.9999998 V 18 c 0,0.553999 -0.446,0.999998 -1,0.999998 H 3.9999996 C 3.4459998,18.999998 2.9999998,18.553999 2.9999998,18 V 7.9999999 c 0,-0.5539997 0.446,-0.9999998 0.9999998,-0.9999998 z"
     sodipodi:nodetypes="sssssssss" />
  <rect
     style="fill:url(#linearGradient1725);fill-opacity:1;stroke:none;stroke-width:0.446581;stroke-linecap:round;stroke-linejoin:round"
     id="rect261621"
     width="6"
     height="10"
     x="9"
     y="8" />
  <path
     id="rect845"
     style="fill:#bebebe;fill-opacity:1;stroke-width:2.44949;stroke-linecap:round;stroke-linejoin:round"
     d="M 4,8.0000003 V 9.0000002 H 8 V 8.0000003 Z m 11.999998,0 V 9.0000002 H 20 V 8.0000003 Z M 4,10.000001 v 1 h 4 v -1 z m 11.999998,0 v 1 H 20 v -1 z M 4,12.000001 v 1.000001 h 4 v -1.000001 z m 11.999998,0 v 1.000001 H 20 V 12.000001 Z M 4,14.000002 v 0.999999 h 4 v -0.999999 z m 11.999998,0 v 0.999999 h 4.000001 v -0.999999 z"
     sodipodi:nodetypes="cccccccccccccccccccccccccccccccccccccccc" />
  <path
     id="rect1066"
     style="fill:#c4c4c4;fill-opacity:1;stroke-width:1.5;stroke-linecap:round;stroke-linejoin:round"
     d="m 14.999999,5 v 0.9999998 h 1 V 5 Z m 2,0 v 0.9999998 h 1 V 5 Z m 2,0 v 0.9999998 h 1 V 5 Z" />
  <path
     d="m 4.0000014,16 v 0.999999 H 8.0000012 V 16 Z m 11.9999976,0 v 0.999999 H 20 V 16 Z"
     style="fill:#bebebe;fill-opacity:1;stroke-width:2.44949;stroke-linecap:round;stroke-linejoin:round"
     id="path611" />
</svg>
