<?xml version="1.0" encoding="UTF-8" standalone="no"?>
<!-- Created with Inkscape (http://www.inkscape.org/) -->

<svg
   width="24"
   height="24"
   viewBox="0 0 24 24.000001"
   version="1.1"
   id="svg5"
   inkscape:version="1.2.1 (9c6d41e410, 2022-07-14, custom)"
   sodipodi:docname="audio-x-flac.svg"
   xmlns:inkscape="http://www.inkscape.org/namespaces/inkscape"
   xmlns:sodipodi="http://sodipodi.sourceforge.net/DTD/sodipodi-0.dtd"
   xmlns:xlink="http://www.w3.org/1999/xlink"
   xmlns="http://www.w3.org/2000/svg"
   xmlns:svg="http://www.w3.org/2000/svg">
  <sodipodi:namedview
     id="namedview7"
     pagecolor="#ffffff"
     bordercolor="#000000"
     borderopacity="0.25"
     inkscape:showpageshadow="2"
     inkscape:pageopacity="0.0"
     inkscape:pagecheckerboard="0"
     inkscape:deskcolor="#d1d1d1"
     inkscape:document-units="px"
     showgrid="false"
     inkscape:zoom="33.75"
     inkscape:cx="11.985185"
     inkscape:cy="12"
     inkscape:window-width="1920"
     inkscape:window-height="1012"
     inkscape:window-x="0"
     inkscape:window-y="0"
     inkscape:window-maximized="1"
     inkscape:current-layer="svg5" />
  <defs
     id="defs2">
    <linearGradient
       inkscape:collect="always"
       xlink:href="#linearGradient1303"
       id="linearGradient888"
       x1="23.861897"
       y1="19"
       x2="29"
       y2="22.852255"
       gradientUnits="userSpaceOnUse"
       gradientTransform="translate(-11,-11)" />
    <linearGradient
       inkscape:collect="always"
       id="linearGradient1303">
      <stop
         style="stop-color:#38c494;stop-opacity:1;"
         offset="0"
         id="stop1299" />
      <stop
         style="stop-color:#0099a6;stop-opacity:1"
         offset="1"
         id="stop1301" />
    </linearGradient>
  </defs>
  <path
     id="rect234"
     style="fill:#7d7d7b"
     d="M 4,1 H 16.5 L 20,4.5 V 23 H 4 Z"
     sodipodi:nodetypes="cccccc" />
  <path
     id="rect1746"
     style="fill:#fafafa"
     d="m 5,2 h 10 v 4 h 4 V 22 H 5 Z"
     sodipodi:nodetypes="ccccccc" />
  <path
     id="rect1800"
     style="fill:#fafafa;stroke-width:0.75"
     d="m 16,2 3,3.0000008 h -3 z"
     sodipodi:nodetypes="cccc" />
  <path
     id="path1056"
     style="fill:url(#linearGradient888);fill-opacity:1.0;stroke-width:3.74998;stroke-linecap:round;stroke-linejoin:round"
     d="m 14,8 c -0.553996,0 -1,0.4460032 -1,1 v 6.052734 A 3.5,3.5 0 0 0 10.5,14 3.5,3.5 0 0 0 7,17.5 3.5,3.5 0 0 0 10.5,21 3.5,3.5 0 0 0 14,17.5 V 11 l 3.060547,1 C 17.581133,12.189479 18,11.895795 18,11.341797 v -1 C 18,9.7877999 17.581133,9.1894786 17.060547,9 Z" />
</svg>
