<?xml version="1.0" encoding="UTF-8" standalone="no"?>
<!-- Created with Inkscape (http://www.inkscape.org/) -->

<svg
   width="24"
   height="24"
   viewBox="0 0 24 24"
   version="1.1"
   id="svg5"
   inkscape:version="1.2.1 (9c6d41e410, 2022-07-14, custom)"
   sodipodi:docname="video-x-generic.svg"
   xmlns:inkscape="http://www.inkscape.org/namespaces/inkscape"
   xmlns:sodipodi="http://sodipodi.sourceforge.net/DTD/sodipodi-0.dtd"
   xmlns:xlink="http://www.w3.org/1999/xlink"
   xmlns="http://www.w3.org/2000/svg"
   xmlns:svg="http://www.w3.org/2000/svg">
  <sodipodi:namedview
     id="namedview7"
     pagecolor="#ffffff"
     bordercolor="#000000"
     borderopacity="0.25"
     inkscape:showpageshadow="2"
     inkscape:pageopacity="0.0"
     inkscape:pagecheckerboard="0"
     inkscape:deskcolor="#d1d1d1"
     inkscape:document-units="px"
     showgrid="false"
     inkscape:zoom="33.666667"
     inkscape:cx="12"
     inkscape:cy="12"
     inkscape:window-width="1920"
     inkscape:window-height="1010"
     inkscape:window-x="0"
     inkscape:window-y="0"
     inkscape:window-maximized="1"
     inkscape:current-layer="svg5"
     showguides="true" />
  <defs
     id="defs2">
    <linearGradient
       inkscape:collect="always"
       id="linearGradient27684">
      <stop
         style="stop-color:#4a4a4a;stop-opacity:1;"
         offset="0"
         id="stop27680" />
      <stop
         style="stop-color:#232323;stop-opacity:0.74901962"
         offset="1"
         id="stop27682" />
    </linearGradient>
    <linearGradient
       inkscape:collect="always"
       xlink:href="#linearGradient12418"
       id="linearGradient2216"
       x1="42.000004"
       y1="4.000001"
       x2="52.000004"
       y2="21.999998"
       gradientUnits="userSpaceOnUse"
       gradientTransform="translate(-35.000003,-1.0000007)" />
    <linearGradient
       inkscape:collect="always"
       id="linearGradient12418">
      <stop
         style="stop-color:#52e4ff;stop-opacity:1;"
         offset="0"
         id="stop12414" />
      <stop
         style="stop-color:#d29eff;stop-opacity:1"
         offset="1"
         id="stop12416" />
    </linearGradient>
    <linearGradient
       inkscape:collect="always"
       xlink:href="#linearGradient27684"
       id="linearGradient982"
       x1="5.2062192"
       y1="1"
       x2="23"
       y2="26"
       gradientUnits="userSpaceOnUse"
       gradientTransform="matrix(0.9,0,0,0.8,0.3,1.2)" />
  </defs>
  <rect
     style="fill:url(#linearGradient982);fill-opacity:1;stroke-width:0.848528;stroke-linecap:round"
     id="rect419"
     width="18"
     height="20"
     x="3"
     y="2"
     ry="1" />
  <path
     id="rect1388"
     style="fill:#ffffff;stroke-width:3;stroke-linecap:round;stroke-linejoin:round"
     d="M 4.4746094,3 C 4.2093666,3 4,3.2316553 4,3.5 v 2 C 4,5.7770017 4.2229913,6 4.5,6 h 1 C 5.7770007,6 6,5.7770007 6,5.5 v -2 C 6,3.2229987 5.7770087,3 5.5,3 h -1 z M 18.474609,3 C 18.209367,3 18,3.2316553 18,3.5 v 2 C 18,5.7770017 18.222991,6 18.5,6 h 1 C 19.777001,6 20,5.7770007 20,5.5 v -2 C 20,3.2229987 19.777009,3 19.5,3 h -1 z M 4.4746094,8 C 4.2093666,8 4,8.2316543 4,8.5 v 2 C 4,10.777001 4.2229913,11 4.5,11 h 1 C 5.7770007,11 6,10.777001 6,10.5 v -2 C 6,8.2229983 5.7770087,8 5.5,8 h -1 z M 18.474609,8 C 18.209367,8 18,8.2316543 18,8.5 v 2 c 0,0.277001 0.222991,0.5 0.5,0.5 h 1 c 0.277001,0 0.5,-0.222999 0.5,-0.5 v -2 C 20,8.2229983 19.777009,8 19.5,8 h -1 z M 4.4746094,13 C 4.2093626,13 4,13.231655 4,13.5 v 2 C 4,15.777002 4.2229913,16 4.5,16 h 1 C 5.7770007,16 6,15.777009 6,15.5 v -2 C 6,13.222998 5.7770087,13 5.5,13 h -1 z M 18.474609,13 C 18.209363,13 18,13.231655 18,13.5 v 2 c 0,0.277002 0.222991,0.5 0.5,0.5 h 1 c 0.277001,0 0.5,-0.222991 0.5,-0.5 v -2 C 20,13.222998 19.777009,13 19.5,13 h -1 z M 4.4746094,18 C 4.2093726,18 4,18.23165 4,18.5 v 2 C 4,20.777002 4.2229913,21 4.5,21 h 1 C 5.7770007,21 6,20.777009 6,20.5 v -2 C 6,18.222998 5.7770087,18 5.5,18 h -1 z M 18.474609,18 C 18.209373,18 18,18.23165 18,18.5 v 2 c 0,0.277002 0.222991,0.5 0.5,0.5 h 1 c 0.277001,0 0.5,-0.222991 0.5,-0.5 v -2 C 20,18.222998 19.777009,18 19.5,18 h -1 z"
     sodipodi:nodetypes="sssssssscssssssssscssssssssscssssssssscssssssssscssssssssscssssssssscssssssssscs" />
  <path
     id="rect2063"
     style="fill:url(#linearGradient2216);fill-opacity:1;stroke-width:3;stroke-linecap:round;stroke-linejoin:round"
     d="M 8,3 C 7.4460012,3 7,3.4460012 7,4 v 6 c 0,0.553998 0.4460012,1 1,1 h 8 c 0.553998,0 1,-0.446002 1,-1 V 4 C 17,3.4460012 16.553998,3 16,3 Z m 0,10 c -0.5539988,0 -1,0.446002 -1,1 v 6 c 0,0.553998 0.4460012,1 1,1 h 8 c 0.553998,0 1,-0.446002 1,-1 v -6 c 0,-0.553998 -0.446002,-1 -1,-1 z" />
</svg>
