<?xml version="1.0" encoding="UTF-8"?>
<svg xmlns="http://www.w3.org/2000/svg" xmlns:xlink="http://www.w3.org/1999/xlink" width="564px" height="109px" viewBox="0 0 284 55" version="1.1">
<g id="surface1">
<path style=" stroke:none;fill-rule:nonzero;fill:rgb(22.352941%,30.588235%,100%);fill-opacity:1;" d="M 79.863281 39.710938 L 71.25 15.1875 L 75.734375 15.1875 L 82.28125 34.664062 C 82.78125 32.898438 83.589844 30.527344 89.078125 15.1875 L 93.558594 15.1875 L 84.546875 39.710938 Z M 97.789062 39.710938 L 97.789062 15.238281 L 101.96875 15.238281 L 101.96875 39.710938 Z M 150.863281 29.417969 C 150.863281 32.746094 150.558594 34.867188 149.652344 36.429688 C 148.242188 38.902344 145.273438 40.265625 140.941406 40.265625 C 136.863281 40.265625 133.84375 39.054688 132.433594 36.332031 C 131.578125 34.765625 131.273438 32.445312 131.273438 29.667969 L 131.273438 15.238281 L 135.453125 15.238281 L 135.453125 29.570312 C 135.453125 31.585938 135.605469 33 135.957031 33.910156 C 136.5625 35.472656 138.074219 36.683594 141.144531 36.683594 C 143.8125 36.683594 145.425781 35.773438 146.230469 34.109375 C 146.632812 33.253906 147.035156 31.636719 147.035156 29.621094 L 147.035156 15.238281 L 150.863281 15.238281 Z M 156.148438 35.019531 C 158.011719 35.875 160.429688 36.683594 163.25 36.683594 C 166.574219 36.683594 168.285156 35.472656 168.285156 33.304688 C 168.285156 31.636719 167.679688 30.730469 164.457031 29.621094 L 161.035156 28.457031 C 157.457031 27.246094 155.796875 25.128906 155.796875 21.648438 C 155.796875 17.914062 158.71875 14.632812 165.011719 14.632812 C 167.480469 14.632812 169.894531 15.035156 171.859375 15.742188 L 170.953125 19.226562 C 168.941406 18.570312 166.523438 18.113281 164.507812 18.113281 C 161.132812 18.113281 160.179688 19.878906 160.179688 21.34375 C 160.179688 22.808594 160.632812 23.816406 163.449219 24.726562 L 166.875 25.9375 C 171.054688 27.347656 172.515625 29.570312 172.515625 32.746094 C 172.515625 36.632812 169.847656 40.113281 163.25 40.113281 C 160.179688 40.113281 157.207031 39.410156 155.09375 38.398438 Z M 184.046875 39.710938 L 184.046875 19.074219 L 176.746094 19.074219 L 176.746094 15.238281 L 195.578125 15.238281 L 195.578125 19.074219 L 188.277344 19.074219 L 188.277344 39.710938 Z M 227.703125 39.710938 L 227.703125 19.074219 L 220.402344 19.074219 L 220.402344 15.238281 L 239.234375 15.238281 L 239.234375 19.074219 L 231.933594 19.074219 L 231.933594 39.710938 Z M 207.460938 40.214844 C 200.359375 40.214844 195.878906 34.261719 195.878906 27.195312 C 195.878906 19.425781 200.410156 14.683594 208.066406 14.683594 C 215.417969 14.683594 219.242188 20.386719 219.292969 27.195312 C 219.34375 34.210938 214.914062 40.214844 207.460938 40.214844 Z M 207.761719 18.214844 C 202.929688 18.214844 200.3125 21.242188 200.3125 27.246094 C 200.3125 34.5625 203.484375 36.683594 207.664062 36.683594 C 211.992188 36.683594 214.914062 34.007812 214.914062 27.449219 C 215.015625 21.648438 213.351562 18.214844 207.761719 18.214844 Z M 238.378906 39.710938 L 247.796875 15.1875 L 252.628906 15.1875 L 261.792969 39.710938 L 257.3125 39.710938 L 254.84375 33.304688 L 245.328125 33.304688 L 242.808594 39.761719 L 238.378906 39.761719 Z M 253.738281 29.71875 L 250.210938 19.679688 C 249.65625 21.34375 249.003906 23.261719 246.484375 29.71875 Z M 265.820312 39.710938 L 265.820312 15.238281 L 270.355469 15.238281 L 270.355469 36.027344 L 282.539062 35.875 L 282.589844 39.710938 Z M 0 2.976562 L 24.523438 27.5 L 0 51.972656 L 54.132812 51.972656 L 54.132812 2.976562 Z M 48.894531 46.726562 L 12.335938 46.726562 L 31.671875 27.5 L 12.335938 8.226562 L 48.894531 8.226562 Z M 121.253906 29.113281 C 124.878906 27.902344 126.289062 25.332031 126.289062 22.203125 C 126.289062 18.820312 124.527344 16.703125 121.957031 15.894531 C 120.449219 15.441406 118.28125 15.238281 116.167969 15.238281 L 108.613281 15.238281 L 108.613281 39.761719 L 112.792969 39.761719 L 112.792969 29.71875 L 114.203125 29.621094 C 116.066406 29.621094 116.972656 29.820312 117.375 29.769531 L 122.867188 39.710938 L 127.496094 39.710938 Z M 120.144531 25.785156 C 119.140625 26.339844 117.679688 26.492188 115.917969 26.492188 L 112.792969 26.492188 L 112.792969 18.71875 L 115.964844 18.71875 C 117.628906 18.71875 118.886719 18.769531 119.84375 19.125 C 121.152344 19.628906 121.859375 20.789062 121.859375 22.453125 C 121.808594 23.96875 121.253906 25.179688 120.144531 25.785156 Z M 120.144531 25.785156 "/>
</g>
</svg>
