<?xml version="1.0" encoding="UTF-8" standalone="no"?>
<!-- Created with Inkscape (http://www.inkscape.org/) -->

<svg
   width="24"
   height="24"
   viewBox="0 0 24 24.000001"
   version="1.1"
   id="svg5"
   inkscape:version="1.2.2 (1:1.2.2+202305151914+b0a8486541)"
   sodipodi:docname="text-x-python.svg"
   xmlns:inkscape="http://www.inkscape.org/namespaces/inkscape"
   xmlns:sodipodi="http://sodipodi.sourceforge.net/DTD/sodipodi-0.dtd"
   xmlns="http://www.w3.org/2000/svg"
   xmlns:svg="http://www.w3.org/2000/svg">
  <sodipodi:namedview
     id="namedview7"
     pagecolor="#ffffff"
     bordercolor="#000000"
     borderopacity="0.25"
     inkscape:showpageshadow="2"
     inkscape:pageopacity="0.0"
     inkscape:pagecheckerboard="0"
     inkscape:deskcolor="#d1d1d1"
     inkscape:document-units="px"
     showgrid="false"
     inkscape:zoom="34.583333"
     inkscape:cx="11.985542"
     inkscape:cy="12"
     inkscape:window-width="1920"
     inkscape:window-height="1008"
     inkscape:window-x="0"
     inkscape:window-y="0"
     inkscape:window-maximized="1"
     inkscape:current-layer="svg5" />
  <defs
     id="defs2" />
  <path
     id="rect234"
     style="fill:#7d7d7b"
     d="M 4,1 H 16.5 L 20,4.5 V 23 H 4 Z"
     sodipodi:nodetypes="cccccc" />
  <path
     id="rect1746"
     style="fill:#fafafa"
     d="m 5,2 h 10 v 4 h 4 V 22 H 5 Z"
     sodipodi:nodetypes="ccccccc" />
  <path
     id="rect1800"
     style="fill:#fafafa;stroke-width:0.75"
     d="m 16,2 3,3.0000008 h -3 z"
     sodipodi:nodetypes="cccc" />
  <path
     d="m 14.5,11.500003 v 1.25 c 0,0.103664 -0.01549,0.202631 -0.03906,0.298828 -0.09556,0.479482 -0.393227,0.709123 -0.679688,0.824218 -0.105505,0.04987 -0.216519,0.08866 -0.335938,0.107422 -0.06418,0.01008 -0.128216,0.01953 -0.195314,0.01953 h -2.5 c 0,0 -0.07813,0 -0.195312,0.01953 -0.09166,0.01528 -0.215173,0.0589 -0.335938,0.107422 -0.3353917,0.158525 -0.5894527,0.455922 -0.6796867,0.82422 -0.01867,0.09367 -0.03906,0.185558 -0.03906,0.298828 v 1.25 0.9375 c 0,0.8655 0.9754997,1.5625 2.1874997,1.5625 h 0.625 c 1.212,0 2.1875,-0.697 2.1875,-1.5625 v -0.9375 h 0.9375 c 0.865,0 1.5625,-0.977453 1.5625,-2.189453 v -0.625 c 0,-1.211 -0.6975,-2.185547 -1.5625,-2.185547 z m -1,5.499999 c 0.276142,0 0.5,0.223858 0.5,0.5 0,0.276142 -0.223858,0.5 -0.5,0.5 -0.276142,0 -0.5,-0.223858 -0.5,-0.5 0,-0.276142 0.223858,-0.5 0.5,-0.5 z"
     style="fill:#ffde57;fill-opacity:1"
     id="path5508" />
  <path
     d="M 11.688,9 C 10.476,9 9.5000003,9.6969999 9.5000003,10.562001 v 0.938 H 8.5625 c -0.8655,0 -1.5625,0.976 -1.5625,2.188 v 0.625 c 0,1.211 0.697,2.187 1.5625,2.187 h 0.9375003 v -1.25 c 0,-0.6925 0.5574997,-1.25 1.2499997,-1.25 h 2.5 c 0,0 1.25,0 1.25,-1.25 v -2.1875 C 14.5,9.6975 13.524,9.0005 12.312,9.0005 H 11.687 Z M 10.5,10.000001 c 0.276142,0 0.5,0.223858 0.5,0.5 0,0.276142 -0.223858,0.5 -0.5,0.5 -0.276143,0 -0.5,-0.223858 -0.5,-0.5 0,-0.276142 0.223857,-0.5 0.5,-0.5 z"
     style="fill:#4584d6;fill-opacity:1"
     id="path5480" />
</svg>
