<?xml version="1.0" encoding="UTF-8" standalone="no"?>
<!-- Created with Inkscape (http://www.inkscape.org/) -->

<svg
   width="24"
   height="24"
   viewBox="0 0 24 24"
   version="1.1"
   id="svg5"
   sodipodi:docname="calligrasheets.svg"
   inkscape:version="1.2.1 (9c6d41e410, 2022-07-14, custom)"
   xmlns:inkscape="http://www.inkscape.org/namespaces/inkscape"
   xmlns:sodipodi="http://sodipodi.sourceforge.net/DTD/sodipodi-0.dtd"
   xmlns="http://www.w3.org/2000/svg"
   xmlns:svg="http://www.w3.org/2000/svg">
  <sodipodi:namedview
     id="namedview7"
     pagecolor="#ffffff"
     bordercolor="#000000"
     borderopacity="0.25"
     inkscape:showpageshadow="2"
     inkscape:pageopacity="0.0"
     inkscape:pagecheckerboard="0"
     inkscape:deskcolor="#d1d1d1"
     inkscape:document-units="px"
     showgrid="false"
     inkscape:zoom="33.75"
     inkscape:cx="12"
     inkscape:cy="12"
     inkscape:window-width="1920"
     inkscape:window-height="1012"
     inkscape:window-x="0"
     inkscape:window-y="0"
     inkscape:window-maximized="1"
     inkscape:current-layer="svg5" />
  <defs
     id="defs2" />
  <rect
     style="fill:#26c55c;stroke-linecap:round;stroke-linejoin:round"
     id="rect439"
     width="21"
     height="12"
     x="1"
     y="7"
     ry="1" />
  <path
     id="rect234"
     style="fill:#248c43;fill-opacity:1;stroke-linecap:round;stroke-linejoin:round"
     d="m 1,8 v 7 H 8 V 8 Z m 7,7 v 7 h 7 v -7 z"
     sodipodi:nodetypes="cccccccccc" />
  <path
     id="rect396"
     style="fill:#32ae58;fill-opacity:1;stroke-linecap:round;stroke-linejoin:round"
     d="m 8,8 v 7 h 7 V 8 Z m 7,7 v 7 h 6 c 0.553998,0 1,-0.446002 1,-1 v -6 z"
     sodipodi:nodetypes="cccccccsscc" />
  <path
     id="rect400"
     style="fill:#27733e;fill-opacity:1;stroke-linecap:round;stroke-linejoin:round"
     d="m 1,15 v 6 c 0,0.553999 0.4460006,1 1,1 h 6 v -7 z"
     sodipodi:nodetypes="cssccc" />
  <path
     id="rect441"
     style="fill:#0faf3d;fill-opacity:1;stroke-linecap:round;stroke-linejoin:round"
     d="m 2,3 h 19 c 0.554,0 1,0.446 1,1 V 8 H 1 V 4 C 1,3.446 1.446,3 2,3 Z"
     sodipodi:nodetypes="sssccss" />
</svg>
