<?xml version="1.0" encoding="UTF-8" standalone="no"?>
<!-- Created with Inkscape (http://www.inkscape.org/) -->

<svg
   width="24"
   height="24"
   viewBox="0 0 24 24"
   version="1.1"
   id="svg2535"
   inkscape:version="1.2.1 (9c6d41e410, 2022-07-14, custom)"
   sodipodi:docname="gnome-calculator.svg"
   xmlns:inkscape="http://www.inkscape.org/namespaces/inkscape"
   xmlns:sodipodi="http://sodipodi.sourceforge.net/DTD/sodipodi-0.dtd"
   xmlns:xlink="http://www.w3.org/1999/xlink"
   xmlns="http://www.w3.org/2000/svg"
   xmlns:svg="http://www.w3.org/2000/svg">
  <sodipodi:namedview
     id="namedview2537"
     pagecolor="#ffffff"
     bordercolor="#000000"
     borderopacity="0.25"
     inkscape:showpageshadow="2"
     inkscape:pageopacity="0.0"
     inkscape:pagecheckerboard="0"
     inkscape:deskcolor="#d1d1d1"
     inkscape:document-units="px"
     showgrid="false"
     inkscape:zoom="35.541667"
     inkscape:cx="11.985932"
     inkscape:cy="12"
     inkscape:window-width="1920"
     inkscape:window-height="1029"
     inkscape:window-x="0"
     inkscape:window-y="0"
     inkscape:window-maximized="1"
     inkscape:current-layer="svg2535" />
  <defs
     id="defs2532">
    <linearGradient
       inkscape:collect="always"
       xlink:href="#linearGradient10632"
       id="linearGradient986"
       x1="2.9104166"
       y1="0.5291667"
       x2="6.0854163"
       y2="4.7625008"
       gradientUnits="userSpaceOnUse"
       gradientTransform="matrix(4.7244094,0,0,4.7244094,-8.749999,-0.5000001)" />
    <linearGradient
       inkscape:collect="always"
       xlink:href="#linearGradient11400"
       id="linearGradient1114"
       x1="2.9104166"
       y1="1.0054166"
       x2="5.0270829"
       y2="1.7991667"
       gradientUnits="userSpaceOnUse"
       gradientTransform="matrix(5.1968503,0,0,5.0393699,-8.125,-1.0666665)" />
    <linearGradient
       inkscape:collect="always"
       xlink:href="#linearGradient10590"
       id="linearGradient2162"
       x1="2.6458335"
       y1="2.3812501"
       x2="3.1750002"
       y2="3.7041669"
       gradientUnits="userSpaceOnUse"
       gradientTransform="matrix(5.6692912,0,0,5.2913385,0,0.4)" />
    <linearGradient
       inkscape:collect="always"
       id="linearGradient10590">
      <stop
         style="stop-color:#d38100;stop-opacity:1;"
         offset="0"
         id="stop10586" />
      <stop
         style="stop-color:#e16300;stop-opacity:1;"
         offset="1"
         id="stop10588" />
    </linearGradient>
    <linearGradient
       inkscape:collect="always"
       id="linearGradient11400">
      <stop
         style="stop-color:#92bf87;stop-opacity:1;"
         offset="0"
         id="stop11396" />
      <stop
         style="stop-color:#66875b;stop-opacity:1;"
         offset="1"
         id="stop11398" />
    </linearGradient>
    <linearGradient
       inkscape:collect="always"
       id="linearGradient10632">
      <stop
         style="stop-color:#e6e6e4;stop-opacity:1;"
         offset="0"
         id="stop10628" />
      <stop
         style="stop-color:#bcbcb9;stop-opacity:1;"
         offset="1"
         id="stop10630" />
    </linearGradient>
  </defs>
  <rect
     style="fill:url(#linearGradient986);fill-opacity:1;stroke-width:2.5;stroke-linecap:round;stroke-linejoin:round;stroke-dasharray:30, 2.5"
     id="rect846"
     width="15"
     height="20"
     x="5"
     y="2"
     ry="1" />
  <rect
     style="fill:url(#linearGradient1114);fill-opacity:1;stroke-width:1.354"
     id="rect960"
     width="11"
     height="4"
     x="7"
     y="3.9999998" />
  <rect
     style="fill:url(#linearGradient2162);fill-opacity:1;stroke-width:1.44913"
     id="rect473"
     width="3"
     height="7"
     x="15"
     y="13"
     ry="1.5" />
  <path
     id="path9349"
     style="fill:#4f4f4f;fill-opacity:1;stroke-width:0.428571;stroke-linecap:round"
     d="M 8.5,13 C 7.6715744,13 7,13.671575 7,14.5 7,15.328425 7.6715744,16 8.5,16 9.3284256,16 10,15.328425 10,14.5 10,13.671575 9.3284256,13 8.5,13 Z m 4,0 C 11.671575,13 11,13.671575 11,14.5 11,15.328425 11.671575,16 12.5,16 13.328426,16 14,15.328425 14,14.5 14,13.671575 13.328426,13 12.5,13 Z m -4,4 C 7.6715744,17 7,17.671575 7,18.5 7,19.328425 7.6715744,20 8.5,20 9.3284256,20 10,19.328425 10,18.5 10,17.671575 9.3284256,17 8.5,17 Z m 4,0 C 11.671575,17 11,17.671575 11,18.5 11,19.328425 11.671575,20 12.5,20 13.328426,20 14,19.328425 14,18.5 14,17.671575 13.328426,17 12.5,17 Z" />
  <path
     id="path8258"
     style="fill:#909090;fill-opacity:1;stroke-width:0.428571;stroke-linecap:round"
     d="m 8.4999999,9 c -0.8284271,0 -1.5,0.6715729 -1.5,1.5 0,0.828427 0.6715729,1.5 1.5,1.5 C 9.3284271,12 10,11.328427 10,10.5 10,9.6715728 9.3284271,8.9999999 8.4999999,9 Z M 12.5,9 c -0.828427,-2e-7 -1.5,0.6715728 -1.5,1.5 0,0.828427 0.671573,1.5 1.5,1.5 C 13.328427,12 14,11.328427 14,10.5 14,9.6715729 13.328427,9 12.5,9 Z m 4,0 C 15.671573,9 15,9.6715729 15,10.5 15,11.328427 15.671573,12 16.5,12 17.328427,12 18,11.328427 18,10.5 18,9.6715729 17.328427,9 16.5,9 Z"
     sodipodi:nodetypes="sssssssssssssss" />
</svg>
