<?xml version="1.0" encoding="UTF-8" standalone="no"?>
<!-- Created with Inkscape (http://www.inkscape.org/) -->

<svg
   width="24"
   height="24"
   viewBox="0 0 24 24"
   version="1.1"
   id="svg1659"
   inkscape:version="1.2.2 (1:1.2.2+202305151914+b0a8486541)"
   sodipodi:docname="gnome-sudoku.svg"
   xmlns:inkscape="http://www.inkscape.org/namespaces/inkscape"
   xmlns:sodipodi="http://sodipodi.sourceforge.net/DTD/sodipodi-0.dtd"
   xmlns="http://www.w3.org/2000/svg"
   xmlns:svg="http://www.w3.org/2000/svg">
  <sodipodi:namedview
     id="namedview1661"
     pagecolor="#ffffff"
     bordercolor="#000000"
     borderopacity="0.25"
     inkscape:showpageshadow="2"
     inkscape:pageopacity="0.0"
     inkscape:pagecheckerboard="0"
     inkscape:deskcolor="#d1d1d1"
     inkscape:document-units="px"
     showgrid="false"
     inkscape:zoom="33.583333"
     inkscape:cx="11.985112"
     inkscape:cy="12"
     inkscape:window-width="1920"
     inkscape:window-height="1008"
     inkscape:window-x="0"
     inkscape:window-y="0"
     inkscape:window-maximized="1"
     inkscape:current-layer="svg1659"
     showguides="false" />
  <defs
     id="defs1656" />
  <rect
     style="fill:#e1d3bb;fill-opacity:1;stroke-width:0.857143;stroke-linecap:round;stroke-linejoin:round"
     id="rect2238"
     width="21"
     height="21"
     x="2"
     y="2"
     ry="2" />
  <path
     id="rect2309"
     style="fill:#efe8db;fill-opacity:1;stroke-linecap:round;stroke-linejoin:round"
     d="m 16,2 v 7 h 7 V 4 C 23,2.8920011 22.107999,2 21,2 Z"
     sodipodi:nodetypes="cccssc" />
  <path
     id="rect2311"
     style="fill:#d8c4a4;fill-opacity:1;stroke-linecap:round;stroke-linejoin:round"
     d="M 4,2 C 2.8920017,2 2,2.8920022 2,4 V 9 H 9 V 2 Z m 5,7 v 7 h 7 V 9 Z m 7,7 v 7 h 5 c 1.107998,0 2,-0.892002 2,-2 v -5 z"
     sodipodi:nodetypes="sscccscccccccsscc" />
  <path
     id="rect2520"
     style="fill:#c7af87;fill-opacity:1;stroke-linecap:round;stroke-linejoin:round"
     d="m 2,9 v 7 H 9 V 9 Z m 7,7 v 7 h 7 v -7 z"
     sodipodi:nodetypes="cccccccccc" />
  <path
     id="rect2550"
     style="fill:#bda070;fill-opacity:1;stroke-linecap:round;stroke-linejoin:round"
     d="m 2,16 v 5 c 0,1.107999 0.8920011,2 2,2 h 5 v -7 z"
     sodipodi:nodetypes="cssccc" />
</svg>
