<?xml version="1.0" encoding="UTF-8" standalone="no"?>
<!-- Created with Inkscape (http://www.inkscape.org/) -->

<svg
   width="24"
   height="24"
   viewBox="0 0 24 24"
   version="1.1"
   id="svg5"
   inkscape:version="1.2.1 (9c6d41e410, 2022-07-14, custom)"
   sodipodi:docname="hwinfo.svg"
   xmlns:inkscape="http://www.inkscape.org/namespaces/inkscape"
   xmlns:sodipodi="http://sodipodi.sourceforge.net/DTD/sodipodi-0.dtd"
   xmlns:xlink="http://www.w3.org/1999/xlink"
   xmlns="http://www.w3.org/2000/svg"
   xmlns:svg="http://www.w3.org/2000/svg">
  <sodipodi:namedview
     id="namedview7"
     pagecolor="#ffffff"
     bordercolor="#666666"
     borderopacity="1.0"
     inkscape:pageshadow="2"
     inkscape:pageopacity="0.0"
     inkscape:pagecheckerboard="0"
     inkscape:document-units="px"
     showgrid="false"
     units="px"
     height="64px"
     inkscape:zoom="33.416667"
     inkscape:cx="12"
     inkscape:cy="12"
     inkscape:window-width="1920"
     inkscape:window-height="1011"
     inkscape:window-x="0"
     inkscape:window-y="0"
     inkscape:window-maximized="1"
     inkscape:current-layer="svg5"
     showguides="true"
     inkscape:showpageshadow="2"
     inkscape:deskcolor="#d1d1d1" />
  <defs
     id="defs2">
    <linearGradient
       inkscape:collect="always"
       id="linearGradient6911">
      <stop
         style="stop-color:#50b10e;stop-opacity:1;"
         offset="0"
         id="stop6907" />
      <stop
         style="stop-color:#18840f;stop-opacity:1"
         offset="1"
         id="stop6909" />
    </linearGradient>
    <linearGradient
       inkscape:collect="always"
       xlink:href="#linearGradient1192"
       id="linearGradient2262"
       x1="3.7041667"
       y1="0.79375005"
       x2="3.7041667"
       y2="6.6145835"
       gradientUnits="userSpaceOnUse"
       gradientTransform="matrix(2.4051539,0,0,2.4051539,3.090909,3.090909)" />
    <linearGradient
       inkscape:collect="always"
       xlink:href="#linearGradient6911"
       id="linearGradient885"
       x1="3"
       y1="5.1091437"
       x2="19"
       y2="21.109144"
       gradientUnits="userSpaceOnUse"
       gradientTransform="matrix(1.25,0,0,1.25,-1.7500007,-4.3864295)" />
    <linearGradient
       inkscape:collect="always"
       id="linearGradient1192">
      <stop
         style="stop-color:#189ae1;stop-opacity:1;"
         offset="0"
         id="stop1188" />
      <stop
         style="stop-color:#037cd6;stop-opacity:0.99607843"
         offset="1"
         id="stop1190" />
    </linearGradient>
  </defs>
  <rect
     style="fill:url(#linearGradient885);fill-opacity:1;stroke-width:1.25;stroke-linecap:round"
     id="rect300"
     width="20"
     height="20"
     x="2"
     y="2"
     ry="3" />
  <rect
     style="fill:url(#linearGradient2262);fill-opacity:1;stroke-width:0.375296;stroke-linecap:round;stroke-linejoin:round"
     id="rect1776"
     width="14"
     height="14"
     x="5"
     y="5"
     ry="1" />
  <path
     id="rect2038"
     style="opacity:0.2;fill:#000000;stroke-width:1;stroke-linecap:round;stroke-linejoin:round"
     d="M 6,5 C 5.446001,5 5,5.4460011 5,6 v 12 c 0,0.553999 0.446001,1 1,1 h 12 c 0.553998,0 1,-0.446001 1,-1 V 6 C 19,5.4460011 18.553998,5 18,5 Z M 6,6 H 18 V 18 H 6 Z"
     sodipodi:nodetypes="sssssssssccccc" />
  <path
     id="rect2368"
     style="opacity:1;fill:#edcb33;fill-opacity:1;stroke-width:1.99999;stroke-linecap:round;stroke-linejoin:round"
     d="m 20,18 v 2.000003 h -2 z"
     sodipodi:nodetypes="cccc" />
  <path
     id="path929"
     style="fill:#ffffff;stroke-width:0.14182;stroke-linecap:round;stroke-linejoin:round"
     d="m 12,7 c -0.552285,-1e-7 -1,0.4477153 -1,1.0000002 0,0.5522846 0.447715,1 1,1 0.552285,4e-7 1,-0.4477151 1,-1 C 13,7.4477152 12.552285,6.9999997 12,7 Z m 0,4 c -0.554,0 -1,0.446 -1,1 v 4 c 0,0.554 0.446,1 1,1 0.554,0 1,-0.446 1,-1 v -4 c 0,-0.554 -0.446,-1 -1,-1 z"
     sodipodi:nodetypes="ssssssssssss" />
</svg>
