<?xml version="1.0" encoding="UTF-8" standalone="no"?>
<!-- Created with Inkscape (http://www.inkscape.org/) -->

<svg
   width="24"
   height="24"
   viewBox="0 0 24 24"
   version="1.1"
   id="svg5"
   inkscape:version="1.2.1 (9c6d41e410, 2022-07-14, custom)"
   sodipodi:docname="libreoffice-calc.svg"
   xmlns:inkscape="http://www.inkscape.org/namespaces/inkscape"
   xmlns:sodipodi="http://sodipodi.sourceforge.net/DTD/sodipodi-0.dtd"
   xmlns:xlink="http://www.w3.org/1999/xlink"
   xmlns="http://www.w3.org/2000/svg"
   xmlns:svg="http://www.w3.org/2000/svg">
  <sodipodi:namedview
     id="namedview7"
     pagecolor="#ffffff"
     bordercolor="#666666"
     borderopacity="1.0"
     inkscape:pageshadow="2"
     inkscape:pageopacity="0.0"
     inkscape:pagecheckerboard="0"
     inkscape:document-units="px"
     showgrid="false"
     units="px"
     height="64px"
     inkscape:zoom="34.458333"
     inkscape:cx="11.98549"
     inkscape:cy="12"
     inkscape:window-width="1920"
     inkscape:window-height="1029"
     inkscape:window-x="0"
     inkscape:window-y="0"
     inkscape:window-maximized="1"
     inkscape:current-layer="svg5"
     inkscape:showpageshadow="2"
     inkscape:deskcolor="#d1d1d1" />
  <defs
     id="defs2">
    <linearGradient
       inkscape:collect="always"
       id="linearGradient3723">
      <stop
         style="stop-color:#369a26;stop-opacity:1"
         offset="0"
         id="stop3719" />
      <stop
         style="stop-color:#3fb12c;stop-opacity:1"
         offset="1"
         id="stop3721" />
    </linearGradient>
    <linearGradient
       inkscape:collect="always"
       id="linearGradient3529">
      <stop
         style="stop-color:#6ed85e;stop-opacity:1"
         offset="0"
         id="stop3525" />
      <stop
         style="stop-color:#41ba2f;stop-opacity:1"
         offset="1"
         id="stop3527" />
    </linearGradient>
    <linearGradient
       inkscape:collect="always"
       xlink:href="#linearGradient3723"
       id="linearGradient3212"
       x1="3.447747"
       y1="0.64509004"
       x2="2.7696862"
       y2="0"
       gradientUnits="userSpaceOnUse"
       gradientTransform="matrix(7.5591312,0,0,7.5591312,-5.5659066,2)" />
    <linearGradient
       inkscape:collect="always"
       xlink:href="#linearGradient3529"
       id="linearGradient3634"
       x1="2"
       y1="-1.3228346e-07"
       x2="10.000097"
       y2="10.000122"
       gradientUnits="userSpaceOnUse"
       gradientTransform="matrix(1.9999755,0,0,1.9999755,4.912e-5,2)" />
  </defs>
  <path
     id="rect857"
     style="fill:url(#linearGradient3634);fill-opacity:1;stroke-width:1.99997"
     d="M 5.9999754,2 C 4.891989,2 4,2.891989 4,3.9999754 V 20.000025 C 4,21.108008 4.891989,22 5.9999754,22 H 17.999634 c 1.107987,0 1.999975,-0.891992 1.999975,-1.999975 V 11.499768 C 20.02262,10.206515 19.266652,9.34067 18.601188,8.6007737 L 13.399225,3.3984205 C 12.65933,2.7329598 11.592299,2.0129385 10.00083,2 Z"
     sodipodi:nodetypes="ssssssccccs" />
  <path
     d="m 15.370515,2 c -1.213331,0.00999 -0.893592,1.1343034 -0.601571,1.3984515 l 4.26703,4.2872027 c 0.264145,0.2920256 1.388474,0.6117681 1.398452,-0.6015708 V 4.00002 C 20.434426,2.8920091 19.542417,2 18.434405,2 Z"
     style="fill:url(#linearGradient3212);fill-opacity:1;stroke-width:2.00002"
     id="path3058"
     sodipodi:nodetypes="ccccssc" />
  <path
     d="m 5.9999509,2.9999754 c -0.5539866,0 -0.9999755,0.4459889 -0.9999755,0.9999755 V 19.99956 c 0,0.553986 0.4459889,0.999974 0.9999755,0.999974 H 17.999658 c 0.553986,0 0.999975,-0.445988 0.999975,-0.999974 V 11.499378 C 18.99317,10.703653 18.633159,10.170144 18.300431,9.8002002 L 12.199409,3.699177 C 11.829465,3.3664506 11.295957,3.0064447 10.500232,2.9999754 Z"
     style="fill:#ffffff;fill-opacity:1;stroke-width:0.264576"
     id="path863"
     sodipodi:nodetypes="ssssssccccs" />
  <path
     id="rect67109"
     style="fill:#39a128;fill-opacity:1;stroke-width:1.63295;stroke-linecap:round;stroke-linejoin:round"
     d="m 16.999682,10.999781 v 7.999803 H 6.9999289 v -7.999803 z"
     sodipodi:nodetypes="ccccc" />
  <path
     id="rect67897"
     style="fill:#6ed85e;fill-opacity:1;stroke-width:1.99995;stroke-linecap:round;stroke-linejoin:round"
     d="M 16.999682,13.999707 V 10.99978 H 6.9999289 v 2.999927 z"
     sodipodi:nodetypes="ccccc" />
  <path
     id="rect68390"
     style="fill:#369a26;fill-opacity:1;stroke-width:1.53816;stroke-linecap:round;stroke-linejoin:round"
     d="m 6.9999267,16.99963 v 1.999951 H 16.999678 V 16.99963 Z"
     sodipodi:nodetypes="ccccc" />
  <path
     id="rect71991"
     style="fill:#3fb12c;fill-opacity:1;stroke-width:1.63295;stroke-linecap:round;stroke-linejoin:round"
     d="m 6.9999289,12.999732 h 9.9997491 v 1.999951 H 6.9999289 Z"
     sodipodi:nodetypes="ccccc" />
  <rect
     style="fill:#41ba2f;fill-opacity:1;stroke-width:0.757867;stroke-linecap:round;stroke-linejoin:round"
     id="rect76988"
     width="4.999876"
     height="1.9999467"
     x="6.9999323"
     y="14.999687" />
  <rect
     style="fill:#40b52d;fill-opacity:1;stroke-width:1.99995;stroke-linecap:round;stroke-linejoin:round"
     id="rect78784"
     height="1.9999508"
     x="11.999798"
     y="16.999634"
     width="4.9998779" />
  <path
     id="rect84235"
     style="fill:#47c931;fill-opacity:1;stroke-width:1.99995;stroke-linecap:round;stroke-linejoin:round"
     d="m 6.9999331,16.999634 v 1.999951 H 11.99981 v -1.999951 z"
     sodipodi:nodetypes="ccccc" />
</svg>
