<?xml version="1.0" encoding="UTF-8" standalone="no"?>
<!-- Created with Inkscape (http://www.inkscape.org/) -->

<svg
   width="24"
   height="24"
   viewBox="0 0 24 24"
   version="1.1"
   id="svg1015"
   inkscape:version="1.2.1 (9c6d41e410, 2022-07-14, custom)"
   sodipodi:docname="preferences-desktop-plasma.svg"
   xmlns:inkscape="http://www.inkscape.org/namespaces/inkscape"
   xmlns:sodipodi="http://sodipodi.sourceforge.net/DTD/sodipodi-0.dtd"
   xmlns:xlink="http://www.w3.org/1999/xlink"
   xmlns="http://www.w3.org/2000/svg"
   xmlns:svg="http://www.w3.org/2000/svg">
  <sodipodi:namedview
     id="namedview1017"
     pagecolor="#ffffff"
     bordercolor="#000000"
     borderopacity="0.25"
     inkscape:showpageshadow="2"
     inkscape:pageopacity="0.0"
     inkscape:pagecheckerboard="0"
     inkscape:deskcolor="#d1d1d1"
     inkscape:document-units="px"
     showgrid="false"
     inkscape:zoom="34.458333"
     inkscape:cx="11.230955"
     inkscape:cy="12.058041"
     inkscape:window-width="1920"
     inkscape:window-height="1012"
     inkscape:window-x="0"
     inkscape:window-y="0"
     inkscape:window-maximized="1"
     inkscape:current-layer="svg1015" />
  <defs
     id="defs1012">
    <linearGradient
       inkscape:collect="always"
       xlink:href="#linearGradient11972"
       id="linearGradient1924"
       x1="0.5291667"
       y1="1.5875"
       x2="10.349433"
       y2="9.1792202"
       gradientUnits="userSpaceOnUse"
       gradientTransform="matrix(1.8897638,0,0,1.8897638,1,1)" />
    <linearGradient
       inkscape:collect="always"
       id="linearGradient11972">
      <stop
         style="stop-color:#37d4e1;stop-opacity:1"
         offset="0"
         id="stop11968" />
      <stop
         style="stop-color:#086ebd;stop-opacity:1"
         offset="1"
         id="stop11970" />
    </linearGradient>
    <linearGradient
       inkscape:collect="always"
       xlink:href="#linearGradient1591"
       id="linearGradient3295"
       x1="4.7077208e-07"
       y1="4.3656249"
       x2="5.291667"
       y2="4.3656249"
       gradientUnits="userSpaceOnUse"
       gradientTransform="matrix(3.7795275,0,0,3.7795275,1.9999999,1.9999999)" />
    <linearGradient
       inkscape:collect="always"
       id="linearGradient1591">
      <stop
         style="stop-color:#0f4f68;stop-opacity:1;"
         offset="0"
         id="stop1587" />
      <stop
         style="stop-color:#03355e;stop-opacity:1"
         offset="1"
         id="stop1589" />
    </linearGradient>
  </defs>
  <rect
     style="fill:url(#linearGradient1924);fill-opacity:1;stroke-width:1.5;stroke-linecap:round;stroke-linejoin:round"
     id="rect1836"
     width="20"
     height="16"
     x="2"
     y="4"
     ry="1" />
  <path
     id="rect1409"
     style="fill:url(#linearGradient3295);fill-opacity:1;stroke-width:1.02744;stroke-linecap:round;stroke-linejoin:round"
     d="m 22.000001,17 v 1.999999 c 0,0.553999 -0.446001,1 -1,1 H 3.0000017 c -0.554,0 -1.0000001,-0.446001 -1.0000001,-1 V 17 Z"
     sodipodi:nodetypes="csssscc" />
  <path
     id="path1218"
     style="fill:#ffffff;fill-opacity:1;stroke-width:1.28572;stroke-linecap:round;stroke-linejoin:round;opacity:0.8"
     d="m 9,5.0000004 a 1.0000001,1.0000001 0 0 0 -1,1 1.0000001,1.0000001 0 0 0 1,1 1.0000001,1.0000001 0 0 0 1,-1 1.0000001,1.0000001 0 0 0 -1,-1 z m 5.249999,0 -1.517578,1.517578 2.238281,2.232422 -2.238281,2.2363276 1.517578,1.513672 2.236328,-2.232421 1.513671,-1.5175786 -1.513671,-1.513672 z m -6.749999,4 A 1.5,1.5 0 0 0 6,10.5 1.5,1.5 0 0 0 7.5,12 1.5,1.5 0 0 0 9,10.5 1.5,1.5 0 0 0 7.5,9.0000004 Z M 10.999999,13 A 2.0000001,2.0000001 0 0 0 9,15 a 2.0000001,2.0000001 0 0 0 1.999999,2 2.0000001,2.0000001 0 0 0 2,-2 2.0000001,2.0000001 0 0 0 -2,-2 z" />
</svg>
