<?xml version="1.0" encoding="UTF-8" standalone="no"?>
<!-- Created with Inkscape (http://www.inkscape.org/) -->

<svg
   width="24"
   height="24"
   viewBox="0 0 24 24"
   version="1.1"
   id="svg69118"
   inkscape:version="1.2.1 (9c6d41e410, 2022-07-14, custom)"
   sodipodi:docname="preferences-desktop-locale.svg"
   xmlns:inkscape="http://www.inkscape.org/namespaces/inkscape"
   xmlns:sodipodi="http://sodipodi.sourceforge.net/DTD/sodipodi-0.dtd"
   xmlns:xlink="http://www.w3.org/1999/xlink"
   xmlns="http://www.w3.org/2000/svg"
   xmlns:svg="http://www.w3.org/2000/svg">
  <sodipodi:namedview
     id="namedview69120"
     pagecolor="#ffffff"
     bordercolor="#666666"
     borderopacity="1.0"
     inkscape:pageshadow="2"
     inkscape:pageopacity="0.0"
     inkscape:pagecheckerboard="0"
     inkscape:document-units="px"
     showgrid="false"
     units="px"
     inkscape:zoom="33.75"
     inkscape:cx="12"
     inkscape:cy="12"
     inkscape:window-width="1920"
     inkscape:window-height="1012"
     inkscape:window-x="0"
     inkscape:window-y="0"
     inkscape:window-maximized="1"
     inkscape:current-layer="svg69118"
     inkscape:showpageshadow="2"
     inkscape:deskcolor="#d1d1d1"
     showguides="false" />
  <defs
     id="defs69115">
    <linearGradient
       inkscape:collect="always"
       id="linearGradient3605">
      <stop
         style="stop-color:#0d6eaa;stop-opacity:1;"
         offset="0"
         id="stop3601" />
      <stop
         style="stop-color:#185086;stop-opacity:1"
         offset="1"
         id="stop3603" />
    </linearGradient>
    <linearGradient
       inkscape:collect="always"
       id="linearGradient1014">
      <stop
         style="stop-color:#33bff0;stop-opacity:1"
         offset="0"
         id="stop1010" />
      <stop
         style="stop-color:#1c9fe3;stop-opacity:1"
         offset="1"
         id="stop1012" />
    </linearGradient>
    <linearGradient
       inkscape:collect="always"
       xlink:href="#linearGradient3605"
       id="linearGradient1697"
       x1="12.500001"
       y1="4.0001912"
       x2="16"
       y2="13"
       gradientUnits="userSpaceOnUse"
       gradientTransform="translate(4.9999997,4)" />
    <linearGradient
       inkscape:collect="always"
       xlink:href="#linearGradient1014"
       id="linearGradient1705"
       x1="7.2109375"
       y1="7.4824219"
       x2="10.197266"
       y2="15.986328"
       gradientUnits="userSpaceOnUse"
       gradientTransform="translate(4.4732487,5.9831758)" />
    <linearGradient
       inkscape:collect="always"
       xlink:href="#linearGradient984"
       id="linearGradient7450"
       x1="13.809379"
       y1="13.973848"
       x2="2.3889806"
       y2="3.7831419"
       gradientUnits="userSpaceOnUse"
       gradientTransform="matrix(0.91229978,0,0,0.91229978,1.275862,1.2758655)" />
    <linearGradient
       inkscape:collect="always"
       id="linearGradient984">
      <stop
         style="stop-color:#117bb9;stop-opacity:1;"
         offset="0"
         id="stop980" />
      <stop
         style="stop-color:#15b393;stop-opacity:1"
         offset="1"
         id="stop982" />
    </linearGradient>
  </defs>
  <circle
     style="fill:url(#linearGradient7450);fill-opacity:1;stroke-width:1.02784;stroke-linecap:round;stroke-linejoin:round"
     id="path7362"
     cx="9"
     cy="9.0000019"
     r="7" />
  <path
     id="path11084"
     style="opacity:0.3;fill:#ffffff;stroke-width:1.1547;stroke-linecap:round;stroke-linejoin:round"
     d="m 9,2 a 3,7 0 0 1 2.708984,4 H 6.2929688 A 3,7 0 0 1 9,2 Z M 9,2 A 7,7 0 0 0 6.7734375,2.3769531 4,8 0 0 0 5.2949219,6 H 2.6835937 A 7,7 0 0 0 2.2929687,7 H 5.1289062 A 4,8 0 0 0 5,9 4,8 0 0 0 5.1289062,11 H 2.2929687 a 7,7 0 0 0 0.390625,1 H 5.2949219 A 4,8 0 0 0 6.7734375,15.623047 7,7 0 0 0 9,16 3,7 0 0 1 6.2929688,12 H 11.707031 A 3,7 0 0 1 9,16 7,7 0 0 0 11.226563,15.623047 4,8 0 0 0 12.705078,12 h 2.611328 a 7,7 0 0 0 0.390625,-1 H 12.871094 A 4,8 0 0 0 13,9 4,8 0 0 0 12.871094,7 h 2.835937 A 7,7 0 0 0 15.324219,6 H 12.707031 A 4,8 0 0 0 11.216797,2.3632812 7,7 0 0 0 9,2 Z M 6.125,7 h 5.75 A 3,7 0 0 1 12,9 3,7 0 0 1 11.875,11 H 6.125 A 3,7 0 0 1 6,9 3,7 0 0 1 6.125,7 Z" />
  <path
     id="rect294"
     style="fill:url(#linearGradient1697);fill-opacity:1;stroke-width:2.64575;stroke-linecap:round;stroke-linejoin:round"
     d="M 17.474609,8.0001913 C 17.209696,8.0135333 17,8.2318481 17,8.5001913 v 0.5 h -3.474305 c -0.0085,-4.304e-4 -0.01673,0 -0.02539,0 -0.276999,0 -0.5,0.2230006 -0.5,0.5 v 0.9999997 c 0,0.277 0.223001,0.5 0.5,0.5 0.277,0 0.5,-0.223 0.5,-0.5 v -0.5 H 21 v 0.5 c 0,0.277 0.223001,0.5 0.5,0.5 0.276998,0 0.5,-0.223 0.5,-0.5 V 9.5001913 c 0,-0.268356 -0.209679,-0.4866768 -0.47461,-0.5 -0.0085,-4.304e-4 -0.01673,0 -0.02539,0 H 18 v -0.5 c 0,-0.2769994 -0.223001,-0.5 -0.5,-0.5 -0.0087,0 -0.01685,-4.304e-4 -0.02539,0 z m -1.974304,2.9999997 c -0.276142,0 -0.5,0.223859 -0.5,0.5 0,0.276142 0.223858,0.5 0.5,0.5 h 2.749609 l -1.050695,1.999904 h -2.673524 -0.02539 c -0.276142,0 -0.5,0.223858 -0.5,0.5 0,0.276142 0.223858,0.499999 0.5,0.499999 h 2.499696 v 1.999809 h -0.47461 c -0.0085,-2.15e-4 -0.01693,-2.15e-4 -0.02539,0 -0.276142,0 -0.5,0.223858 -0.5,0.5 0,0.276142 0.223858,0.5 0.5,0.5 h 0.5 c 0.553997,0 1,-0.446003 1,-1 v -1.999809 h 2.5 C 20.776143,15.000094 21,14.776237 21,14.500095 c 0,-0.276142 -0.223857,-0.5 -0.499999,-0.5 h -2.13672 l 1.212805,-2.454982 c 0.135818,-0.252029 0.08845,-0.544922 -0.326172,-0.544922 h -3.724219 c -0.0085,-2.15e-4 -0.01693,-2.15e-4 -0.02539,0 z"
     sodipodi:nodetypes="ssccsssssccsssssscsssscsscccsssccccsssscsssccscc" />
  <path
     id="rect855"
     style="fill:url(#linearGradient1705);fill-opacity:1;stroke-linecap:round;stroke-linejoin:round"
     d="m 11.684187,13.465596 c -0.19464,0.0097 -0.372306,0.132904 -0.443361,0.328125 l -2.7363276,7.517578 c -0.09474,0.260294 0.03853,0.545886 0.298828,0.640625 0.260295,0.09474 0.545886,-0.03853 0.640625,-0.298828 l 0.9707026,-2.669922 h 2.63672 l 0.978516,2.6875 c 0.09474,0.260295 0.38033,0.393567 0.640625,0.298828 0.260293,-0.09474 0.393567,-0.38033 0.298828,-0.640625 l -2.736328,-7.517578 c -0.05801,-0.159378 -0.188282,-0.271546 -0.339844,-0.3125 -0.0031,-8.49e-4 -0.0066,-0.0012 -0.0098,-0.0019 l -0.002,-0.002 c -0.06507,-0.02369 -0.132385,-0.03254 -0.197264,-0.0293 z m 0.04883,1.896484 0.955078,2.621094 h -1.908206 z" />
</svg>
