<?xml version="1.0" encoding="UTF-8" standalone="no"?>
<!-- Created with Inkscape (http://www.inkscape.org/) -->

<svg
   width="24"
   height="24"
   viewBox="0 0 24 24.000001"
   version="1.1"
   id="svg5"
   inkscape:version="1.2.1 (9c6d41e410, 2022-07-14, custom)"
   sodipodi:docname="preferences-system-windows.svg"
   xmlns:inkscape="http://www.inkscape.org/namespaces/inkscape"
   xmlns:sodipodi="http://sodipodi.sourceforge.net/DTD/sodipodi-0.dtd"
   xmlns="http://www.w3.org/2000/svg"
   xmlns:svg="http://www.w3.org/2000/svg">
  <sodipodi:namedview
     id="namedview7"
     pagecolor="#ffffff"
     bordercolor="#000000"
     borderopacity="0.25"
     inkscape:showpageshadow="2"
     inkscape:pageopacity="0.0"
     inkscape:pagecheckerboard="0"
     inkscape:deskcolor="#d1d1d1"
     inkscape:document-units="px"
     showgrid="false"
     inkscape:zoom="33.416667"
     inkscape:cx="12"
     inkscape:cy="12"
     inkscape:window-width="1920"
     inkscape:window-height="1011"
     inkscape:window-x="0"
     inkscape:window-y="0"
     inkscape:window-maximized="1"
     inkscape:current-layer="svg5"
     showguides="false" />
  <defs
     id="defs2" />
  <rect
     style="fill:#797774;stroke-linecap:round;stroke-linejoin:round"
     id="rect421"
     width="18"
     height="14"
     x="4"
     y="3"
     ry="2" />
  <path
     d="M 6.0000003,6 H 19.999999 c 0.554,0 1,0.4460001 1,0.9999998 v 8.0000012 c 0,0.553999 -0.446,0.999998 -1,0.999998 H 6.0000003 c -0.5539998,0 -0.9999998,-0.445999 -0.9999998,-0.999998 V 6.9999998 C 5.0000005,6.4460001 5.4460005,6 6.0000003,6 Z"
     style="fill:#fafafa;fill-opacity:1;stroke-width:3;stroke-linecap:round;stroke-linejoin:round"
     id="path431" />
  <path
     d="m 15,4 v 0.9999998 h 1 V 4 Z m 2,0 v 0.9999998 h 1 V 4 Z m 2,0 v 0.9999998 h 1 V 4 Z"
     style="fill:#c4c4c4;fill-opacity:1;stroke-width:1.5;stroke-linecap:round;stroke-linejoin:round"
     id="path464" />
  <rect
     style="fill:#797774;fill-opacity:1;stroke:none;stroke-width:0.368024;stroke-linecap:round;stroke-linejoin:round"
     id="rect261617"
     width="18"
     height="14"
     x="2"
     y="7"
     ry="2" />
  <path
     id="rect1043"
     style="fill:#fafafa;fill-opacity:1;stroke-width:3;stroke-linecap:round;stroke-linejoin:round"
     d="M 3.9999996,10 H 17.999999 c 0.554,0 1,0.446 1,1 v 8 c 0,0.553999 -0.446,0.999998 -1,0.999998 H 3.9999996 C 3.4459998,19.999998 2.9999998,19.553999 2.9999998,19 v -8 c 0,-0.554 0.446,-1 0.9999998,-1 z"
     sodipodi:nodetypes="sssssssss" />
  <path
     id="rect1066"
     style="fill:#c4c4c4;fill-opacity:1;stroke-width:1.5;stroke-linecap:round;stroke-linejoin:round"
     d="m 12.999999,8 v 0.9999998 h 1 V 8 Z m 2,0 v 0.9999998 h 1 V 8 Z m 2,0 v 0.9999998 h 1 V 8 Z"
     sodipodi:nodetypes="ccccccccccccccc" />
</svg>
