<?xml version="1.0" encoding="UTF-8" standalone="no"?>
<svg
   width="24"
   height="24"
   version="1.1"
   viewBox="0 0 24 24"
   id="svg6"
   sodipodi:docname="preferences-system-backup.svg"
   inkscape:version="1.2.2 (1:1.2.2+202305151914+b0a8486541)"
   xmlns:inkscape="http://www.inkscape.org/namespaces/inkscape"
   xmlns:sodipodi="http://sodipodi.sourceforge.net/DTD/sodipodi-0.dtd"
   xmlns:xlink="http://www.w3.org/1999/xlink"
   xmlns="http://www.w3.org/2000/svg"
   xmlns:svg="http://www.w3.org/2000/svg"
   xmlns:rdf="http://www.w3.org/1999/02/22-rdf-syntax-ns#"
   xmlns:cc="http://creativecommons.org/ns#"
   xmlns:dc="http://purl.org/dc/elements/1.1/">
  <defs
     id="defs10">
    <linearGradient
       inkscape:collect="always"
       id="linearGradient58462">
      <stop
         style="stop-color:#636363;stop-opacity:1;"
         offset="0"
         id="stop58458" />
      <stop
         style="stop-color:#ababab;stop-opacity:0.99607843"
         offset="1"
         id="stop58460" />
    </linearGradient>
    <linearGradient
       inkscape:collect="always"
       id="linearGradient50927">
      <stop
         style="stop-color:#000000;stop-opacity:1;"
         offset="0"
         id="stop50923" />
      <stop
         style="stop-color:#000000;stop-opacity:0;"
         offset="1"
         id="stop50925" />
    </linearGradient>
    <linearGradient
       inkscape:collect="always"
       id="linearGradient48004">
      <stop
         style="stop-color:#ffffff;stop-opacity:0"
         offset="0"
         id="stop48000" />
      <stop
         style="stop-color:#ffffff;stop-opacity:1"
         offset="0.50032598"
         id="stop48328" />
      <stop
         style="stop-color:#ffffff;stop-opacity:0;"
         offset="1"
         id="stop48002" />
    </linearGradient>
    <linearGradient
       inkscape:collect="always"
       id="linearGradient10484">
      <stop
         style="stop-color:#2e2e2e;stop-opacity:1;"
         offset="0"
         id="stop10480" />
      <stop
         style="stop-color:#616161;stop-opacity:1"
         offset="1"
         id="stop10482" />
    </linearGradient>
    <linearGradient
       inkscape:collect="always"
       xlink:href="#linearGradient48004"
       id="linearGradient1287"
       x1="5.5561409"
       y1="4.497828"
       x2="6.6144533"
       y2="3.4395156"
       gradientUnits="userSpaceOnUse"
       gradientTransform="matrix(3.779602,0,0,3.779602,0,5.0000002)" />
    <linearGradient
       inkscape:collect="always"
       xlink:href="#linearGradient58462"
       id="linearGradient1616"
       x1="6.0852971"
       y1="1.8520468"
       x2="6.0852971"
       y2="3.9686718"
       gradientUnits="userSpaceOnUse"
       gradientTransform="matrix(3.779602,0,0,3.779602,0,5.0000002)" />
    <linearGradient
       inkscape:collect="always"
       xlink:href="#linearGradient48004"
       id="linearGradient1886"
       x1="-0.2645781"
       y1="3.4395156"
       x2="0.79373461"
       y2="4.497828"
       gradientUnits="userSpaceOnUse"
       gradientTransform="matrix(3.779602,0,0,3.779602,0,5.0000002)" />
    <linearGradient
       inkscape:collect="always"
       xlink:href="#linearGradient10484"
       id="linearGradient2337"
       x1="5.8207188"
       y1="1.8520468"
       x2="5.820322"
       y2="3.4402168"
       gradientUnits="userSpaceOnUse"
       gradientTransform="matrix(3.779602,0,0,3.779602,0,5.0000002)" />
    <linearGradient
       inkscape:collect="always"
       xlink:href="#linearGradient50927"
       id="linearGradient7996"
       x1="6.1514416"
       y1="1.5874687"
       x2="5.7176604"
       y2="1.970152"
       gradientUnits="userSpaceOnUse"
       gradientTransform="matrix(3.779602,0,0,3.779602,0,5.0000002)" />
    <linearGradient
       inkscape:collect="always"
       xlink:href="#linearGradient50927"
       id="linearGradient9665"
       x1="0.42189243"
       y1="1.5634823"
       x2="0.80732602"
       y2="1.8611001"
       gradientUnits="userSpaceOnUse"
       gradientTransform="matrix(3.779602,0,0,3.779602,0,5.0000002)" />
    <linearGradient
       inkscape:collect="always"
       xlink:href="#linearGradient1611"
       id="linearGradient1109"
       x1="1.8368058"
       y1="2.3578029"
       x2="1.8673608"
       y2="5.5564623"
       gradientUnits="userSpaceOnUse"
       gradientTransform="matrix(3.464567,0,0,3.464567,10.083332,-4.249808)" />
    <linearGradient
       inkscape:collect="always"
       id="linearGradient1611">
      <stop
         style="stop-color:#9ca3a8;stop-opacity:1;"
         offset="0"
         id="stop1607" />
      <stop
         style="stop-color:#63737d;stop-opacity:1"
         offset="1"
         id="stop1609" />
    </linearGradient>
    <linearGradient
       inkscape:collect="always"
       xlink:href="#linearGradient3161"
       id="linearGradient3163"
       x1="8.4666662"
       y1="15.345833"
       x2="8.4666662"
       y2="1.5874995"
       gradientUnits="userSpaceOnUse"
       gradientTransform="matrix(0.65414902,0,0,0.65414902,10.961531,3.9617096)" />
    <linearGradient
       inkscape:collect="always"
       id="linearGradient3161">
      <stop
         style="stop-color:#c7ccd1;stop-opacity:1;"
         offset="0"
         id="stop3157" />
      <stop
         style="stop-color:#fdfdfd;stop-opacity:1"
         offset="1"
         id="stop3159" />
    </linearGradient>
    <linearGradient
       inkscape:collect="always"
       xlink:href="#linearGradient2190"
       id="linearGradient2316"
       x1="3.1748869"
       y1="1.0582619"
       x2="5.489996"
       y2="3.9686718"
       gradientUnits="userSpaceOnUse"
       gradientTransform="matrix(3.779602,0,0,3.779602,-6.3657837e-7,1.9115556e-4)" />
    <linearGradient
       inkscape:collect="always"
       id="linearGradient2190">
      <stop
         style="stop-color:#37c837;stop-opacity:1;"
         offset="0"
         id="stop2186" />
      <stop
         style="stop-color:#289028;stop-opacity:0.99993783"
         offset="1"
         id="stop2188" />
    </linearGradient>
  </defs>
  <sodipodi:namedview
     id="namedview8"
     pagecolor="#ffffff"
     bordercolor="#666666"
     borderopacity="1.0"
     inkscape:pageshadow="2"
     inkscape:pageopacity="0.0"
     inkscape:pagecheckerboard="0"
     showgrid="false"
     inkscape:zoom="33.583333"
     inkscape:cx="11.985112"
     inkscape:cy="12"
     inkscape:window-width="1920"
     inkscape:window-height="1008"
     inkscape:window-x="0"
     inkscape:window-y="0"
     inkscape:window-maximized="1"
     inkscape:current-layer="svg6"
     inkscape:showpageshadow="2"
     inkscape:deskcolor="#d1d1d1" />
  <metadata
     id="metadata2">
    <rdf:RDF>
      <cc:Work
         rdf:about="">
        <dc:format>image/svg+xml</dc:format>
        <dc:type
           rdf:resource="http://purl.org/dc/dcmitype/StillImage" />
      </cc:Work>
    </rdf:RDF>
  </metadata>
  <path
     id="rect2936"
     style="opacity:1;fill:#e1e3e6;stroke-width:1;stroke-linecap:round;stroke-linejoin:round"
     d="m 6.0000003,7 c -4e-7,0 -3.1847562,3.548882 -4.7500003,5.375 0,0 0.6419999,2.625 1.7499999,2.625 H 21 c 1.108,0 1.749999,-2.625 1.749999,-2.625 L 18,7 Z"
     sodipodi:nodetypes="ccccccc" />
  <path
     d="m 5.9999999,7 c 0,0 -3.1847562,3.548882 -4.7500001,5.375 0,0 0.6419997,2.625 1.7499999,2.625 H 21 c 1.108,0 1.75,-2.625 1.75,-2.625 L 18,7 Z"
     style="opacity:0.3;fill:url(#linearGradient9665);fill-opacity:1;stroke-width:1;stroke-linecap:round;stroke-linejoin:round"
     id="path9568" />
  <path
     d="m 5.9999999,7 -4.75,5.375 c 0,0 0.642,2.625 1.7499999,2.625 H 21 c 1.108,0 1.75,-2.625 1.75,-2.625 L 18,7 Z"
     style="opacity:0.3;fill:url(#linearGradient7996);fill-opacity:1;stroke-width:1;stroke-linecap:round;stroke-linejoin:round"
     id="path7862"
     sodipodi:nodetypes="ccssccc" />
  <rect
     style="fill:url(#linearGradient1616);fill-opacity:1;stroke-width:1;stroke-linecap:round;stroke-linejoin:round"
     id="rect1153"
     width="22"
     height="7"
     x="1"
     y="12"
     ry="1" />
  <rect
     style="opacity:0.4;fill:url(#linearGradient1287);fill-opacity:1;stroke-width:1;stroke-linecap:round;stroke-linejoin:round"
     id="rect1257"
     width="22"
     height="7"
     x="1"
     y="12"
     ry="1" />
  <rect
     style="opacity:0.4;fill:url(#linearGradient1886);fill-opacity:1;stroke-width:1;stroke-linecap:round;stroke-linejoin:round"
     id="rect1878"
     width="22"
     height="7"
     x="1"
     y="12"
     ry="1" />
  <path
     id="rect2212"
     style="opacity:1;fill:url(#linearGradient2337);stroke-width:1;stroke-linecap:round;stroke-linejoin:round"
     d="m 22,12 v 5 c 0,0.554 -0.446,1 -1,1 H 3.0000001 c -0.554,0 -1,-0.446 -1,-1 v -5 z"
     sodipodi:nodetypes="csssscc" />
  <circle
     style="fill:#12ff12;fill-opacity:1;stroke-width:0.800002;stroke-linecap:round;stroke-linejoin:round;stroke-dasharray:9.6, 0.800002"
     id="path30449"
     cx="5"
     cy="15"
     r="1" />
  <g
     id="g819"
     transform="translate(1.9999995,0.99999996)">
    <circle
       style="fill:url(#linearGradient1109);fill-opacity:1;stroke-width:0.343751;stroke-linejoin:round"
       id="path1021"
       cx="16.5"
       cy="9.5001907"
       r="5.4999995" />
    <circle
       style="fill:url(#linearGradient3163);fill-opacity:1;stroke-width:0.173077"
       id="path2899"
       cx="16.5"
       cy="9.5001926"
       r="4.5" />
    <path
       id="rect1636"
       style="fill:#444444;fill-opacity:1;stroke-width:0.5;stroke-linejoin:round"
       d="m 16.474608,6.000193 c -0.264916,0.013342 -0.474609,0.2316555 -0.474609,0.4999997 v 2.9746092 c -4.3e-4,0.0085 0,0.016744 0,0.025399 0,0.2769995 0.223,0.5000001 0.5,0.5000001 h 0.0254 2.97461 c 0.276999,10e-7 0.5,-0.2230006 0.5,-0.4999993 0,-0.2769995 -0.223,-0.4999998 -0.5,-0.4999998 h -2.50001 V 6.5001927 c 0,-0.2769994 -0.223001,-0.4999997 -0.5,-0.4999997 -0.0087,0 -0.01686,-4.302e-4 -0.0254,0 z" />
    <path
       id="path1290"
       style="color:#000000;fill:url(#linearGradient2316);fill-opacity:1;stroke:none;stroke-width:3.7796;stroke-linecap:round;stroke-linejoin:round"
       d="M 12.474609,4.0001912 C 12.209693,4.0135332 12,4.2318468 12,4.5001914 v 1.9746092 c -4.3e-4,0.0085 0,0.016744 0,0.025399 0,0.2769995 0.223,0.5000002 0.5,0.5000002 h 0.0254 1.974609 c 0.277,1.1e-6 0.5,-0.2230003 0.5,-0.5000002 0,-0.2769994 -0.223,-0.5000001 -0.5,-0.5000001 h -0.828133 c 1.27152,-1.0280472 3.012223,-1.2919319 4.546875,-0.6562584 1.682858,0.697063 2.783203,2.3347373 2.783203,4.1562503 0,1.8215116 -1.100345,3.4591866 -2.783203,4.1562496 -1.682859,0.697062 -3.61434,0.313392 -4.902344,-0.974609 a 0.50000003,0.50000003 0 0 0 -0.707031,0 0.50000003,0.50000003 0 0 0 0,0.708984 c 1.57197,1.57197 3.940262,2.040197 5.99414,1.189453 2.053879,-0.850745 3.394531,-2.856976 3.394531,-5.0800776 0,-2.2231021 -1.340652,-4.2273809 -3.394531,-5.078125 C 16.713575,3.6392274 14.556971,3.9730783 13,5.2560506 V 4.5001914 c 0,-0.2769995 -0.223001,-0.5000002 -0.5,-0.5000002 -0.0087,0 -0.01686,-4.301e-4 -0.0254,0 z" />
  </g>
</svg>
