<?xml version="1.0" encoding="UTF-8" standalone="no"?>
<svg
   width="24"
   height="24"
   viewBox="0 0 24 24"
   version="1.1"
   id="svg1886"
   inkscape:version="1.2.1 (9c6d41e410, 2022-07-14, custom)"
   sodipodi:docname="utilities-system-monitor.svg"
   xmlns:inkscape="http://www.inkscape.org/namespaces/inkscape"
   xmlns:sodipodi="http://sodipodi.sourceforge.net/DTD/sodipodi-0.dtd"
   xmlns:xlink="http://www.w3.org/1999/xlink"
   xmlns="http://www.w3.org/2000/svg"
   xmlns:svg="http://www.w3.org/2000/svg"
   xmlns:rdf="http://www.w3.org/1999/02/22-rdf-syntax-ns#"
   xmlns:cc="http://creativecommons.org/ns#"
   xmlns:dc="http://purl.org/dc/elements/1.1/">
  <defs
     id="defs1880">
    <linearGradient
       id="linearGradient873"
       x1="-48.646"
       x2="-32.771999"
       y1="-3.0915"
       y2="9.5740004"
       gradientTransform="matrix(1,0,0,0.91665,49.175,7.5514)"
       gradientUnits="userSpaceOnUse">
      <stop
         offset="0"
         id="stop2"
         style="stop-color:#b6c1cb;stop-opacity:1" />
      <stop
         offset="1"
         id="stop4"
         style="stop-color:#8e979e;stop-opacity:1" />
    </linearGradient>
    <linearGradient
       inkscape:collect="always"
       xlink:href="#linearGradient13610"
       id="linearGradient13612"
       x1="15.420015"
       y1="5.2335482"
       x2="15.345531"
       y2="13.761695"
       gradientUnits="userSpaceOnUse"
       gradientTransform="matrix(1.3083237,0,0,1.3083237,0.9230771,0.6090824)" />
    <linearGradient
       inkscape:collect="always"
       id="linearGradient13610">
      <stop
         style="stop-color:#0e7fd5;stop-opacity:1;"
         offset="0"
         id="stop13606" />
      <stop
         style="stop-color:#0e7fd5;stop-opacity:0;"
         offset="1"
         id="stop13608" />
    </linearGradient>
    <linearGradient
       inkscape:collect="always"
       xlink:href="#linearGradient873"
       id="linearGradient1265"
       x1="4.49786"
       y1="0.79373997"
       x2="4.49786"
       y2="5.02702"
       gradientUnits="userSpaceOnUse"
       gradientTransform="matrix(3.779575,0,0,3.779575,0.9999999,1.0000001)" />
  </defs>
  <sodipodi:namedview
     id="base"
     pagecolor="#ffffff"
     bordercolor="#666666"
     borderopacity="1.0"
     inkscape:pageopacity="0.0"
     inkscape:pageshadow="2"
     inkscape:zoom="34.458333"
     inkscape:cx="10.273277"
     inkscape:cy="12"
     inkscape:document-units="px"
     inkscape:current-layer="svg1886"
     inkscape:document-rotation="0"
     showgrid="false"
     units="px"
     inkscape:window-width="1920"
     inkscape:window-height="1029"
     inkscape:window-x="0"
     inkscape:window-y="0"
     inkscape:window-maximized="1"
     inkscape:pagecheckerboard="0"
     showguides="false"
     inkscape:showpageshadow="2"
     inkscape:deskcolor="#d1d1d1" />
  <metadata
     id="metadata1883">
    <rdf:RDF>
      <cc:Work
         rdf:about="">
        <dc:format>image/svg+xml</dc:format>
        <dc:type
           rdf:resource="http://purl.org/dc/dcmitype/StillImage" />
      </cc:Work>
    </rdf:RDF>
  </metadata>
  <rect
     style="fill:url(#linearGradient1265);fill-opacity:1;stroke-width:1;stroke-linecap:round;stroke-linejoin:round"
     id="rect1056"
     width="20"
     height="16"
     x="2"
     y="4"
     ry="2" />
  <rect
     style="fill:#edeff1;fill-opacity:1;stroke:none;stroke-width:1.28571;stroke-linecap:butt;stroke-linejoin:round"
     id="rect14176"
     width="17.999998"
     height="13.999999"
     x="3.0000002"
     y="5"
     ry="1" />
  <path
     id="rect3612"
     style="opacity:0.5;fill:url(#linearGradient13612);fill-opacity:1;stroke-width:0.692309;stroke-linecap:round;stroke-linejoin:round"
     d="m 8.1308592,10.263672 -0.6347656,3.816405 a 0.50004998,0.50004998 0 0 1 -0.1406267,0.273438 l -1.0039046,0.996093 a 0.50004998,0.50004998 0 0 1 -0.5761721,0.09766 L 3.878906,14.501952 H 2.9999998 v 4.498047 H 20.999999 v -4.673827 h -0.002 v 0.17578 h -1.498 a 0.50004998,0.50004998 0 0 1 -0.376953,-0.169921 l -1.033203,-1.189453 -1.181641,0.398438 a 0.50004998,0.50004998 0 0 1 -0.642577,-0.337891 l -0.257814,-0.916016 -0.257812,2.761718 a 0.50004998,0.50004998 0 0 1 -0.177734,0.332032 l -1.75,1.498046 A 0.50004998,0.50004998 0 0 1 13.033202,16.6875 L 11.164062,12 H 9.0019526 A 0.50004998,0.50004998 0 0 1 8.521484,11.636719 Z" />
  <path
     style="color:#000000;fill:#0e7fd5;fill-opacity:1;stroke-width:3.77958;stroke-linejoin:round;-inkscape-stroke:none"
     d="M 7.9685915,7.5035264 A 0.50004998,0.50004998 0 0 0 7.5035265,7.9169176 L 6.5364867,13.756066 5.9016364,14.390916 4.2259262,13.54937 A 0.50004998,0.50004998 0 0 0 3.9970847,13.497696 H 3.0005172 v 1.00395 h 0.8784557 l 1.8971698,0.944894 a 0.50004998,0.50004998 0 0 0 0.5757945,-0.09597 l 1.0039496,-0.996564 a 0.50004998,0.50004998 0 0 0 0.1402578,-0.273133 l 0.6348503,-3.816485 0.3912454,1.373049 a 0.50004998,0.50004998 0 0 0 0.4798287,0.361716 h 2.162921 l 1.867642,4.687559 a 0.50004998,0.50004998 0 0 0 0.789871,0.191931 l 1.749531,-1.498541 a 0.50004998,0.50004998 0 0 0 0.177167,-0.332191 l 0.258368,-2.760861 0.258368,0.915366 a 0.50004998,0.50004998 0 0 0 0.642233,0.339572 l 1.181117,-0.398628 1.033477,1.1885 a 0.50004998,0.50004998 0 0 0 0.37648,0.169786 h 1.498546 v -1.00395 h -1.269701 l -1.099915,-1.262318 a 0.50004998,0.50004998 0 0 0 -0.538884,-0.14764 l -1.00395,0.332189 -0.85631,-2.9897027 a 0.50004998,0.50004998 0 0 0 -0.974422,0.088584 L 14.767397,14.752634 13.704392,15.667999 11.962244,11.31263 A 0.50004998,0.50004998 0 0 0 11.497179,11.002586 H 9.3785502 L 8.4779482,7.8652436 A 0.50004998,0.50004998 0 0 0 7.9685915,7.5035264 Z"
     id="path2326" />
</svg>
