<?xml version="1.0" encoding="UTF-8" standalone="no"?>
<!-- Created with Inkscape (http://www.inkscape.org/) -->

<svg
   width="24"
   height="24"
   viewBox="0 0 24 24"
   version="1.1"
   id="svg364"
   inkscape:version="1.2.2 (1:1.2.2+202305151914+b0a8486541)"
   sodipodi:docname="youtube.svg"
   xmlns:inkscape="http://www.inkscape.org/namespaces/inkscape"
   xmlns:sodipodi="http://sodipodi.sourceforge.net/DTD/sodipodi-0.dtd"
   xmlns:xlink="http://www.w3.org/1999/xlink"
   xmlns="http://www.w3.org/2000/svg"
   xmlns:svg="http://www.w3.org/2000/svg">
  <sodipodi:namedview
     id="namedview366"
     pagecolor="#ffffff"
     bordercolor="#000000"
     borderopacity="0.25"
     inkscape:showpageshadow="2"
     inkscape:pageopacity="0.0"
     inkscape:pagecheckerboard="0"
     inkscape:deskcolor="#d1d1d1"
     inkscape:document-units="px"
     showgrid="false"
     inkscape:zoom="33.583333"
     inkscape:cx="11.985112"
     inkscape:cy="12"
     inkscape:window-width="1920"
     inkscape:window-height="1008"
     inkscape:window-x="0"
     inkscape:window-y="0"
     inkscape:window-maximized="1"
     inkscape:current-layer="svg364" />
  <defs
     id="defs361">
    <linearGradient
       inkscape:collect="always"
       id="linearGradient1284">
      <stop
         style="stop-color:#e94f11;stop-opacity:1;"
         offset="0"
         id="stop1280" />
      <stop
         style="stop-color:#c62300;stop-opacity:1;"
         offset="1"
         id="stop1282" />
    </linearGradient>
    <linearGradient
       inkscape:collect="always"
       xlink:href="#linearGradient1284"
       id="linearGradient1297"
       x1="4"
       y1="12.000001"
       x2="60"
       y2="52"
       gradientUnits="userSpaceOnUse"
       gradientTransform="matrix(0.35714287,0,0,0.35000001,0.57142894,0.80000015)" />
    <linearGradient
       inkscape:collect="always"
       xlink:href="#linearGradient3143"
       id="linearGradient1070"
       x1="5.8539066"
       y1="6.3996096"
       x2="4.7955728"
       y2="4.8121095"
       gradientUnits="userSpaceOnUse"
       gradientTransform="matrix(4.4094484,0,0,4.4054114,-12.145832,-11.53052)" />
    <linearGradient
       inkscape:collect="always"
       id="linearGradient3143">
      <stop
         style="stop-color:#d2d2d2;stop-opacity:1;"
         offset="0"
         id="stop3139" />
      <stop
         style="stop-color:#ffffff;stop-opacity:1"
         offset="1"
         id="stop3141" />
    </linearGradient>
  </defs>
  <path
     d="M 10.355479,18.987417 C 7.0497945,18.924587 5.7080647,18.869111 4.8876047,18.761337 4.2859297,18.682297 3.9904497,18.605245 3.6571947,18.440478 3.1067848,18.168347 2.7644748,17.788877 2.51744,17.176993 2.29158,16.617575 2.199615,16.173254 2.115215,15.23365 2.01997,14.173301 2.012525,13.981339 2.002635,12.329235 1.990985,10.386354 2.014435,9.74969 2.14491,8.4601112 2.21333,7.7840484 2.31305,7.3347485 2.500425,6.8582942 2.6710699,6.4243971 2.8268648,6.1849341 3.1101998,5.9210481 3.4662998,5.5893923 3.8573847,5.387779 4.3510947,5.2813475 5.0880147,5.1224853 8.4187796,5 12.001719,5 c 3.58294,0 6.913705,0.1224853 7.650624,0.2813475 0.532935,0.1148889 0.924075,0.3270995 1.305705,0.7084007 0.29869,0.2984324 0.45253,0.5696068 0.635605,1.1204172 0.18864,0.5675467 0.260985,1.0698212 0.368175,2.5561626 0.0509,0.705842 0.05089,3.955067 0,4.660562 -0.05956,0.825318 -0.13264,1.560285 -0.181305,1.82327 -0.12511,0.676123 -0.37083,1.309161 -0.647865,1.669085 -0.19007,0.246935 -0.56528,0.541164 -0.879035,0.68931 -0.317705,0.150013 -0.6204,0.224384 -1.108374,0.272338 -1.512105,0.148595 -6.129586,0.257091 -8.78975,0.206524 z"
     style="fill:url(#linearGradient1297);fill-opacity:1;stroke-width:0.353554"
     id="path304" />
  <path
     style="color:#000000;fill:url(#linearGradient1070);fill-opacity:1;stroke:none;stroke-width:6.27526;stroke-linecap:round;stroke-linejoin:round;-inkscape-stroke:none"
     d="m 9.5150225,7.5663259 c -0.308866,0.1267427 -0.511746,0.4259509 -0.515001,0.759538 v 7.3368671 c -0.0051,0.745105 0.899027,1.118893 1.4223755,0.58803 l 5.333085,-3.668993 c 0.326026,-0.324355 0.326026,-0.851699 0,-1.176058 L 10.4224,7.737834 C 10.182551,7.5024723 9.8243495,7.4347707 9.5150225,7.5663259 Z"
     id="path2850"
     sodipodi:nodetypes="cccccccc" />
</svg>
