<?xml version="1.0" encoding="UTF-8" standalone="no"?>
<!-- Created with Inkscape (http://www.inkscape.org/) -->

<svg
   width="24"
   height="24"
   viewBox="0 0 24 24"
   version="1.1"
   id="svg2112"
   inkscape:version="1.2.1 (9c6d41e410, 2022-07-14, custom)"
   sodipodi:docname="accessories-character-map.svg"
   xmlns:inkscape="http://www.inkscape.org/namespaces/inkscape"
   xmlns:sodipodi="http://sodipodi.sourceforge.net/DTD/sodipodi-0.dtd"
   xmlns:xlink="http://www.w3.org/1999/xlink"
   xmlns="http://www.w3.org/2000/svg"
   xmlns:svg="http://www.w3.org/2000/svg">
  <sodipodi:namedview
     id="namedview2114"
     pagecolor="#ffffff"
     bordercolor="#000000"
     borderopacity="0.25"
     inkscape:showpageshadow="2"
     inkscape:pageopacity="0.0"
     inkscape:pagecheckerboard="0"
     inkscape:deskcolor="#d1d1d1"
     inkscape:document-units="px"
     showgrid="false"
     inkscape:zoom="33.416667"
     inkscape:cx="12"
     inkscape:cy="12"
     inkscape:window-width="1920"
     inkscape:window-height="1011"
     inkscape:window-x="0"
     inkscape:window-y="0"
     inkscape:window-maximized="1"
     inkscape:current-layer="svg2112" />
  <defs
     id="defs2109">
    <linearGradient
       inkscape:collect="always"
       xlink:href="#linearGradient23571"
       id="linearGradient23573"
       x1="0.5291667"
       y1="5.0270834"
       x2="16.404167"
       y2="19.138195"
       gradientUnits="userSpaceOnUse"
       gradientTransform="matrix(1.2598425,0,0,1.4173228,1.3333334,-5.125)" />
    <linearGradient
       inkscape:collect="always"
       id="linearGradient23571">
      <stop
         style="stop-color:#b6bec5;stop-opacity:1;"
         offset="0"
         id="stop23567" />
      <stop
         style="stop-color:#9ba3aa;stop-opacity:1"
         offset="1"
         id="stop23569" />
    </linearGradient>
  </defs>
  <rect
     style="fill:url(#linearGradient23573);fill-opacity:1;stroke-width:0.353553;stroke-linejoin:round"
     id="rect858"
     width="20"
     height="20"
     x="2"
     y="2"
     ry="3" />
  <rect
     style="opacity:0.2;fill:#000000;fill-opacity:1;stroke-width:0.375;stroke-linecap:round;stroke-linejoin:round"
     id="rect883"
     width="18"
     height="18"
     x="3"
     y="4"
     ry="2" />
  <rect
     style="fill:#edeef0;fill-opacity:1;stroke-width:0.375;stroke-linecap:round;stroke-linejoin:round"
     id="rect415"
     width="18"
     height="18"
     x="3"
     y="3"
     ry="2" />
  <path
     id="path1523-0"
     style="fill:#666666;fill-opacity:1;stroke-width:2;stroke-linecap:round;stroke-linejoin:round"
     d="M 12 6 L 11 8 L 12 8 L 14 6 L 12 6 z M 11.5 9 C 9.8358687 9 8.6931748 9.449484 8.2304688 10.615234 L 9.1308594 11.064453 C 9.4255831 10.206087 10.219257 10 11.5 10 C 13.156848 10 14 10.343151 14 12 L 14 13.267578 C 13.705815 13.097389 13.364308 13 13 13 L 10.5 13 C 9.1150054 13 8 14.115004 8 15.5 C 8 16.884996 9.1150054 18 10.5 18 L 12 18 C 12.684583 18 13.425837 17.727941 14 17.285156 L 14 18 L 15 18 L 15 15.5 L 15 15 L 15 12 C 15 9.7908676 13.709133 9 11.5 9 z M 10.5 14 L 13 14 C 13.552283 14 14 14.447717 14 15 L 14 15.5 C 14 16.330996 12.830996 17 12 17 L 10.5 17 C 9.6690028 17 9 16.330996 9 15.5 C 9 14.669004 9.6690028 14 10.5 14 z " />
</svg>
