<?xml version="1.0" encoding="UTF-8" standalone="no"?>
<!-- Created with Inkscape (http://www.inkscape.org/) -->

<svg
   width="24"
   height="24"
   viewBox="0 0 24 24"
   version="1.1"
   id="svg69118"
   inkscape:version="1.2.1 (9c6d41e410, 2022-07-14, custom)"
   sodipodi:docname="internet-web-browser.svg"
   xmlns:inkscape="http://www.inkscape.org/namespaces/inkscape"
   xmlns:sodipodi="http://sodipodi.sourceforge.net/DTD/sodipodi-0.dtd"
   xmlns:xlink="http://www.w3.org/1999/xlink"
   xmlns="http://www.w3.org/2000/svg"
   xmlns:svg="http://www.w3.org/2000/svg">
  <sodipodi:namedview
     id="namedview69120"
     pagecolor="#ffffff"
     bordercolor="#666666"
     borderopacity="1.0"
     inkscape:pageshadow="2"
     inkscape:pageopacity="0.0"
     inkscape:pagecheckerboard="0"
     inkscape:document-units="px"
     showgrid="false"
     units="px"
     inkscape:zoom="33.75"
     inkscape:cx="11.985185"
     inkscape:cy="12"
     inkscape:window-width="1920"
     inkscape:window-height="1012"
     inkscape:window-x="0"
     inkscape:window-y="0"
     inkscape:window-maximized="1"
     inkscape:current-layer="svg69118"
     inkscape:showpageshadow="2"
     inkscape:deskcolor="#d1d1d1" />
  <defs
     id="defs69115">
    <linearGradient
       inkscape:collect="always"
       xlink:href="#linearGradient984"
       id="linearGradient7450"
       x1="2.9104171"
       y1="3.1750004"
       x2="14.552084"
       y2="12.700001"
       gradientUnits="userSpaceOnUse"
       gradientTransform="matrix(1.3032853,0,0,1.3032853,0.96551911,0.96551891)" />
    <linearGradient
       inkscape:collect="always"
       id="linearGradient984">
      <stop
         style="stop-color:#26b4eb;stop-opacity:1;"
         offset="0"
         id="stop980" />
      <stop
         style="stop-color:#15b393;stop-opacity:1"
         offset="1"
         id="stop982" />
    </linearGradient>
    <linearGradient
       inkscape:collect="always"
       id="linearGradient3933">
      <stop
         style="stop-color:#93daee;stop-opacity:1"
         offset="0"
         id="stop3929" />
      <stop
         style="stop-color:#afe5e3;stop-opacity:1"
         offset="1"
         id="stop3931" />
    </linearGradient>
    <linearGradient
       inkscape:collect="always"
       xlink:href="#linearGradient3933"
       id="linearGradient3358"
       x1="0.64662355"
       y1="2.3954189"
       x2="5.2794075"
       y2="5.3446479"
       gradientUnits="userSpaceOnUse"
       gradientTransform="matrix(3.7795273,0,0,3.7795273,1.9073486e-6,1.9073486e-6)" />
  </defs>
  <circle
     style="fill:url(#linearGradient7450);fill-opacity:1;stroke-width:1.46834;stroke-linecap:round;stroke-linejoin:round"
     id="path7362"
     cx="12.000001"
     cy="12.000001"
     r="9.999999" />
  <path
     id="path69248"
     style="opacity:0.6;fill:url(#linearGradient3358);fill-opacity:1;stroke-width:1.14248;stroke-linecap:round;stroke-linejoin:round"
     d="m 12.000002,2.0000027 c -5.5228469,-10e-8 -9.9999994,4.4771524 -9.9999993,9.9999993 0,5.522848 4.4771524,10 9.9999993,10 5.522847,0 10,-4.477153 10,-10 0,-5.5228469 -4.477152,-9.9999993 -10,-9.9999993 z m 0,0.9999999 c 0.160661,0 0.319926,0.00536 0.478517,0.013671 0.158687,0.00832 0.316251,0.020674 0.472655,0.037107 -0.1564,-0.016649 -0.313984,-0.028626 -0.472655,-0.037107 -0.158676,-0.00849 -0.317798,-0.013671 -0.478517,-0.013671 z m 0,0 A 2.9999998,9.0000006 0 0 1 14.67969,8.0000027 H 9.3203151 A 2.9999998,9.0000006 0 0 1 12.000002,3.0000026 Z m 0.953125,0.050781 c 0.310825,0.032731 0.617397,0.08293 0.917969,0.1464843 -0.300525,-0.063544 -0.607121,-0.1133242 -0.917969,-0.1464843 z m -2.125,0.027345 c -0.07955,0.010356 -0.159401,0.020787 -0.23828,0.033203 0.07885,-0.012408 0.158767,-0.022859 0.23828,-0.033203 z M 10.125003,3.1972682 A 4.0000004,9.9999996 0 0 0 8.3378932,8.0000027 H 3.9375025 C 5.142409,5.5762591 7.4062242,3.773351 10.125003,3.1972682 Z m 3.749999,0 c 2.718779,0.5760829 4.982593,2.3789909 6.1875,4.8027345 H 15.664064 A 4.0000004,9.9999996 0 0 0 13.875002,3.1972682 Z M 3.9238308,8.0253931 C 3.7726686,8.3321282 3.6394724,8.6493837 3.5234401,8.974612 3.6395426,8.6494139 3.7725941,8.3320931 3.9238308,8.0253931 Z m 16.1523432,0 C 20.227412,8.3320942 20.360463,8.649415 20.476564,8.974612 20.360533,8.6493837 20.227335,8.3321282 20.076174,8.0253931 Z M 3.5136745,9.0000025 c 6.99e-5,-1.977e-4 0.00188,1.98e-4 0.00195,0 H 8.1933618 A 4.0000004,9.9999996 0 0 0 8.0000011,12.000002 4.0000004,9.9999996 0 0 0 8.1933618,15.000003 H 3.5156276 c -7e-5,-1.98e-4 -0.00188,1.97e-4 -0.00195,0 -0.3319139,-0.938659 -0.5136749,-1.947669 -0.513675,-3.000001 0,-1.052331 0.1817613,-2.0613415 0.5136719,-2.9999995 z m 5.6640625,0 h 5.644531 a 2.9999998,9.0000006 0 0 1 0.177733,2.9999995 2.9999998,9.0000006 0 0 1 -0.177733,3.000001 H 9.177737 A 2.9999998,9.0000006 0 0 1 9.000001,12.000002 2.9999998,9.0000006 0 0 1 9.177737,9.0000025 Z m 6.636718,0 h 4.669922 c 7e-5,1.98e-4 0.0019,-1.977e-4 0.002,0 0.331865,0.938658 0.513625,1.9476685 0.513625,2.9999995 0,1.052332 -0.181761,2.061342 -0.513672,3.000001 -7e-5,1.97e-4 -0.0019,-1.98e-4 -0.002,0 H 15.814455 A 4.0000004,9.9999996 0 0 0 16.000002,12.000002 4.0000004,9.9999996 0 0 0 15.814455,9.0000025 Z M 3.5234401,15.025393 c 0.1160322,0.325229 0.2492288,0.642485 0.4003907,0.949219 -0.1512365,-0.3067 -0.284288,-0.624022 -0.4003907,-0.949219 z m 16.9531239,0 c -0.116102,0.325197 -0.249154,0.642519 -0.40039,0.949219 0.151162,-0.306734 0.284359,-0.623991 0.40039,-0.949219 z M 3.9375025,16.000002 h 4.4003907 a 4.0000004,9.9999996 0 0 0 1.7871098,4.802734 C 7.4062242,20.226654 5.142409,18.423746 3.9375025,16.000002 Z m 5.3828126,0 H 14.67969 a 2.9999998,9.0000006 0 0 1 -2.679688,5 c 0.160717,0 0.319843,-0.0052 0.478517,-0.01368 0.158672,-0.0085 0.316255,-0.02045 0.472655,-0.03712 -0.156404,0.01644 -0.313969,0.0288 -0.472655,0.03712 -0.158589,0.0083 -0.317855,0.01368 -0.478517,0.01368 a 2.9999998,9.0000006 0 0 1 -2.6796869,-5 z m 6.3437489,0 h 4.398438 c -1.204907,2.423744 -3.468722,4.226651 -6.1875,4.802734 a 4.0000004,9.9999996 0 0 0 1.789062,-4.802734 z m -1.792968,4.802734 c -0.30057,0.06355 -0.607146,0.113753 -0.917969,0.146487 0.310848,-0.03315 0.617444,-0.08294 0.917969,-0.146487 z m -3.28125,0.08594 c 0.07888,0.01243 0.158729,0.02287 0.238281,0.03318 -0.07952,-0.01036 -0.159432,-0.02079 -0.238281,-0.03318 z" />
</svg>
