<?xml version="1.0" encoding="UTF-8" standalone="no"?>
<!-- Created with Inkscape (http://www.inkscape.org/) -->

<svg
   width="24"
   height="24"
   viewBox="0 0 24 24"
   version="1.1"
   id="svg5"
   inkscape:version="1.2.1 (9c6d41e410, 2022-07-14, custom)"
   sodipodi:docname="libreoffice-math.svg"
   xmlns:inkscape="http://www.inkscape.org/namespaces/inkscape"
   xmlns:sodipodi="http://sodipodi.sourceforge.net/DTD/sodipodi-0.dtd"
   xmlns:xlink="http://www.w3.org/1999/xlink"
   xmlns="http://www.w3.org/2000/svg"
   xmlns:svg="http://www.w3.org/2000/svg">
  <sodipodi:namedview
     id="namedview7"
     pagecolor="#ffffff"
     bordercolor="#666666"
     borderopacity="1.0"
     inkscape:pageshadow="2"
     inkscape:pageopacity="0.0"
     inkscape:pagecheckerboard="0"
     inkscape:document-units="px"
     showgrid="false"
     units="px"
     height="64px"
     inkscape:zoom="34.458333"
     inkscape:cx="11.98549"
     inkscape:cy="12"
     inkscape:window-width="1920"
     inkscape:window-height="1029"
     inkscape:window-x="0"
     inkscape:window-y="0"
     inkscape:window-maximized="1"
     inkscape:current-layer="svg5"
     inkscape:showpageshadow="2"
     inkscape:deskcolor="#d1d1d1" />
  <defs
     id="defs2">
    <linearGradient
       inkscape:collect="always"
       id="linearGradient3723">
      <stop
         style="stop-color:#3d4c65;stop-opacity:1"
         offset="0"
         id="stop3719" />
      <stop
         style="stop-color:#455572;stop-opacity:1"
         offset="1"
         id="stop3721" />
    </linearGradient>
    <linearGradient
       inkscape:collect="always"
       id="linearGradient3529">
      <stop
         style="stop-color:#526587;stop-opacity:1"
         offset="0"
         id="stop3525" />
      <stop
         style="stop-color:#445471;stop-opacity:1"
         offset="1"
         id="stop3527" />
    </linearGradient>
    <linearGradient
       inkscape:collect="always"
       xlink:href="#linearGradient3723"
       id="linearGradient3212"
       x1="3.447747"
       y1="0.64509004"
       x2="2.7696862"
       y2="0"
       gradientUnits="userSpaceOnUse"
       gradientTransform="matrix(7.5591312,0,0,7.5591312,-5.5659066,2)" />
    <linearGradient
       inkscape:collect="always"
       xlink:href="#linearGradient3529"
       id="linearGradient3634"
       x1="2"
       y1="-1.3228346e-07"
       x2="10.000097"
       y2="10.000122"
       gradientUnits="userSpaceOnUse"
       gradientTransform="matrix(1.9999755,0,0,1.9999755,4.91e-5,2)" />
  </defs>
  <path
     id="rect857"
     style="fill:url(#linearGradient3634);fill-opacity:1;stroke-width:1.99997"
     d="M 5.9999754,2 C 4.891989,2 4,2.8919892 4,3.9999755 V 20.000025 C 4,21.108008 4.891989,22 5.9999754,22 H 17.999634 c 1.107987,0 1.999975,-0.891992 1.999975,-1.999975 V 11.499768 C 20.02262,10.206515 19.266652,9.34067 18.601188,8.6007737 L 13.399225,3.3984204 C 12.65933,2.7329597 11.592299,2.0129386 10.00083,2 Z"
     sodipodi:nodetypes="ssssssccccs" />
  <path
     d="m 15.370515,2 c -1.213331,0.00999 -0.893592,1.1343033 -0.601571,1.3984516 l 4.26703,4.2872026 c 0.264145,0.2920256 1.388474,0.6117681 1.398452,-0.6015708 V 4.0000201 C 20.434426,2.8920091 19.542417,2 18.434405,2 Z"
     style="fill:url(#linearGradient3212);fill-opacity:1;stroke-width:2.00002"
     id="path3058"
     sodipodi:nodetypes="ccccssc" />
  <path
     d="m 5.9999509,2.9999756 c -0.5539866,0 -0.9999755,0.4459888 -0.9999755,0.9999754 V 19.99956 c 0,0.553986 0.4459889,0.999974 0.9999755,0.999974 H 17.999658 c 0.553986,0 0.999975,-0.445988 0.999975,-0.999974 V 11.499378 C 18.99317,10.703653 18.633159,10.170144 18.300431,9.8002002 L 12.199409,3.6991771 C 11.829465,3.3664508 11.295957,3.0064448 10.500232,2.9999756 Z"
     style="fill:#ffffff;fill-opacity:1;stroke-width:0.264576"
     id="path863"
     sodipodi:nodetypes="ssssssccccs" />
  <path
     style="color:#000000;fill:#526587;fill-opacity:1;stroke:none;stroke-width:3.77944;stroke-linejoin:round;-inkscape-stroke:none"
     d="m 10.50289,10.999785 c -0.243524,-10e-4 -0.452371,0.173534 -0.494574,0.413375 l -1.753302,6.480649 -1.8118654,-3.623927 -0.8931864,0.450284 2.4983639,4.996926 c 0.2128276,0.442816 0.8698348,0.345292 0.9448588,-0.140252 l 1.9304631,-7.580525 h 7.078567 v -0.99653 z"
     id="path1199"
     sodipodi:nodetypes="ccccccccccc" />
  <g
     id="g14804"
     transform="matrix(2.6724642,2.6724642,-2.6724642,2.6724642,28.719427,6.1930439)">
    <rect
       style="fill:#3d4c65;fill-opacity:1;stroke:none;stroke-width:0.264583;stroke-linecap:butt;stroke-linejoin:round;stroke-miterlimit:4;stroke-dasharray:none"
       id="rect7754"
       width="0.26458335"
       height="1.8520833"
       x="-0.83577478"
       y="3.5685468" />
    <rect
       style="fill:#455572;fill-opacity:1;stroke:none;stroke-width:0.264583;stroke-linecap:butt;stroke-linejoin:round;stroke-miterlimit:4;stroke-dasharray:none"
       id="rect12575"
       width="0.26458335"
       height="1.8520833"
       x="4.3622966"
       y="-0.22255856"
       transform="rotate(90)" />
  </g>
</svg>
