<?xml version="1.0" encoding="UTF-8" standalone="no"?>
<!-- Created with Inkscape (http://www.inkscape.org/) -->

<svg
   width="24"
   height="24"
   viewBox="0 0 24 24"
   version="1.1"
   id="svg5"
   inkscape:version="1.2.1 (9c6d41e410, 2022-07-14, custom)"
   sodipodi:docname="office-calendar.svg"
   xmlns:inkscape="http://www.inkscape.org/namespaces/inkscape"
   xmlns:sodipodi="http://sodipodi.sourceforge.net/DTD/sodipodi-0.dtd"
   xmlns:xlink="http://www.w3.org/1999/xlink"
   xmlns="http://www.w3.org/2000/svg"
   xmlns:svg="http://www.w3.org/2000/svg">
  <sodipodi:namedview
     id="namedview7"
     pagecolor="#ffffff"
     bordercolor="#666666"
     borderopacity="1.0"
     inkscape:pageshadow="2"
     inkscape:pageopacity="0.0"
     inkscape:pagecheckerboard="0"
     inkscape:document-units="px"
     showgrid="false"
     units="px"
     width="64px"
     inkscape:zoom="34.458333"
     inkscape:cx="11.98549"
     inkscape:cy="12"
     inkscape:window-width="1920"
     inkscape:window-height="1029"
     inkscape:window-x="0"
     inkscape:window-y="0"
     inkscape:window-maximized="1"
     inkscape:current-layer="svg5"
     inkscape:showpageshadow="2"
     inkscape:deskcolor="#d1d1d1"
     showguides="false" />
  <defs
     id="defs2">
    <linearGradient
       inkscape:collect="always"
       id="linearGradient984">
      <stop
         style="stop-color:#26b4eb;stop-opacity:1;"
         offset="0"
         id="stop980" />
      <stop
         style="stop-color:#017adc;stop-opacity:1"
         offset="1"
         id="stop982" />
    </linearGradient>
    <linearGradient
       inkscape:collect="always"
       xlink:href="#linearGradient984"
       id="linearGradient1521"
       x1="0"
       y1="50.5"
       x2="20"
       y2="63.217377"
       gradientUnits="userSpaceOnUse"
       gradientTransform="translate(2,-43)" />
  </defs>
  <rect
     style="fill:url(#linearGradient1521);fill-opacity:1;stroke-linecap:round"
     id="rect424"
     width="20"
     height="17"
     x="2"
     y="5"
     ry="1" />
  <path
     id="rect426"
     style="fill:#056abe;fill-opacity:1;stroke-linecap:round"
     d="m 3,3 h 18 c 0.554,0 1,0.446 1,1 V 8 H 2 V 4 C 2,3.446 2.446,3 3,3 Z"
     sodipodi:nodetypes="sssccss" />
  <rect
     style="fill:#2ecef2;fill-opacity:1;stroke-width:0.666665;stroke-linecap:round;stroke-linejoin:round"
     id="rect1882"
     width="2"
     height="5"
     x="17"
     y="1"
     ry="1.0000002" />
  <rect
     style="fill:#2ecef2;fill-opacity:1;stroke-width:0.654655;stroke-linecap:round;stroke-linejoin:round"
     id="rect1602"
     width="2"
     height="5"
     x="4.999999"
     y="1"
     ry="1" />
  <path
     id="rect4401"
     style="fill:#ffffff;fill-opacity:1;stroke-width:0.583335;stroke-linecap:round;stroke-linejoin:round"
     d="m 8.999999,10 v 2 h 2 v -2 z m 4,0 v 2 h 2 V 10 Z M 17,10 v 2 h 1.999999 V 10 Z M 4.999999,14 v 2 h 2 v -2 z m 4,0 v 2 h 2 v -2 z m 4,0 v 2 h 2 V 14 Z M 17,14 v 2 h 1.999999 V 14 Z M 4.999999,18 v 2 h 2 v -2 z m 4,0 v 2 h 2 v -2 z m 4,0 v 2 h 2 v -2 z"
     sodipodi:nodetypes="cccccccccccccccccccccccccccccccccccccccccccccccccc" />
</svg>
