<?xml version="1.0" encoding="UTF-8" standalone="no"?>
<!-- Created with Inkscape (http://www.inkscape.org/) -->

<svg
   width="24"
   height="24"
   viewBox="0 0 24 24"
   version="1.1"
   id="svg69118"
   inkscape:version="1.2.1 (9c6d41e410, 2022-07-14, custom)"
   sodipodi:docname="preferences-system-time.svg"
   xmlns:inkscape="http://www.inkscape.org/namespaces/inkscape"
   xmlns:sodipodi="http://sodipodi.sourceforge.net/DTD/sodipodi-0.dtd"
   xmlns:xlink="http://www.w3.org/1999/xlink"
   xmlns="http://www.w3.org/2000/svg"
   xmlns:svg="http://www.w3.org/2000/svg">
  <sodipodi:namedview
     id="namedview69120"
     pagecolor="#ffffff"
     bordercolor="#666666"
     borderopacity="1.0"
     inkscape:pageshadow="2"
     inkscape:pageopacity="0.0"
     inkscape:pagecheckerboard="0"
     inkscape:document-units="px"
     showgrid="false"
     units="px"
     inkscape:zoom="33.75"
     inkscape:cx="11.985185"
     inkscape:cy="12"
     inkscape:window-width="1920"
     inkscape:window-height="1012"
     inkscape:window-x="0"
     inkscape:window-y="0"
     inkscape:window-maximized="1"
     inkscape:current-layer="svg69118"
     inkscape:showpageshadow="2"
     inkscape:deskcolor="#d1d1d1" />
  <defs
     id="defs69115">
    <linearGradient
       inkscape:collect="always"
       xlink:href="#linearGradient984"
       id="linearGradient7450"
       x1="2.9104171"
       y1="3.1750004"
       x2="14.552084"
       y2="12.700001"
       gradientUnits="userSpaceOnUse"
       gradientTransform="matrix(1.1729569,0,0,1.1729569,3.0689654,1.0689652)" />
    <linearGradient
       inkscape:collect="always"
       id="linearGradient984">
      <stop
         style="stop-color:#26b4eb;stop-opacity:1;"
         offset="0"
         id="stop980" />
      <stop
         style="stop-color:#15b393;stop-opacity:1"
         offset="1"
         id="stop982" />
    </linearGradient>
    <linearGradient
       inkscape:collect="always"
       id="linearGradient3933">
      <stop
         style="stop-color:#93daee;stop-opacity:1"
         offset="0"
         id="stop3929" />
      <stop
         style="stop-color:#afe5e3;stop-opacity:1"
         offset="1"
         id="stop3931" />
    </linearGradient>
    <linearGradient
       inkscape:collect="always"
       xlink:href="#linearGradient3933"
       id="linearGradient1092"
       x1="2.0112064"
       y1="5.8552232"
       x2="16.656895"
       y2="16.056877"
       gradientUnits="userSpaceOnUse"
       gradientTransform="translate(3,1)" />
    <linearGradient
       inkscape:collect="always"
       xlink:href="#linearGradient3161"
       id="linearGradient3163"
       x1="8.4666662"
       y1="15.345833"
       x2="8.4666662"
       y2="1.5874995"
       gradientUnits="userSpaceOnUse"
       gradientTransform="matrix(0.79951545,0,0,0.79951545,0.73076173,9.7307412)" />
    <linearGradient
       inkscape:collect="always"
       id="linearGradient3161">
      <stop
         style="stop-color:#c7ccd1;stop-opacity:1;"
         offset="0"
         id="stop3157" />
      <stop
         style="stop-color:#fdfdfd;stop-opacity:1"
         offset="1"
         id="stop3159" />
    </linearGradient>
  </defs>
  <circle
     style="fill:url(#linearGradient7450);fill-opacity:1;stroke-width:1.32151;stroke-linecap:round;stroke-linejoin:round"
     id="path7362"
     cx="13"
     cy="11"
     r="9" />
  <path
     id="path371"
     style="opacity:0.6;fill:url(#linearGradient1092);fill-opacity:1"
     d="m 13,2 a 9,9 0 0 0 -9,9 9,9 0 0 0 9,9 9,9 0 0 0 9,-9 9,9 0 0 0 -9,-9 z m 0,1 A 8,8 0 0 1 14.003906,3.0644531 8,8 0 0 0 13,3 Z m 0,0 a 3,8 0 0 1 2.597656,4 H 10.402344 A 3,8 0 0 1 13,3 Z m 1.046875,0.070312 A 8,8 0 0 1 15.035156,3.265625 8,8 0 0 1 20.412109,7.9960938 8,8 0 0 0 19.925781,7 h -3.34375 A 4,9 0 0 0 15.035156,3.265625 8,8 0 0 0 14.046875,3.070312 Z m -2.136719,0.015625 a 8,8 0 0 0 -0.71875,0.1445313 8,8 0 0 1 0.71875,-0.1445313 z M 10.958984,3.2871094 A 4,9 0 0 0 9.4257812,7 H 6.0957031 A 8,8 0 0 1 10.958984,3.2871094 Z M 6.0742188,7.0351562 A 8,8 0 0 0 5.6503906,7.9023438 8,8 0 0 1 6.0742188,7.0351562 Z M 5.609375,8 H 9.2382812 A 4,9 0 0 0 9,11 4,9 0 0 0 9.2382812,14 H 5.609375 A 8,8 0 0 1 5,11 8,8 0 0 1 5.609375,8 Z m 4.611328,0 h 5.558594 A 3,8 0 0 1 16,11 3,8 0 0 1 15.779297,14 H 10.220703 A 3,8 0 0 1 10,11 3,8 0 0 1 10.220703,8 Z m 6.548828,0 h 3.644531 A 8,8 0 0 1 21,11 8,8 0 0 1 20.390625,14 H 16.761719 A 4,9 0 0 0 17,11 4,9 0 0 0 16.769531,8 Z M 5.6503906,14.097656 a 8,8 0 0 0 0.4238282,0.867188 8,8 0 0 1 -0.4238282,-0.867188 z m 14.6992184,0 a 8,8 0 0 1 -0.423828,0.867188 8,8 0 0 0 0.423828,-0.867188 z M 6.0957031,15 H 9.4257812 A 4,9 0 0 0 10.958984,18.712891 8,8 0 0 1 6.0957031,15 Z m 4.3066409,0 h 5.195312 A 3,8 0 0 1 13,19 3,8 0 0 1 10.402344,15 Z m 6.171875,0 h 3.330078 A 8,8 0 0 1 15.041016,18.712891 4,9 0 0 0 16.574219,15 Z m -5.382813,3.769531 a 8,8 0 0 0 0.71875,0.144531 8,8 0 0 1 -0.71875,-0.144531 z m 3.617188,0 a 8,8 0 0 1 -0.71875,0.144531 8,8 0 0 0 0.71875,-0.144531 z" />
  <circle
     style="fill:url(#linearGradient3163);fill-opacity:1;stroke-width:0.211539"
     id="path2899"
     cx="7.5"
     cy="16.5"
     r="5.5" />
  <path
     id="rect1636"
     style="fill:#444444;fill-opacity:1;stroke-width:0.500001;stroke-linejoin:round"
     d="m 7.474609,12.999999 c -0.2649144,0.01334 -0.4746094,0.231656 -0.4746094,0.5 v 2.974609 c -4.304e-4,0.0085 0,0.01674 0,0.02539 0,0.277 0.223,0.5 0.5,0.5 H 7.5253906 10.5 c 0.277,10e-7 0.5,-0.222999 0.5,-0.499999 0,-0.277 -0.223,-0.5 -0.5,-0.5 H 8 v -2.5 c 0,-0.277 -0.223,-0.5 -0.5,-0.5 -0.00866,0 -0.016845,-4.3e-4 -0.025391,0 z" />
  <path
     id="path2120"
     style="opacity:0.2;fill:#000000;stroke-width:1.22222"
     d="M 7.5,11 A 5.5,5.5 0 0 0 2,16.5 5.5,5.5 0 0 0 7.5,22 5.5,5.5 0 0 0 13,16.5 5.5,5.5 0 0 0 7.5,11 Z m 0,1 A 4.5,4.5 0 0 1 12,16.5 4.5,4.5 0 0 1 7.5,21 4.5,4.5 0 0 1 3,16.5 4.5,4.5 0 0 1 7.5,12 Z" />
</svg>
