<?xml version="1.0" encoding="UTF-8" standalone="no"?>
<!-- Created with Inkscape (http://www.inkscape.org/) -->

<svg
   width="24"
   height="24"
   viewBox="0 0 24 24"
   version="1.1"
   id="svg5"
   inkscape:version="1.2.1 (9c6d41e410, 2022-07-14, custom)"
   sodipodi:docname="visual-studio-code.svg"
   xmlns:inkscape="http://www.inkscape.org/namespaces/inkscape"
   xmlns:sodipodi="http://sodipodi.sourceforge.net/DTD/sodipodi-0.dtd"
   xmlns:xlink="http://www.w3.org/1999/xlink"
   xmlns="http://www.w3.org/2000/svg"
   xmlns:svg="http://www.w3.org/2000/svg">
  <sodipodi:namedview
     id="namedview7"
     pagecolor="#ffffff"
     bordercolor="#000000"
     borderopacity="0.25"
     inkscape:showpageshadow="2"
     inkscape:pageopacity="0.0"
     inkscape:pagecheckerboard="0"
     inkscape:deskcolor="#d1d1d1"
     inkscape:document-units="px"
     showgrid="false"
     inkscape:zoom="33.708333"
     inkscape:cx="11.985167"
     inkscape:cy="12"
     inkscape:window-width="1920"
     inkscape:window-height="1012"
     inkscape:window-x="0"
     inkscape:window-y="0"
     inkscape:window-maximized="1"
     inkscape:current-layer="svg5" />
  <defs
     id="defs2">
    <linearGradient
       inkscape:collect="always"
       xlink:href="#linearGradient2463"
       id="linearGradient2465"
       x1="25.999876"
       y1="6.0003786"
       x2="26"
       y2="25.999962"
       gradientUnits="userSpaceOnUse"
       gradientTransform="matrix(0.99996726,0,0,1.0000016,-3.9990566,-4.0000089)" />
    <linearGradient
       inkscape:collect="always"
       id="linearGradient2463">
      <stop
         style="stop-color:#ffffff;stop-opacity:1;"
         offset="0"
         id="stop2459" />
      <stop
         style="stop-color:#ffffff;stop-opacity:0;"
         offset="1"
         id="stop2461" />
    </linearGradient>
  </defs>
  <path
     d="M 21.292709,4.1188065 17.174502,2.1243885 C 16.69786,1.893534 16.128139,1.9909237 15.754018,2.3671973 L 2.2724545,14.581021 c -0.3626206,0.332566 -0.3622006,0.906788 0.001,1.23881 l 1.1012221,1.006909 c 0.2968404,0.271485 0.7439013,0.291441 1.0635219,0.04759 L 20.673028,4.6361932 c 0.544641,-0.4155951 1.32695,-0.024841 1.32695,0.6627797 v -0.048102 c 0,-0.4826854 -0.274918,-0.9226953 -0.707269,-1.1320848 z"
     style="fill:#0072b0;stroke-width:0.999995"
     id="path3815" />
  <path
     d="m 21.292709,19.881615 -4.118207,1.994428 C 16.69786,22.10681 16.128139,22.009464 15.754018,21.633235 L 2.2724545,8.9693354 C 1.9098339,8.6367855 1.9102539,8.0625507 2.2734545,7.7305347 L 3.3746366,6.7235865 C 3.671497,6.4521446 4.1185579,6.4321619 4.4381785,6.6760247 L 20.673048,19.36417 C 21.217689,19.779752 22,19.389031 22,18.701382 v 0.04816 c 0,0.482646 -0.27492,0.922651 -0.707271,1.132092 z"
     style="fill:#008eda;stroke-width:0.999995"
     id="path3843" />
  <path
     d="m 17.174782,21.876164 c -0.476802,0.230633 -1.046503,0.133205 -1.420644,-0.243129 0.460941,0.463635 1.249183,0.135222 1.249183,-0.520495 V 2.8874499 c 0,-0.6557257 -0.788242,-0.9841194 -1.249183,-0.5204506 0.374121,-0.3763156 0.943842,-0.4738353 1.420644,-0.2431829 l 4.117507,1.9916779 c 0.432679,0.2092795 0.707814,0.6494515 0.707814,1.1323449 V 18.752243 c 0,0.482884 -0.275144,0.923043 -0.707814,1.132324 z"
     style="fill:#1eacf8;stroke-width:0.999995"
     id="path3871" />
  <path
     d="m 16.613899,2.00061 c -0.126398,0.0022 -0.251018,0.024381 -0.37108,0.064462 -0.12,0.040061 -0.2352,0.097363 -0.339819,0.1738265 -0.0206,0.015001 -0.0388,0.034321 -0.0586,0.050782 -0.0304,0.025261 -0.0616,0.049642 -0.0898,0.078123 L 7.9599249,9.42836 4.4385585,6.6764028 C 4.1189579,6.4325299 3.670997,6.4518386 3.3741566,6.7232645 L 2.2726145,7.7310767 c -0.3631406,0.332016 -0.3626206,0.9057348 0,1.2382827 l 3.0409256,2.8574276 -3.0409256,2.753909 c -0.3626206,0.332566 -0.3631406,0.908215 0,1.240237 l 1.1015421,1.005861 c 0.2968404,0.271483 0.7448013,0.292677 1.0644019,0.04881 l 3.4686463,-2.615238 7.8473932,7.373058 c 0.0936,0.09406 0.199001,0.170086 0.312481,0.228515 0.340422,0.175367 0.749802,0.186647 1.107403,0.01366 l 4.117047,-1.990238 c 0.1094,-0.05294 0.207521,-0.121716 0.29492,-0.201171 0.043,-0.0388 0.08216,-0.07896 0.119112,-0.123041 v -0.002 c 0.03689,-0.04409 0.07304,-0.09001 0.103513,-0.138672 v -0.002 c 0.06166,-0.09894 0.1082,-0.205134 0.140616,-0.318358 0.016,-0.05499 0.02876,-0.110666 0.0371,-0.167967 1.25e-4,-0.0012 -1.25e-4,-0.0026 0,-0.0039 0.0081,-0.05799 0.01366,-0.116116 0.01366,-0.175786 v -0.002 -0.04881 -13.4023651 -0.048822 c 0,-6.501e-4 2e-6,-0.0013 0,-0.00195 0,-0.059062 -0.0056,-0.1183442 -0.01366,-0.1757862 -1.25e-4,-0.00125 1.25e-4,-0.0026 0,-0.0038 -0.0081,-0.057241 -0.02134,-0.1127628 -0.0371,-0.167825 C 21.8853,4.6761499 21.759058,4.4741124 21.586438,4.3171687 21.499038,4.2377059 21.401037,4.168944 21.291516,4.1159956 L 17.174482,2.1237944 c -0.0596,-0.028821 -0.1196,-0.051642 -0.181601,-0.070322 -0.1238,-0.037341 -0.25242,-0.054862 -0.378902,-0.052722 z m 0.388662,5.4023511 V 16.496725 L 11.08089,11.86781 Z"
     style="opacity:0.25;fill:url(#linearGradient2465);fill-opacity:1;stroke-width:0.999995"
     id="path1332" />
</svg>
