<?xml version="1.0" encoding="UTF-8" standalone="no"?>
<!-- Created with Inkscape (http://www.inkscape.org/) -->

<svg
   width="24"
   height="24"
   viewBox="0 0 24 24"
   version="1.1"
   id="svg69118"
   inkscape:version="1.2.1 (9c6d41e410, 2022-07-14, custom)"
   sodipodi:docname="dialog-information.svg"
   xmlns:inkscape="http://www.inkscape.org/namespaces/inkscape"
   xmlns:sodipodi="http://sodipodi.sourceforge.net/DTD/sodipodi-0.dtd"
   xmlns:xlink="http://www.w3.org/1999/xlink"
   xmlns="http://www.w3.org/2000/svg"
   xmlns:svg="http://www.w3.org/2000/svg">
  <sodipodi:namedview
     id="namedview69120"
     pagecolor="#ffffff"
     bordercolor="#666666"
     borderopacity="1.0"
     inkscape:pageshadow="2"
     inkscape:pageopacity="0.0"
     inkscape:pagecheckerboard="0"
     inkscape:document-units="px"
     showgrid="false"
     units="px"
     inkscape:zoom="33.75"
     inkscape:cx="11.985185"
     inkscape:cy="12"
     inkscape:window-width="1920"
     inkscape:window-height="1012"
     inkscape:window-x="0"
     inkscape:window-y="0"
     inkscape:window-maximized="1"
     inkscape:current-layer="svg69118"
     inkscape:showpageshadow="2"
     inkscape:deskcolor="#d1d1d1" />
  <defs
     id="defs69115">
    <linearGradient
       inkscape:collect="always"
       xlink:href="#linearGradient59376"
       id="linearGradient59378"
       x1="45.787689"
       y1="-43.129013"
       x2="45.593357"
       y2="-14.11183"
       gradientUnits="userSpaceOnUse"
       gradientTransform="matrix(0.68574659,0,0,0.68777925,-19.398751,31.663241)" />
    <linearGradient
       inkscape:collect="always"
       id="linearGradient59376">
      <stop
         style="stop-color:#189ae1;stop-opacity:1;"
         offset="0"
         id="stop59372" />
      <stop
         style="stop-color:#037cd6;stop-opacity:0.99607843"
         offset="1"
         id="stop59374" />
    </linearGradient>
  </defs>
  <circle
     style="fill:url(#linearGradient59378);fill-opacity:1;stroke-width:0.545117;stroke-linecap:round;stroke-linejoin:round"
     id="path55509"
     cx="11.999999"
     cy="11.999999"
     r="9.999999" />
  <path
     id="path69248"
     style="opacity:0.2;fill:#4d4d4d;fill-opacity:0.996078;stroke-width:1.14248;stroke-linecap:round;stroke-linejoin:round"
     d="m 12,2 c -5.5228468,-1e-7 -9.9999993,4.4771521 -9.9999992,9.999999 0,5.522848 4.4771524,10 9.9999992,10 5.522847,0 10,-4.477153 10,-10 C 22,6.4771521 17.522848,2 12,2 Z m 0,1 c 4.970563,3e-7 9,4.0294367 9,8.999999 0,4.970562 -4.029438,9 -9,9 -4.9705622,0 -8.9999988,-4.029437 -8.9999993,-9 C 3.0000007,7.0294367 7.0294378,3 12,3 Z" />
  <path
     id="path1233"
     style="fill:#ffffff;stroke-width:0.500001;stroke-linejoin:round"
     d="M 12,5.9999996 A 1.0000001,1.0000001 0 0 0 11.000001,6.9999994 1.0000001,1.0000001 0 0 0 12,7.9999996 1.0000001,1.0000001 0 0 0 13,6.9999994 1.0000001,1.0000001 0 0 0 12,5.9999996 Z m 0,4 c -0.554,0 -0.999999,0.4459994 -0.999999,0.9999994 v 6 c 0,0.554 0.445999,1 0.999999,1 0.554,0 1,-0.446 1,-1 v -6 c 0,-0.554 -0.446,-0.9999994 -1,-0.9999994 z" />
</svg>
