<?xml version="1.0" encoding="UTF-8" standalone="no"?>
<!-- Created with Inkscape (http://www.inkscape.org/) -->

<svg
   width="24"
   height="24"
   viewBox="0 0 24 24"
   version="1.1"
   id="svg2535"
   inkscape:version="1.2.2 (1:1.2.2+202305151914+b0a8486541)"
   sodipodi:docname="security-low.svg"
   xmlns:inkscape="http://www.inkscape.org/namespaces/inkscape"
   xmlns:sodipodi="http://sodipodi.sourceforge.net/DTD/sodipodi-0.dtd"
   xmlns:xlink="http://www.w3.org/1999/xlink"
   xmlns="http://www.w3.org/2000/svg"
   xmlns:svg="http://www.w3.org/2000/svg">
  <sodipodi:namedview
     id="namedview2537"
     pagecolor="#ffffff"
     bordercolor="#000000"
     borderopacity="0.25"
     inkscape:showpageshadow="2"
     inkscape:pageopacity="0.0"
     inkscape:pagecheckerboard="0"
     inkscape:deskcolor="#d1d1d1"
     inkscape:document-units="px"
     showgrid="false"
     inkscape:zoom="33.583333"
     inkscape:cx="11.985112"
     inkscape:cy="12"
     inkscape:window-width="1920"
     inkscape:window-height="1008"
     inkscape:window-x="0"
     inkscape:window-y="0"
     inkscape:window-maximized="1"
     inkscape:current-layer="svg2535" />
  <defs
     id="defs2532">
    <linearGradient
       inkscape:collect="always"
       id="linearGradient1577">
      <stop
         style="stop-color:#e96311;stop-opacity:1"
         offset="0"
         id="stop1573" />
      <stop
         style="stop-color:#da3f04;stop-opacity:1;"
         offset="1"
         id="stop1575" />
    </linearGradient>
    <linearGradient
       inkscape:collect="always"
       xlink:href="#linearGradient1577"
       id="linearGradient4113"
       gradientUnits="userSpaceOnUse"
       gradientTransform="matrix(0.62497772,0,0,0.62711173,2.0003136,1.3508452)"
       x1="7.9997835"
       y1="3.427068"
       x2="32.000641"
       y2="32.927395" />
  </defs>
  <path
     style="color:#000000;fill:url(#linearGradient4113);fill-opacity:1.0;stroke:none;stroke-width:2;stroke-linecap:round;stroke-linejoin:round;-inkscape-stroke:none"
     d="m 12,1.9999998 c -2.4570096,0 -3.54152,0.5299814 -4.9999996,1.5 -1.2413749,0.9428128 -2.5251901,1.5 -4,1.5 -0.5522847,0 -1,0.4477153 -1,1 V 12 c 0,2.110185 1.5111607,4.44924 3.1953125,6.101562 C 6.8249412,19.77107 10.066328,21.7551 12,22 13.933672,21.7551 17.17506,19.77107 18.804688,18.101562 20.48884,16.44924 22,14.110186 22,12 V 5.9999998 c 0,-0.5522847 -0.447715,-1 -1,-1 -1.47481,0 -2.758625,-0.5571872 -4,-1.5 -1.45848,-0.9700186 -2.54299,-1.5 -5,-1.5 z"
     id="path414"
     sodipodi:nodetypes="scssscccssscs" />
  <path
     id="path416"
     style="color:#000000;opacity:0.2;fill:#000000;stroke:none;stroke-linecap:round;stroke-linejoin:round;-inkscape-stroke:none"
     d="m 12,1.9999998 c -2.4570071,0 -3.5415219,0.5299824 -5,1.5 -1.2413737,0.9428119 -2.5251916,1.5 -4,1.5 -0.5522841,0 -1,0.4477159 -1,1 V 12 c 0,2.110183 1.5111624,4.449242 3.1953125,6.101562 C 6.8249392,19.771069 10.06633,21.7551 12,22 13.93367,21.755099 17.175061,19.771068 18.804688,18.101562 20.488838,16.449242 22,14.110185 22,12 V 5.9999998 c 0,-0.5522841 -0.447716,-1 -1,-1 -1.474809,0 -2.758626,-0.5571881 -4,-1.5 -1.458479,-0.9700176 -2.542992,-1.5 -5,-1.5 z m 0,1 c 2.30218,0 3.030934,0.3934623 4.425781,1.3203125 C 17.772649,5.3358417 19.286617,5.9999998 21,5.9999998 V 12 c 0,1.632765 -1.335646,3.857332 -2.896484,5.388672 a 1.0001,1.0001 0 0 0 -0.01367,0.01367 c -0.721631,0.73929 -1.890712,1.625024 -3.078125,2.320312 C 13.871565,20.390273 12.714806,20.840447 12,20.957031 11.285194,20.840447 10.128433,20.390271 8.9882812,19.722656 7.8008681,19.027368 6.631787,18.141634 5.9101562,17.402344 a 1.0001,1.0001 0 0 0 -0.013672,-0.01367 C 4.3356458,15.85733 3,13.632763 3,12 V 5.9999998 c 1.705656,0 3.2123942,-0.6601828 4.5546875,-1.6679688 C 8.9626802,3.3955909 9.6867962,2.9999998 12,2.9999998 Z" />
  <path
     id="rect368"
     style="fill:#ffffff;stroke-linecap:round"
     d="m 7.0502529,7.0502526 c -0.3917365,0.3917365 -0.3917366,1.022477 0,1.4142136 L 10.585786,12 7.0502529,15.535534 c -0.3917366,0.391736 -0.3917365,1.022477 0,1.414213 0.3917365,0.391737 1.022477,0.391737 1.4142136,0 L 12,13.414214 l 3.535534,3.535533 c 0.391736,0.391737 1.022477,0.391737 1.414213,0 0.391737,-0.391736 0.391737,-1.022477 0,-1.414213 L 13.414214,12 16.949747,8.4644662 c 0.391737,-0.3917365 0.391737,-1.0224771 0,-1.4142136 -0.391736,-0.3917364 -1.022477,-0.3917364 -1.414213,0 L 12,10.585786 8.4644665,7.0502526 c -0.3917366,-0.3917366 -1.0224772,-0.3917364 -1.4142136,0 z" />
</svg>
