<?xml version="1.0" encoding="UTF-8" standalone="no"?>
<!-- Created with Inkscape (http://www.inkscape.org/) -->

<svg
   width="24"
   height="24"
   viewBox="0 0 24 24"
   version="1.1"
   id="svg2535"
   inkscape:version="1.2.2 (1:1.2.2+202305151914+b0a8486541)"
   sodipodi:docname="dialog-password.svg"
   xmlns:inkscape="http://www.inkscape.org/namespaces/inkscape"
   xmlns:sodipodi="http://sodipodi.sourceforge.net/DTD/sodipodi-0.dtd"
   xmlns:xlink="http://www.w3.org/1999/xlink"
   xmlns="http://www.w3.org/2000/svg"
   xmlns:svg="http://www.w3.org/2000/svg">
  <sodipodi:namedview
     id="namedview2537"
     pagecolor="#ffffff"
     bordercolor="#000000"
     borderopacity="0.25"
     inkscape:showpageshadow="2"
     inkscape:pageopacity="0.0"
     inkscape:pagecheckerboard="0"
     inkscape:deskcolor="#d1d1d1"
     inkscape:document-units="px"
     showgrid="false"
     inkscape:zoom="33.583333"
     inkscape:cx="11.985112"
     inkscape:cy="12"
     inkscape:window-width="1920"
     inkscape:window-height="1008"
     inkscape:window-x="0"
     inkscape:window-y="0"
     inkscape:window-maximized="1"
     inkscape:current-layer="svg2535" />
  <defs
     id="defs2532">
    <linearGradient
       inkscape:collect="always"
       id="linearGradient2466">
      <stop
         style="stop-color:#26ade9;stop-opacity:1;"
         offset="0"
         id="stop2462" />
      <stop
         style="stop-color:#0580d8;stop-opacity:1;"
         offset="1"
         id="stop2464" />
    </linearGradient>
    <linearGradient
       inkscape:collect="always"
       id="linearGradient1339">
      <stop
         style="stop-color:#fedf00;stop-opacity:1;"
         offset="0"
         id="stop1335" />
      <stop
         style="stop-color:#ffbb01;stop-opacity:1"
         offset="1"
         id="stop1337" />
    </linearGradient>
    <linearGradient
       inkscape:collect="always"
       xlink:href="#linearGradient1339"
       id="linearGradient4113"
       gradientUnits="userSpaceOnUse"
       gradientTransform="matrix(0.62497772,0,0,0.62711173,2.0003136,1.3508454)"
       x1="16.000069"
       y1="1.0351498"
       x2="16.000069"
       y2="32.927395" />
    <linearGradient
       inkscape:collect="always"
       xlink:href="#linearGradient2466"
       id="linearGradient2499"
       gradientUnits="userSpaceOnUse"
       gradientTransform="matrix(1.1702856,0,0,1.1492706,2,1.9999999)"
       x1="8.5449228"
       y1="6.6294639e-08"
       x2="8.5449228"
       y2="17.402342" />
  </defs>
  <path
     style="color:#000000;fill:url(#linearGradient4113);fill-opacity:1;stroke:none;stroke-width:2;stroke-linecap:round;stroke-linejoin:round;-inkscape-stroke:none"
     d="M 12,2 C 9.5429904,2 8.45848,2.5299814 7.0000004,3.5 c -1.2413749,0.9428128 -2.5251901,1.5 -4,1.5 -0.5522847,0 -1,0.4477153 -1,1 v 6 c 0,2.110185 1.5111607,4.44924 3.1953125,6.101562 C 6.8249412,19.77107 10.066328,21.7551 12,22 13.933672,21.7551 17.17506,19.77107 18.804688,18.101562 20.48884,16.44924 22,14.110186 22,12 V 6 C 22,5.4477153 21.552285,5 21,5 19.52519,5 18.241375,4.4428128 17,3.5 15.54152,2.5299814 14.45701,2 12,2 Z"
     id="path414"
     sodipodi:nodetypes="scssscccssscs" />
  <path
     id="path2480"
     style="fill:url(#linearGradient2499);stroke-width:1.15973;stroke-linecap:round;stroke-linejoin:round"
     d="M 12,2 V 12 H 22 V 6 C 22,5.4477159 21.552284,5 21,5 19.525191,5 18.241374,4.4428119 17,3.5 15.541521,2.5299824 14.457008,2 12,2 Z m 0,10 H 2 c 0,2.110183 1.5111624,4.449242 3.1953125,6.101562 C 6.8249392,19.771069 10.06633,21.7551 12,22 Z" />
  <path
     id="path416"
     style="color:#000000;opacity:0.2;fill:#000000;stroke:none;stroke-linecap:round;stroke-linejoin:round;-inkscape-stroke:none"
     d="M 12,2 C 9.5429929,2 8.4584781,2.5299824 7,3.5 5.7586263,4.4428119 4.4748084,5 3,5 2.4477159,5 2,5.4477159 2,6 v 6 c 0,2.110183 1.5111624,4.449242 3.1953125,6.101562 C 6.8249392,19.771069 10.06633,21.7551 12,22 13.93367,21.755099 17.175061,19.771068 18.804688,18.101562 20.488838,16.449242 22,14.110185 22,12 V 6 C 22,5.4477159 21.552284,5 21,5 19.525191,5 18.241374,4.4428119 17,3.5 15.541521,2.5299824 14.457008,2 12,2 Z m 0,1 c 2.30218,0 3.030934,0.3934623 4.425781,1.3203125 C 17.772649,5.3358419 19.286617,6 21,6 v 6 c 0,1.632765 -1.335646,3.857332 -2.896484,5.388672 -0.0046,0.0045 -0.0092,0.0091 -0.01367,0.01367 -0.721631,0.73929 -1.890712,1.625024 -3.078125,2.320312 C 13.871565,20.390273 12.714806,20.840447 12,20.957031 11.285194,20.840447 10.128433,20.390271 8.9882812,19.722656 7.8008681,19.027368 6.631787,18.141634 5.9101562,17.402344 c -0.00451,-0.0046 -0.00907,-0.0092 -0.013672,-0.01367 C 4.3356458,15.85733 3,13.632763 3,12 V 6 C 4.705656,6 6.2123942,5.3398172 7.5546875,4.3320312 8.9626802,3.3955911 9.6867962,3 12,3 Z"
     sodipodi:nodetypes="scssscccssscssccsscscsccsccs" />
</svg>
