<?xml version="1.0" encoding="UTF-8" standalone="no"?>
<!-- Created with Inkscape (http://www.inkscape.org/) -->

<svg
   width="24"
   height="24"
   viewBox="0 0 24 24.000001"
   version="1.1"
   id="svg5"
   inkscape:version="1.2.1 (9c6d41e410, 2022-07-14, custom)"
   sodipodi:docname="image-missing.svg"
   xmlns:inkscape="http://www.inkscape.org/namespaces/inkscape"
   xmlns:sodipodi="http://sodipodi.sourceforge.net/DTD/sodipodi-0.dtd"
   xmlns:xlink="http://www.w3.org/1999/xlink"
   xmlns="http://www.w3.org/2000/svg"
   xmlns:svg="http://www.w3.org/2000/svg">
  <sodipodi:namedview
     id="namedview7"
     pagecolor="#ffffff"
     bordercolor="#000000"
     borderopacity="0.25"
     inkscape:showpageshadow="2"
     inkscape:pageopacity="0.0"
     inkscape:pagecheckerboard="0"
     inkscape:deskcolor="#d1d1d1"
     inkscape:document-units="px"
     showgrid="false"
     inkscape:zoom="33.75"
     inkscape:cx="12"
     inkscape:cy="12"
     inkscape:window-width="1920"
     inkscape:window-height="1012"
     inkscape:window-x="0"
     inkscape:window-y="0"
     inkscape:window-maximized="1"
     inkscape:current-layer="svg5"
     showguides="false" />
  <defs
     id="defs2">
    <linearGradient
       inkscape:collect="always"
       id="linearGradient1407">
      <stop
         style="stop-color:#e96311;stop-opacity:1;"
         offset="0"
         id="stop1403" />
      <stop
         style="stop-color:#da3f04;stop-opacity:1"
         offset="1"
         id="stop1405" />
    </linearGradient>
    <linearGradient
       inkscape:collect="always"
       xlink:href="#linearGradient1407"
       id="linearGradient1477"
       x1="7.4604449"
       y1="7.4684963"
       x2="14.594507"
       y2="14.475561"
       gradientUnits="userSpaceOnUse"
       gradientTransform="translate(1,1)" />
  </defs>
  <rect
     style="fill:#7d7d7b;fill-opacity:1"
     id="rect906"
     width="22"
     height="16"
     x="1"
     y="4"
     ry="1" />
  <rect
     style="fill:#fafafa;fill-opacity:1;stroke-width:1.11803"
     id="rect1167"
     width="20"
     height="14"
     x="2"
     y="5" />
  <path
     id="path374"
     style="fill:url(#linearGradient1477);fill-opacity:1;stroke-width:1.66667"
     d="m 12,7 c -2.7614182,0 -5,2.238582 -5,5 0,2.761417 2.2385818,5 5,5 2.761417,0 5,-2.238583 5,-5 0,-2.761418 -2.238583,-5 -5,-5 z m 0,1 c 0.924245,0 1.77387,0.3153796 2.451172,0.8417969 L 8.8417969,14.451172 C 8.3153795,13.77387 8,12.924244 8,12 8,9.790865 9.7908657,8 12,8 Z m 3.158203,1.5488281 C 15.68462,10.22613 16,11.075756 16,12 c 0,2.209135 -1.790864,4 -4,4 -0.924244,0 -1.77387,-0.31538 -2.4511719,-0.841797 z" />
</svg>
